M48
; DRILL file {KiCad 9.0.0} date 2025-12-28T17:48:43+0000
; FORMAT={-:-/ absolute / metric / decimal}
; #@! TF.CreationDate,2025-12-28T17:48:43+00:00
; #@! TF.GenerationSoftware,Kicad,Pcbnew,9.0.0
; #@! TF.FileFunction,Plated,1,2,PTH
FMAT,2
METRIC
; #@! TA.AperFunction,Plated,PTH,ViaDrill
T1C0.300
; #@! TA.AperFunction,Plated,PTH,ComponentDrill
T2C0.850
%
G90
G05
T1
X67.31Y-125.095
X67.31Y-126.682
X118.427Y-118.364
X120.65Y-110.49
X136.525Y-135.89
X136.843Y-132.715
X138.43Y-112.395
X138.43Y-113.665
X138.43Y-116.522
X138.43Y-119.697
X138.748Y-109.322
X138.748Y-110.49
T2
G00X138.89Y-97.237
M15
G01X138.19Y-97.237
M16
G05
G00X138.89Y-107.438
M15
G01X138.19Y-107.438
M16
G05
G00X142.59Y-97.237
M15
G01X141.89Y-97.237
M16
G05
G00X142.59Y-107.438
M15
G01X141.89Y-107.438
M16
G05
M30
