%TF.GenerationSoftware,KiCad,Pcbnew,9.0.0*%
%TF.CreationDate,2025-12-28T17:48:43+00:00*%
%TF.ProjectId,turing,74757269-6e67-42e6-9b69-6361645f7063,v2.0*%
%TF.SameCoordinates,Original*%
%TF.FileFunction,Drillmap*%
%TF.FilePolarity,Positive*%
%FSLAX45Y45*%
G04 Gerber Fmt 4.5, Leading zero omitted, Abs format (unit mm)*
G04 Created by KiCad (PCBNEW 9.0.0) date 2025-12-28 17:48:43*
%MOMM*%
%LPD*%
G01*
G04 APERTURE LIST*
%ADD10C,0.050000*%
%ADD11C,0.200000*%
%ADD12C,0.100000*%
G04 APERTURE END LIST*
D10*
X13303250Y-12858750D02*
X13303250Y-9842500D01*
X14382750Y-9842500D02*
X14382750Y-12954000D01*
X7969250Y-10890250D02*
X7969250Y-12954010D01*
X7270750Y-10890250D02*
X7270750Y-13112750D01*
X10826708Y-12964908D02*
G75*
G02*
X7969250Y-12954011I-1428708J10899D01*
G01*
X6953250Y-16065500D02*
X6953250Y-16160750D01*
X6191250Y-10795000D02*
G75*
G02*
X9048750Y-10795000I1428750J0D01*
G01*
X6508750Y-16065500D02*
X6508750Y-16160750D01*
X6096000Y-14446250D02*
X6097973Y-14453480D01*
X6099936Y-14460668D01*
X6101832Y-14467600D01*
X6103720Y-14474494D01*
X6105546Y-14481159D01*
X6107365Y-14487788D01*
X6109130Y-14494210D01*
X6110887Y-14500598D01*
X6112595Y-14506798D01*
X6114296Y-14512966D01*
X6115951Y-14518963D01*
X6117601Y-14524929D01*
X6119209Y-14530738D01*
X6120811Y-14536518D01*
X6122374Y-14542151D01*
X6123933Y-14547758D01*
X6125455Y-14553229D01*
X6126973Y-14558674D01*
X6128457Y-14563993D01*
X6129937Y-14569287D01*
X6131386Y-14574464D01*
X6132830Y-14579616D01*
X6134245Y-14584658D01*
X6135656Y-14589677D01*
X6137040Y-14594592D01*
X6138420Y-14599485D01*
X6139775Y-14604281D01*
X6141125Y-14609055D01*
X6142452Y-14613737D01*
X6143774Y-14618398D01*
X6145074Y-14622972D01*
X6146371Y-14627526D01*
X6147646Y-14631997D01*
X6148918Y-14636450D01*
X6150169Y-14640823D01*
X6151417Y-14645178D01*
X6152646Y-14649458D01*
X6153871Y-14653720D01*
X6155078Y-14657910D01*
X6156283Y-14662083D01*
X6157469Y-14666189D01*
X6158653Y-14670277D01*
X6159820Y-14674300D01*
X6160985Y-14678306D01*
X6162133Y-14682250D01*
X6163279Y-14686179D01*
X6164410Y-14690047D01*
X6165538Y-14693900D01*
X6166652Y-14697696D01*
X6167763Y-14701477D01*
X6168860Y-14705202D01*
X6169955Y-14708913D01*
X6171036Y-14712571D01*
X6172115Y-14716215D01*
X6173181Y-14719808D01*
X6174245Y-14723387D01*
X6175297Y-14726917D01*
X6176347Y-14730433D01*
X6177385Y-14733902D01*
X6178420Y-14737358D01*
X6179445Y-14740768D01*
X6180467Y-14744165D01*
X6181479Y-14747518D01*
X6182488Y-14750859D01*
X6183487Y-14754157D01*
X6184484Y-14757442D01*
X6185471Y-14760687D01*
X6186457Y-14763919D01*
X6187432Y-14767112D01*
X6188406Y-14770293D01*
X6189370Y-14773436D01*
X6190332Y-14776566D01*
X6191286Y-14779660D01*
X6192238Y-14782742D01*
X6193180Y-14785788D01*
X6194122Y-14788823D01*
X6195055Y-14791823D01*
X6195986Y-14794813D01*
X6196909Y-14797768D01*
X6197831Y-14800712D01*
X6198745Y-14803624D01*
X6199657Y-14806525D01*
X6200561Y-14809394D01*
X6201465Y-14812253D01*
X6202360Y-14815081D01*
X6203255Y-14817899D01*
X6204142Y-14820686D01*
X6205028Y-14823464D01*
X6205907Y-14826212D01*
X6206784Y-14828951D01*
X6207655Y-14831661D01*
X6208525Y-14834362D01*
X6209388Y-14837035D01*
X6210250Y-14839698D01*
X6211105Y-14842334D01*
X6211960Y-14844962D01*
X6212808Y-14847563D01*
X6213655Y-14850154D01*
X6214496Y-14852721D01*
X6215336Y-14855278D01*
X6216170Y-14857810D01*
X6217003Y-14860334D01*
X6217831Y-14862833D01*
X6218657Y-14865324D01*
X6219478Y-14867791D01*
X6220298Y-14870250D01*
X6221113Y-14872685D01*
X6221927Y-14875112D01*
X6222735Y-14877516D01*
X6223543Y-14879913D01*
X6224345Y-14882287D01*
X6225147Y-14884653D01*
X6225944Y-14886998D01*
X6226740Y-14889335D01*
X6227531Y-14891651D01*
X6228322Y-14893959D01*
X6229108Y-14896246D01*
X6229893Y-14898526D01*
X6230673Y-14900786D01*
X6231453Y-14903038D01*
X6232228Y-14905271D01*
X6233003Y-14907496D01*
X6233773Y-14909702D01*
X6234543Y-14911901D01*
X6235308Y-14914081D01*
X6236073Y-14916254D01*
X6236834Y-14918408D01*
X6237594Y-14920556D01*
X6238350Y-14922685D01*
X6239106Y-14924808D01*
X6239858Y-14926913D01*
X6240609Y-14929011D01*
X6241356Y-14931092D01*
X6242103Y-14933166D01*
X6242846Y-14935224D01*
X6243589Y-14937274D01*
X6244328Y-14939309D01*
X6245067Y-14941337D01*
X6245802Y-14943348D01*
X6246536Y-14945353D01*
X6247267Y-14947343D01*
X6247998Y-14949326D01*
X6248726Y-14951293D01*
X6249453Y-14953255D01*
X6250176Y-14955201D01*
X6250900Y-14957141D01*
X6251620Y-14959066D01*
X6252340Y-14960985D01*
X6253057Y-14962890D01*
X6253773Y-14964788D01*
X6254486Y-14966672D01*
X6255200Y-14968551D01*
X6255910Y-14970415D01*
X6256619Y-14972274D01*
X6257326Y-14974118D01*
X6258033Y-14975957D01*
X6258737Y-14977783D01*
X6259441Y-14979603D01*
X6260141Y-14981409D01*
X6260842Y-14983211D01*
X6261540Y-14984999D01*
X6262238Y-14986781D01*
X6262933Y-14988551D01*
X6263628Y-14990316D01*
X6264320Y-14992068D01*
X6265013Y-14993815D01*
X6265702Y-14995549D01*
X6266392Y-14997278D01*
X6267079Y-14998995D01*
X6267766Y-15000707D01*
X6268451Y-15002407D01*
X6269135Y-15004102D01*
X6269817Y-15005786D01*
X6270500Y-15007464D01*
X6271179Y-15009131D01*
X6271859Y-15010793D01*
X6272537Y-15012444D01*
X6273214Y-15014089D01*
X6273890Y-15015724D01*
X6274565Y-15017354D01*
X6275238Y-15018973D01*
X6275911Y-15020588D01*
X6276582Y-15022192D01*
X6277254Y-15023791D01*
X6277923Y-15025379D01*
X6278592Y-15026963D01*
X6279259Y-15028537D01*
X6279926Y-15030106D01*
X6280591Y-15031665D01*
X6281257Y-15033220D01*
X6281920Y-15034764D01*
X6282584Y-15036304D01*
X6283246Y-15037835D01*
X6283907Y-15039361D01*
X6284567Y-15040877D01*
X6285228Y-15042389D01*
X6285886Y-15043892D01*
X6286544Y-15045390D01*
X6287201Y-15046879D01*
X6287858Y-15048364D01*
X6288513Y-15049840D01*
X6289169Y-15051312D01*
X6289823Y-15052774D01*
X6290477Y-15054233D01*
X6291129Y-15055682D01*
X6291782Y-15057128D01*
X6292433Y-15058565D01*
X6293084Y-15059998D01*
X6293734Y-15061422D01*
X6294384Y-15062842D01*
X6295032Y-15064254D01*
X6295681Y-15065662D01*
X6296328Y-15067062D01*
X6296976Y-15068458D01*
X6297622Y-15069846D01*
X6298268Y-15071230D01*
X6298913Y-15072606D01*
X6299559Y-15073978D01*
X6300203Y-15075343D01*
X6300847Y-15076704D01*
X6301490Y-15078057D01*
X6302134Y-15079406D01*
X6302776Y-15080747D01*
X6303418Y-15082085D01*
X6304059Y-15083416D01*
X6304701Y-15084743D01*
X6305341Y-15086062D01*
X6305982Y-15087378D01*
X6306621Y-15088687D01*
X6307261Y-15089992D01*
X6307900Y-15091291D01*
X6308539Y-15092585D01*
X6309177Y-15093873D01*
X6309816Y-15095157D01*
X6310453Y-15096434D01*
X6311091Y-15097708D01*
X6311728Y-15098975D01*
X6312365Y-15100239D01*
X6313001Y-15101496D01*
X6313638Y-15102750D01*
X6314273Y-15103997D01*
X6314910Y-15105241D01*
X6315545Y-15106478D01*
X6316180Y-15107712D01*
X6316815Y-15108940D01*
X6317450Y-15110165D01*
X6318085Y-15111383D01*
X6318719Y-15112598D01*
X6319353Y-15113807D01*
X6319988Y-15115013D01*
X6320622Y-15116213D01*
X6321256Y-15117409D01*
X6321889Y-15118600D01*
X6322523Y-15119787D01*
X6323156Y-15120969D01*
X6323790Y-15122148D01*
X6324423Y-15123321D01*
X6325056Y-15124491D01*
X6325689Y-15125655D01*
X6326322Y-15126816D01*
X6326955Y-15127971D01*
X6327588Y-15129124D01*
X6328221Y-15130271D01*
X6328854Y-15131415D01*
X6329486Y-15132554D01*
X6330119Y-15133690D01*
X6330752Y-15134821D01*
X6331385Y-15135948D01*
X6332018Y-15137071D01*
X6332651Y-15138190D01*
X6333283Y-15139305D01*
X6333917Y-15140417D01*
X6334549Y-15141523D01*
X6335183Y-15142627D01*
X6335816Y-15143726D01*
X6336449Y-15144822D01*
X6337082Y-15145913D01*
X6337716Y-15147001D01*
X6338350Y-15148085D01*
X6338984Y-15149166D01*
X6339617Y-15150242D01*
X6340251Y-15151315D01*
X6340885Y-15152384D01*
X6341520Y-15153450D01*
X6342154Y-15154512D01*
X6342789Y-15155571D01*
X6343424Y-15156625D01*
X6344059Y-15157677D01*
X6344694Y-15158724D01*
X6345330Y-15159769D01*
X6345966Y-15160809D01*
X6346602Y-15161847D01*
X6347238Y-15162880D01*
X6347875Y-15163911D01*
X6348511Y-15164938D01*
X6349148Y-15165962D01*
X6349785Y-15166982D01*
X6350423Y-15168000D01*
X6351061Y-15169014D01*
X6351700Y-15170025D01*
X6352338Y-15171032D01*
X6352977Y-15172036D01*
X6353616Y-15173037D01*
X6354256Y-15174035D01*
X6354896Y-15175029D01*
X6355536Y-15176021D01*
X6356177Y-15177010D01*
X6356818Y-15177995D01*
X6357459Y-15178977D01*
X6358101Y-15179957D01*
X6358744Y-15180933D01*
X6359386Y-15181906D01*
X6360029Y-15182876D01*
X6360673Y-15183844D01*
X6361317Y-15184808D01*
X6361962Y-15185770D01*
X6362607Y-15186728D01*
X6363252Y-15187685D01*
X6363898Y-15188637D01*
X6364545Y-15189588D01*
X6365192Y-15190535D01*
X6365839Y-15191479D01*
X6366487Y-15192421D01*
X6367136Y-15193360D01*
X6367785Y-15194296D01*
X6368435Y-15195230D01*
X6369085Y-15196160D01*
X6369736Y-15197089D01*
X6370387Y-15198014D01*
X6371039Y-15198937D01*
X6371691Y-15199857D01*
X6372345Y-15200775D01*
X6372998Y-15201690D01*
X6373653Y-15202603D01*
X6374308Y-15203513D01*
X6374964Y-15204420D01*
X6375620Y-15205325D01*
X6376277Y-15206228D01*
X6376935Y-15207128D01*
X6377594Y-15208025D01*
X6378253Y-15208920D01*
X6378912Y-15209813D01*
X6379573Y-15210703D01*
X6380234Y-15211591D01*
X6380896Y-15212477D01*
X6381559Y-15213360D01*
X6382223Y-15214241D01*
X6382887Y-15215120D01*
X6383552Y-15215996D01*
X6384218Y-15216870D01*
X6384884Y-15217742D01*
X6385552Y-15218612D01*
X6386220Y-15219479D01*
X6386889Y-15220344D01*
X6387559Y-15221207D01*
X6388230Y-15222068D01*
X6388901Y-15222926D01*
X6389574Y-15223783D01*
X6390247Y-15224637D01*
X6390922Y-15225490D01*
X6391597Y-15226340D01*
X6392273Y-15227188D01*
X6392950Y-15228034D01*
X6393628Y-15228878D01*
X6394307Y-15229720D01*
X6394986Y-15230560D01*
X6395667Y-15231398D01*
X6396349Y-15232234D01*
X6397031Y-15233068D01*
X6397715Y-15233900D01*
X6398400Y-15234730D01*
X6399086Y-15235558D01*
X6399772Y-15236385D01*
X6400460Y-15237209D01*
X6401149Y-15238032D01*
X6401839Y-15238853D01*
X6402530Y-15239671D01*
X6403222Y-15240489D01*
X6403915Y-15241304D01*
X6404609Y-15242117D01*
X6405304Y-15242929D01*
X6406001Y-15243739D01*
X6406698Y-15244547D01*
X6407397Y-15245354D01*
X6408097Y-15246158D01*
X6408798Y-15246961D01*
X6409500Y-15247763D01*
X6410203Y-15248562D01*
X6410908Y-15249360D01*
X6411614Y-15250157D01*
X6412321Y-15250952D01*
X6413029Y-15251745D01*
X6414450Y-15253326D01*
X6415875Y-15254901D01*
X6417306Y-15256470D01*
X6418742Y-15258033D01*
X6420183Y-15259590D01*
X6421630Y-15261141D01*
X6423082Y-15262687D01*
X6424540Y-15264226D01*
X6426004Y-15265761D01*
X6427474Y-15267289D01*
X6428950Y-15268813D01*
X6430431Y-15270331D01*
X6431920Y-15271845D01*
X6433414Y-15273353D01*
X6434915Y-15274857D01*
X6436423Y-15276356D01*
X6437937Y-15277850D01*
X6439458Y-15279339D01*
X6440986Y-15280825D01*
X6442521Y-15282306D01*
X6444063Y-15283782D01*
X6445612Y-15285255D01*
X6447169Y-15286724D01*
X6448733Y-15288188D01*
X6450305Y-15289649D01*
X6451885Y-15291107D01*
X6453473Y-15292561D01*
X6455069Y-15294011D01*
X6456673Y-15295458D01*
X6458285Y-15296902D01*
X6459906Y-15298342D01*
X6461536Y-15299780D01*
X6463174Y-15301215D01*
X6464821Y-15302647D01*
X6466478Y-15304076D01*
X6468143Y-15305503D01*
X6469818Y-15306927D01*
X6471503Y-15308349D01*
X6473197Y-15309768D01*
X6474901Y-15311186D01*
X6476616Y-15312601D01*
X6478340Y-15314015D01*
X6480075Y-15315426D01*
X6481821Y-15316836D01*
X6483577Y-15318245D01*
X6485345Y-15319652D01*
X6487123Y-15321058D01*
X6488913Y-15322462D01*
X6490715Y-15323866D01*
X6492528Y-15325268D01*
X6494353Y-15326670D01*
X6496190Y-15328071D01*
X6498040Y-15329471D01*
X6499903Y-15330871D01*
X6501778Y-15332270D01*
X6503666Y-15333669D01*
X6505568Y-15335069D01*
X6507483Y-15336468D01*
X6509413Y-15337867D01*
X6511356Y-15339267D01*
X6513313Y-15340667D01*
X6515285Y-15342068D01*
X6517272Y-15343470D01*
X6519274Y-15344872D01*
X6521292Y-15346276D01*
X6523325Y-15347681D01*
X6525375Y-15349087D01*
X6527440Y-15350495D01*
X6529522Y-15351904D01*
X6531622Y-15353315D01*
X6533738Y-15354728D01*
X6535873Y-15356144D01*
X6538025Y-15357561D01*
X6540195Y-15358981D01*
X6542385Y-15360404D01*
X6544593Y-15361830D01*
X6546821Y-15363259D01*
X6549069Y-15364691D01*
X6551337Y-15366127D01*
X6553626Y-15367566D01*
X6555937Y-15369009D01*
X6558269Y-15370457D01*
X6560623Y-15371909D01*
X6562999Y-15373365D01*
X6565399Y-15374826D01*
X6567823Y-15376292D01*
X6570270Y-15377763D01*
X6572743Y-15379240D01*
X6575241Y-15380723D01*
X6577764Y-15382212D01*
X6580314Y-15383707D01*
X6582892Y-15385209D01*
X6585497Y-15386718D01*
X6588131Y-15388234D01*
X6590794Y-15389758D01*
X6593487Y-15391290D01*
X6596211Y-15392830D01*
X6598966Y-15394379D01*
X6601754Y-15395936D01*
X6604575Y-15397504D01*
X6607430Y-15399081D01*
X6610321Y-15400668D01*
X6613247Y-15402266D01*
X6616211Y-15403876D01*
X6619213Y-15405497D01*
X6622254Y-15407130D01*
X6625336Y-15408776D01*
X6628460Y-15410435D01*
X6631627Y-15412108D01*
X6634839Y-15413796D01*
X6638097Y-15415499D01*
X6641402Y-15417218D01*
X6644757Y-15418953D01*
X6648162Y-15420706D01*
X6651621Y-15422477D01*
X6655134Y-15424267D01*
X6658704Y-15426077D01*
X6662332Y-15427908D01*
X6666023Y-15429761D01*
X6667500Y-15430500D01*
X7270750Y-13112750D02*
X7270750Y-13112750D01*
X6953250Y-16065500D02*
X6794500Y-15779750D01*
X14382750Y-12954000D02*
G75*
G02*
X11525250Y-12954000I-1428750J0D01*
G01*
X13843000Y-9017000D02*
X13840792Y-9019423D01*
X13838584Y-9021833D01*
X13836376Y-9024233D01*
X13834168Y-9026621D01*
X13831959Y-9028997D01*
X13829750Y-9031363D01*
X13827540Y-9033717D01*
X13825330Y-9036060D01*
X13823118Y-9038393D01*
X13820907Y-9040714D01*
X13818694Y-9043025D01*
X13816481Y-9045325D01*
X13814266Y-9047615D01*
X13812051Y-9049894D01*
X13809834Y-9052163D01*
X13807617Y-9054421D01*
X13805398Y-9056670D01*
X13803178Y-9058909D01*
X13800956Y-9061137D01*
X13798733Y-9063356D01*
X13796508Y-9065566D01*
X13794281Y-9067765D01*
X13792053Y-9069956D01*
X13789823Y-9072137D01*
X13787590Y-9074309D01*
X13785356Y-9076472D01*
X13783119Y-9078626D01*
X13780880Y-9080771D01*
X13778639Y-9082907D01*
X13776395Y-9085035D01*
X13774148Y-9087154D01*
X13771898Y-9089266D01*
X13769646Y-9091369D01*
X13767390Y-9093464D01*
X13765131Y-9095551D01*
X13762869Y-9097631D01*
X13760603Y-9099703D01*
X13758333Y-9101767D01*
X13756060Y-9103825D01*
X13753782Y-9105875D01*
X13751500Y-9107918D01*
X13749214Y-9109955D01*
X13746923Y-9111985D01*
X13744628Y-9114009D01*
X13742327Y-9116026D01*
X13740021Y-9118038D01*
X13737710Y-9120044D01*
X13735393Y-9122044D01*
X13733070Y-9124039D01*
X13730740Y-9126028D01*
X13728405Y-9128013D01*
X13726062Y-9129993D01*
X13723712Y-9131969D01*
X13721355Y-9133940D01*
X13718991Y-9135907D01*
X13716618Y-9137871D01*
X13714237Y-9139832D01*
X13711847Y-9141789D01*
X13709448Y-9143744D01*
X13707039Y-9145696D01*
X13704620Y-9147646D01*
X13702190Y-9149595D01*
X13699749Y-9151542D01*
X13697297Y-9153489D01*
X13694833Y-9155435D01*
X13692355Y-9157381D01*
X13689864Y-9159327D01*
X13687359Y-9161275D01*
X13684839Y-9163224D01*
X13682303Y-9165175D01*
X13679750Y-9167129D01*
X13677180Y-9169087D01*
X13674591Y-9171049D01*
X13671982Y-9173016D01*
X13669352Y-9174989D01*
X13666700Y-9176969D01*
X13664024Y-9178957D01*
X13661322Y-9180953D01*
X13658593Y-9182960D01*
X13655835Y-9184979D01*
X13653045Y-9187011D01*
X13650221Y-9189059D01*
X13647361Y-9191123D01*
X13644460Y-9193206D01*
X13641515Y-9195311D01*
X13638523Y-9197440D01*
X13635477Y-9199598D01*
X13632373Y-9201788D01*
X13629203Y-9204014D01*
X13625959Y-9206282D01*
X13622631Y-9208600D01*
X13619205Y-9210977D01*
X13615666Y-9213422D01*
X13611992Y-9215951D01*
X13608154Y-9218584D01*
X13604110Y-9221348D01*
X13599798Y-9224287D01*
X13595111Y-9227472D01*
X13589854Y-9231035D01*
X13583544Y-9235303D01*
X13578913Y-9238433D01*
X13571515Y-9243434D01*
X13567851Y-9245914D01*
X13564211Y-9248381D01*
X13560594Y-9250838D01*
X13557000Y-9253284D01*
X13553430Y-9255722D01*
X13549883Y-9258152D01*
X13548118Y-9259365D01*
X13546360Y-9260576D01*
X13544607Y-9261786D01*
X13542860Y-9262995D01*
X13541119Y-9264203D01*
X13539384Y-9265410D01*
X13537655Y-9266617D01*
X13535931Y-9267822D01*
X13534214Y-9269028D01*
X13532502Y-9270233D01*
X13530797Y-9271438D01*
X13529097Y-9272643D01*
X13527404Y-9273848D01*
X13525716Y-9275054D01*
X13524034Y-9276260D01*
X13522358Y-9277466D01*
X13520688Y-9278674D01*
X13519024Y-9279882D01*
X13517366Y-9281092D01*
X13515713Y-9282302D01*
X13514067Y-9283514D01*
X13512427Y-9284728D01*
X13510793Y-9285943D01*
X13509164Y-9287160D01*
X13507542Y-9288378D01*
X13505925Y-9289599D01*
X13504315Y-9290823D01*
X13502711Y-9292048D01*
X13501112Y-9293276D01*
X13499519Y-9294507D01*
X13497933Y-9295741D01*
X13496352Y-9296977D01*
X13494778Y-9298217D01*
X13493209Y-9299460D01*
X13491647Y-9300707D01*
X13490090Y-9301957D01*
X13488540Y-9303210D01*
X13486995Y-9304468D01*
X13485457Y-9305729D01*
X13483924Y-9306995D01*
X13482398Y-9308265D01*
X13480877Y-9309539D01*
X13479363Y-9310819D01*
X13477854Y-9312102D01*
X13476352Y-9313391D01*
X13474856Y-9314685D01*
X13473366Y-9315983D01*
X13472623Y-9316635D01*
X13471881Y-9317288D01*
X13471141Y-9317942D01*
X13470403Y-9318597D01*
X13469666Y-9319254D01*
X13468931Y-9319913D01*
X13468197Y-9320572D01*
X13467465Y-9321234D01*
X13466734Y-9321896D01*
X13466005Y-9322561D01*
X13465277Y-9323226D01*
X13464551Y-9323894D01*
X13463826Y-9324563D01*
X13463103Y-9325233D01*
X13462382Y-9325905D01*
X13461661Y-9326579D01*
X13460943Y-9327254D01*
X13460226Y-9327931D01*
X13459510Y-9328609D01*
X13458796Y-9329289D01*
X13458084Y-9329971D01*
X13457373Y-9330655D01*
X13456663Y-9331340D01*
X13455955Y-9332027D01*
X13455249Y-9332716D01*
X13454544Y-9333407D01*
X13453840Y-9334100D01*
X13453138Y-9334794D01*
X13452438Y-9335490D01*
X13451739Y-9336188D01*
X13451042Y-9336888D01*
X13450346Y-9337590D01*
X13449652Y-9338294D01*
X13448959Y-9338999D01*
X13448268Y-9339707D01*
X13447578Y-9340416D01*
X13446890Y-9341128D01*
X13446204Y-9341842D01*
X13445518Y-9342557D01*
X13444835Y-9343275D01*
X13444153Y-9343995D01*
X13443472Y-9344717D01*
X13442793Y-9345441D01*
X13442116Y-9346167D01*
X13441440Y-9346895D01*
X13440766Y-9347625D01*
X13440093Y-9348358D01*
X13439422Y-9349092D01*
X13438752Y-9349829D01*
X13438084Y-9350569D01*
X13437417Y-9351310D01*
X13436752Y-9352054D01*
X13436088Y-9352800D01*
X13435426Y-9353548D01*
X13434765Y-9354299D01*
X13434106Y-9355052D01*
X13433449Y-9355807D01*
X13432793Y-9356565D01*
X13432139Y-9357325D01*
X13431486Y-9358087D01*
X13430834Y-9358852D01*
X13430185Y-9359620D01*
X13429536Y-9360389D01*
X13428890Y-9361162D01*
X13428244Y-9361937D01*
X13427601Y-9362714D01*
X13426959Y-9363494D01*
X13426318Y-9364276D01*
X13425679Y-9365062D01*
X13425042Y-9365849D01*
X13424406Y-9366639D01*
X13423771Y-9367432D01*
X13423138Y-9368228D01*
X13422507Y-9369026D01*
X13421877Y-9369827D01*
X13421249Y-9370631D01*
X13420623Y-9371437D01*
X13419997Y-9372246D01*
X13419374Y-9373058D01*
X13418752Y-9373873D01*
X13418131Y-9374690D01*
X13417513Y-9375511D01*
X13416895Y-9376334D01*
X13416279Y-9377160D01*
X13415665Y-9377989D01*
X13415052Y-9378821D01*
X13414441Y-9379655D01*
X13413832Y-9380493D01*
X13413223Y-9381333D01*
X13412617Y-9382177D01*
X13412012Y-9383023D01*
X13411409Y-9383873D01*
X13410807Y-9384726D01*
X13410206Y-9385581D01*
X13409608Y-9386440D01*
X13409010Y-9387301D01*
X13408415Y-9388166D01*
X13407821Y-9389034D01*
X13407228Y-9389905D01*
X13406637Y-9390779D01*
X13406048Y-9391657D01*
X13405460Y-9392537D01*
X13404874Y-9393421D01*
X13404289Y-9394308D01*
X13403706Y-9395198D01*
X13403124Y-9396092D01*
X13402544Y-9396989D01*
X13401965Y-9397889D01*
X13401388Y-9398792D01*
X13400813Y-9399699D01*
X13400239Y-9400609D01*
X13399667Y-9401522D01*
X13399096Y-9402439D01*
X13398527Y-9403359D01*
X13397960Y-9404283D01*
X13397394Y-9405210D01*
X13396829Y-9406141D01*
X13396266Y-9407075D01*
X13395705Y-9408012D01*
X13395145Y-9408954D01*
X13394587Y-9409898D01*
X13394030Y-9410846D01*
X13393475Y-9411798D01*
X13392922Y-9412753D01*
X13392370Y-9413712D01*
X13391819Y-9414675D01*
X13391271Y-9415641D01*
X13390723Y-9416611D01*
X13390178Y-9417585D01*
X13389634Y-9418562D01*
X13389091Y-9419543D01*
X13388550Y-9420528D01*
X13388011Y-9421516D01*
X13387473Y-9422508D01*
X13386937Y-9423504D01*
X13386402Y-9424504D01*
X13385869Y-9425508D01*
X13385338Y-9426515D01*
X13384808Y-9427527D01*
X13384279Y-9428542D01*
X13383753Y-9429561D01*
X13383227Y-9430585D01*
X13382704Y-9431612D01*
X13382182Y-9432643D01*
X13381661Y-9433678D01*
X13381142Y-9434717D01*
X13380625Y-9435760D01*
X13380109Y-9436807D01*
X13379595Y-9437858D01*
X13379082Y-9438913D01*
X13378571Y-9439972D01*
X13378062Y-9441036D01*
X13377554Y-9442103D01*
X13377048Y-9443175D01*
X13376543Y-9444250D01*
X13376040Y-9445330D01*
X13375538Y-9446415D01*
X13375038Y-9447503D01*
X13374540Y-9448596D01*
X13374043Y-9449692D01*
X13373548Y-9450794D01*
X13373054Y-9451899D01*
X13372562Y-9453009D01*
X13372072Y-9454123D01*
X13371583Y-9455241D01*
X13371096Y-9456364D01*
X13370610Y-9457491D01*
X13370126Y-9458623D01*
X13369644Y-9459759D01*
X13369163Y-9460899D01*
X13368683Y-9462044D01*
X13368205Y-9463193D01*
X13367729Y-9464347D01*
X13367255Y-9465506D01*
X13366782Y-9466668D01*
X13366310Y-9467836D01*
X13365841Y-9469008D01*
X13365372Y-9470184D01*
X13364906Y-9471366D01*
X13364441Y-9472551D01*
X13363977Y-9473742D01*
X13363515Y-9474937D01*
X13363055Y-9476137D01*
X13362596Y-9477341D01*
X13362139Y-9478550D01*
X13361684Y-9479764D01*
X13361230Y-9480983D01*
X13360778Y-9482206D01*
X13360327Y-9483434D01*
X13359878Y-9484667D01*
X13359431Y-9485905D01*
X13358985Y-9487148D01*
X13358540Y-9488395D01*
X13358098Y-9489648D01*
X13357657Y-9490905D01*
X13357217Y-9492167D01*
X13356779Y-9493434D01*
X13356343Y-9494707D01*
X13355908Y-9495984D01*
X13355475Y-9497266D01*
X13355044Y-9498553D01*
X13354614Y-9499845D01*
X13354185Y-9501142D01*
X13353759Y-9502444D01*
X13353334Y-9503751D01*
X13352910Y-9505064D01*
X13352488Y-9506381D01*
X13352068Y-9507704D01*
X13351649Y-9509032D01*
X13351232Y-9510365D01*
X13350817Y-9511703D01*
X13350403Y-9513046D01*
X13349991Y-9514395D01*
X13349580Y-9515749D01*
X13349171Y-9517108D01*
X13348764Y-9518472D01*
X13348358Y-9519842D01*
X13347954Y-9521217D01*
X13347551Y-9522597D01*
X13347150Y-9523983D01*
X13346751Y-9525374D01*
X13346353Y-9526770D01*
X13345957Y-9528172D01*
X13345562Y-9529579D01*
X13345169Y-9530992D01*
X13344778Y-9532410D01*
X13344388Y-9533834D01*
X13344000Y-9535263D01*
X13343614Y-9536698D01*
X13343229Y-9538138D01*
X13342846Y-9539584D01*
X13342464Y-9541035D01*
X13342084Y-9542492D01*
X13341705Y-9543955D01*
X13341329Y-9545423D01*
X13340954Y-9546897D01*
X13340580Y-9548376D01*
X13340208Y-9549862D01*
X13339838Y-9551353D01*
X13339469Y-9552849D01*
X13339102Y-9554352D01*
X13338737Y-9555860D01*
X13338373Y-9557374D01*
X13338011Y-9558893D01*
X13337650Y-9560419D01*
X13337291Y-9561950D01*
X13336934Y-9563488D01*
X13336578Y-9565031D01*
X13336224Y-9566580D01*
X13335871Y-9568135D01*
X13335520Y-9569695D01*
X13335171Y-9571262D01*
X13334824Y-9572835D01*
X13334478Y-9574413D01*
X13334133Y-9575998D01*
X13333791Y-9577589D01*
X13333449Y-9579186D01*
X13333110Y-9580788D01*
X13332772Y-9582397D01*
X13332436Y-9584012D01*
X13332101Y-9585633D01*
X13331768Y-9587261D01*
X13331437Y-9588894D01*
X13331107Y-9590533D01*
X13330779Y-9592179D01*
X13330453Y-9593831D01*
X13330128Y-9595489D01*
X13329805Y-9597153D01*
X13329483Y-9598824D01*
X13329163Y-9600501D01*
X13328845Y-9602184D01*
X13328528Y-9603874D01*
X13328213Y-9605569D01*
X13327900Y-9607272D01*
X13327588Y-9608980D01*
X13327278Y-9610695D01*
X13326970Y-9612416D01*
X13326663Y-9614144D01*
X13326358Y-9615878D01*
X13326054Y-9617619D01*
X13325752Y-9619366D01*
X13325452Y-9621120D01*
X13325153Y-9622880D01*
X13324856Y-9624646D01*
X13324561Y-9626420D01*
X13324267Y-9628199D01*
X13323975Y-9629986D01*
X13323685Y-9631779D01*
X13323396Y-9633578D01*
X13323109Y-9635384D01*
X13322823Y-9637197D01*
X13322539Y-9639017D01*
X13322257Y-9640843D01*
X13321976Y-9642676D01*
X13321697Y-9644516D01*
X13321420Y-9646362D01*
X13321144Y-9648216D01*
X13320870Y-9650076D01*
X13320598Y-9651942D01*
X13320327Y-9653816D01*
X13320058Y-9655697D01*
X13319791Y-9657584D01*
X13319525Y-9659478D01*
X13319261Y-9661379D01*
X13318998Y-9663287D01*
X13318737Y-9665202D01*
X13318478Y-9667124D01*
X13318221Y-9669053D01*
X13317965Y-9670989D01*
X13317710Y-9672932D01*
X13317458Y-9674882D01*
X13317207Y-9676839D01*
X13316958Y-9678803D01*
X13316710Y-9680774D01*
X13316464Y-9682752D01*
X13316220Y-9684738D01*
X13315977Y-9686730D01*
X13315736Y-9688730D01*
X13315496Y-9690737D01*
X13315259Y-9692751D01*
X13315023Y-9694772D01*
X13314788Y-9696800D01*
X13314556Y-9698836D01*
X13314324Y-9700879D01*
X13314095Y-9702929D01*
X13313867Y-9704987D01*
X13313641Y-9707052D01*
X13313417Y-9709124D01*
X13313194Y-9711204D01*
X13312973Y-9713290D01*
X13312753Y-9715385D01*
X13312535Y-9717487D01*
X13312319Y-9719596D01*
X13312105Y-9721712D01*
X13311892Y-9723837D01*
X13311681Y-9725968D01*
X13311471Y-9728107D01*
X13311263Y-9730254D01*
X13311057Y-9732408D01*
X13310852Y-9734570D01*
X13310650Y-9736739D01*
X13310448Y-9738916D01*
X13310249Y-9741101D01*
X13310051Y-9743293D01*
X13309855Y-9745493D01*
X13309660Y-9747700D01*
X13309467Y-9749915D01*
X13309276Y-9752138D01*
X13309087Y-9754369D01*
X13308899Y-9756607D01*
X13308712Y-9758853D01*
X13308528Y-9761107D01*
X13308345Y-9763369D01*
X13308164Y-9765638D01*
X13307984Y-9767916D01*
X13307806Y-9770201D01*
X13307630Y-9772494D01*
X13307456Y-9774795D01*
X13307283Y-9777104D01*
X13307112Y-9779420D01*
X13306942Y-9781745D01*
X13306774Y-9784078D01*
X13306608Y-9786419D01*
X13306444Y-9788767D01*
X13306281Y-9791124D01*
X13306120Y-9793489D01*
X13305960Y-9795862D01*
X13305803Y-9798242D01*
X13305647Y-9800631D01*
X13305492Y-9803028D01*
X13305339Y-9805434D01*
X13305188Y-9807847D01*
X13305039Y-9810269D01*
X13304891Y-9812698D01*
X13304745Y-9815136D01*
X13304601Y-9817582D01*
X13304458Y-9820037D01*
X13304317Y-9822499D01*
X13304178Y-9824970D01*
X13304040Y-9827450D01*
X13303904Y-9829937D01*
X13303770Y-9832433D01*
X13303638Y-9834937D01*
X13303507Y-9837450D01*
X13303377Y-9839971D01*
X13303250Y-9842500D01*
X6794500Y-15779750D02*
X6794500Y-15430500D01*
X6731000Y-15875000D02*
X6953250Y-16160750D01*
X12604750Y-12858750D02*
X12604750Y-10795000D01*
X6191250Y-13112750D02*
X6190226Y-13114687D01*
X6189205Y-13116622D01*
X6188188Y-13118554D01*
X6187174Y-13120484D01*
X6186164Y-13122410D01*
X6185157Y-13124335D01*
X6184154Y-13126257D01*
X6183155Y-13128177D01*
X6182159Y-13130094D01*
X6181167Y-13132009D01*
X6180178Y-13133921D01*
X6179192Y-13135831D01*
X6178211Y-13137738D01*
X6177232Y-13139643D01*
X6176258Y-13141546D01*
X6175286Y-13143446D01*
X6174319Y-13145343D01*
X6173354Y-13147239D01*
X6172393Y-13149131D01*
X6171436Y-13151022D01*
X6170482Y-13152910D01*
X6169531Y-13154796D01*
X6168584Y-13156679D01*
X6167640Y-13158561D01*
X6166700Y-13160439D01*
X6165763Y-13162316D01*
X6164830Y-13164190D01*
X6163899Y-13166062D01*
X6162973Y-13167931D01*
X6162049Y-13169799D01*
X6161129Y-13171663D01*
X6160212Y-13173526D01*
X6159299Y-13175386D01*
X6158389Y-13177245D01*
X6157482Y-13179100D01*
X6156579Y-13180954D01*
X6155679Y-13182806D01*
X6154782Y-13184655D01*
X6153889Y-13186502D01*
X6152998Y-13188347D01*
X6152111Y-13190189D01*
X6151228Y-13192030D01*
X6150347Y-13193868D01*
X6149470Y-13195704D01*
X6148596Y-13197538D01*
X6147726Y-13199370D01*
X6146858Y-13201199D01*
X6145994Y-13203027D01*
X6145133Y-13204852D01*
X6144275Y-13206676D01*
X6143421Y-13208496D01*
X6142570Y-13210316D01*
X6141721Y-13212132D01*
X6140876Y-13213947D01*
X6140035Y-13215760D01*
X6139196Y-13217571D01*
X6138361Y-13219379D01*
X6137528Y-13221186D01*
X6136699Y-13222990D01*
X6135873Y-13224793D01*
X6135050Y-13226593D01*
X6134230Y-13228392D01*
X6133413Y-13230188D01*
X6132600Y-13231983D01*
X6131789Y-13233775D01*
X6130982Y-13235566D01*
X6130178Y-13237354D01*
X6129376Y-13239141D01*
X6128578Y-13240925D01*
X6127783Y-13242708D01*
X6126991Y-13244489D01*
X6126202Y-13246268D01*
X6125416Y-13248044D01*
X6124633Y-13249819D01*
X6123853Y-13251592D01*
X6123076Y-13253364D01*
X6122302Y-13255133D01*
X6121532Y-13256900D01*
X6120764Y-13258665D01*
X6119999Y-13260429D01*
X6119237Y-13262191D01*
X6118478Y-13263951D01*
X6117722Y-13265709D01*
X6116969Y-13267465D01*
X6116219Y-13269219D01*
X6115472Y-13270972D01*
X6114728Y-13272722D01*
X6113987Y-13274471D01*
X6113249Y-13276218D01*
X6112513Y-13277964D01*
X6111781Y-13279707D01*
X6111051Y-13281449D01*
X6110325Y-13283189D01*
X6109601Y-13284927D01*
X6108880Y-13286664D01*
X6108162Y-13288399D01*
X6107447Y-13290132D01*
X6106735Y-13291863D01*
X6106026Y-13293593D01*
X6105319Y-13295321D01*
X6104616Y-13297047D01*
X6103915Y-13298771D01*
X6103217Y-13300494D01*
X6102522Y-13302215D01*
X6101830Y-13303935D01*
X6101141Y-13305653D01*
X6100454Y-13307369D01*
X6099770Y-13309084D01*
X6099089Y-13310796D01*
X6098411Y-13312508D01*
X6097736Y-13314217D01*
X6097063Y-13315926D01*
X6096393Y-13317632D01*
X6095726Y-13319337D01*
X6095062Y-13321040D01*
X6094401Y-13322742D01*
X6093742Y-13324442D01*
X6093086Y-13326141D01*
X6092433Y-13327838D01*
X6091782Y-13329533D01*
X6091134Y-13331227D01*
X6090489Y-13332920D01*
X6089847Y-13334610D01*
X6089207Y-13336300D01*
X6088570Y-13337988D01*
X6087936Y-13339674D01*
X6087304Y-13341359D01*
X6086676Y-13343042D01*
X6086049Y-13344724D01*
X6085426Y-13346405D01*
X6084805Y-13348084D01*
X6084187Y-13349761D01*
X6083572Y-13351437D01*
X6082959Y-13353112D01*
X6082349Y-13354785D01*
X6081741Y-13356457D01*
X6081136Y-13358128D01*
X6080534Y-13359797D01*
X6079934Y-13361464D01*
X6079337Y-13363131D01*
X6078743Y-13364796D01*
X6078151Y-13366459D01*
X6077562Y-13368121D01*
X6076975Y-13369782D01*
X6076391Y-13371441D01*
X6075810Y-13373100D01*
X6075231Y-13374756D01*
X6074655Y-13376412D01*
X6074081Y-13378066D01*
X6073510Y-13379719D01*
X6072942Y-13381370D01*
X6072376Y-13383021D01*
X6071812Y-13384669D01*
X6071251Y-13386317D01*
X6070693Y-13387964D01*
X6070137Y-13389609D01*
X6069584Y-13391253D01*
X6069033Y-13392895D01*
X6068485Y-13394537D01*
X6067940Y-13396177D01*
X6067396Y-13397816D01*
X6066856Y-13399454D01*
X6066318Y-13401090D01*
X6065782Y-13402726D01*
X6065249Y-13404360D01*
X6064718Y-13405993D01*
X6064190Y-13407625D01*
X6063664Y-13409255D01*
X6063141Y-13410885D01*
X6062620Y-13412513D01*
X6062102Y-13414141D01*
X6061586Y-13415767D01*
X6061073Y-13417392D01*
X6060562Y-13419015D01*
X6060053Y-13420638D01*
X6059547Y-13422260D01*
X6059043Y-13423880D01*
X6058542Y-13425500D01*
X6058043Y-13427118D01*
X6057547Y-13428736D01*
X6057053Y-13430352D01*
X6056562Y-13431967D01*
X6056072Y-13433581D01*
X6055586Y-13435194D01*
X6055101Y-13436807D01*
X6054619Y-13438418D01*
X6054140Y-13440028D01*
X6053663Y-13441637D01*
X6053188Y-13443245D01*
X6052716Y-13444852D01*
X6052246Y-13446458D01*
X6051778Y-13448063D01*
X6051313Y-13449668D01*
X6050850Y-13451271D01*
X6050389Y-13452873D01*
X6049931Y-13454474D01*
X6049475Y-13456075D01*
X6049021Y-13457674D01*
X6048570Y-13459273D01*
X6048121Y-13460871D01*
X6047675Y-13462468D01*
X6047230Y-13464063D01*
X6046788Y-13465658D01*
X6046349Y-13467253D01*
X6045912Y-13468846D01*
X6045477Y-13470438D01*
X6045044Y-13472030D01*
X6044614Y-13473621D01*
X6044185Y-13475211D01*
X6043760Y-13476800D01*
X6043336Y-13478388D01*
X6042915Y-13479975D01*
X6042496Y-13481562D01*
X6042079Y-13483148D01*
X6041665Y-13484733D01*
X6041253Y-13486317D01*
X6040843Y-13487901D01*
X6040435Y-13489483D01*
X6040030Y-13491066D01*
X6039627Y-13492647D01*
X6039226Y-13494228D01*
X6038827Y-13495807D01*
X6038431Y-13497386D01*
X6038037Y-13498965D01*
X6037645Y-13500543D01*
X6037255Y-13502120D01*
X6036868Y-13503696D01*
X6036483Y-13505272D01*
X6036100Y-13506847D01*
X6035719Y-13508421D01*
X6035340Y-13509995D01*
X6034964Y-13511568D01*
X6034590Y-13513140D01*
X6034218Y-13514712D01*
X6033481Y-13517854D01*
X6032752Y-13520993D01*
X6032033Y-13524130D01*
X6031322Y-13527265D01*
X6030619Y-13530398D01*
X6029925Y-13533528D01*
X6029240Y-13536657D01*
X6028564Y-13539783D01*
X6027896Y-13542908D01*
X6027237Y-13546030D01*
X6026586Y-13549152D01*
X6025944Y-13552271D01*
X6025310Y-13555389D01*
X6024685Y-13558505D01*
X6024068Y-13561619D01*
X6023459Y-13564733D01*
X6022859Y-13567845D01*
X6022268Y-13570955D01*
X6021684Y-13574065D01*
X6021110Y-13577173D01*
X6020543Y-13580281D01*
X6019985Y-13583387D01*
X6019435Y-13586493D01*
X6018893Y-13589598D01*
X6018359Y-13592702D01*
X6017834Y-13595805D01*
X6017317Y-13598908D01*
X6016808Y-13602010D01*
X6016307Y-13605112D01*
X6015814Y-13608214D01*
X6015330Y-13611315D01*
X6014853Y-13614416D01*
X6014385Y-13617517D01*
X6013925Y-13620618D01*
X6013473Y-13623719D01*
X6013029Y-13626820D01*
X6012593Y-13629922D01*
X6012165Y-13633024D01*
X6011745Y-13636126D01*
X6011333Y-13639228D01*
X6010929Y-13642332D01*
X6010532Y-13645436D01*
X6010144Y-13648540D01*
X6009764Y-13651646D01*
X6009392Y-13654752D01*
X6009028Y-13657859D01*
X6008671Y-13660968D01*
X6008323Y-13664077D01*
X6007982Y-13667188D01*
X6007650Y-13670301D01*
X6007325Y-13673415D01*
X6007008Y-13676530D01*
X6006699Y-13679647D01*
X6006398Y-13682766D01*
X6006104Y-13685886D01*
X6005819Y-13689009D01*
X6005541Y-13692133D01*
X6005271Y-13695260D01*
X6005009Y-13698389D01*
X6004755Y-13701520D01*
X6004509Y-13704654D01*
X6004270Y-13707791D01*
X6004039Y-13710930D01*
X6003816Y-13714072D01*
X6003601Y-13717216D01*
X6003394Y-13720364D01*
X6003194Y-13723515D01*
X6003003Y-13726669D01*
X6002819Y-13729826D01*
X6002643Y-13732987D01*
X6002474Y-13736151D01*
X6002314Y-13739319D01*
X6002161Y-13742491D01*
X6002016Y-13745667D01*
X6001879Y-13748847D01*
X6001750Y-13752031D01*
X6001628Y-13755219D01*
X6001515Y-13758412D01*
X6001409Y-13761609D01*
X6001311Y-13764811D01*
X6001221Y-13768018D01*
X6001139Y-13771229D01*
X6001064Y-13774446D01*
X6000998Y-13777668D01*
X6000939Y-13780896D01*
X6000888Y-13784129D01*
X6000845Y-13787367D01*
X6000810Y-13790612D01*
X6000783Y-13793862D01*
X6000764Y-13797119D01*
X6000753Y-13800382D01*
X6000750Y-13803651D01*
X6000755Y-13806927D01*
X6000768Y-13810210D01*
X6000788Y-13813499D01*
X6000817Y-13816796D01*
X6000854Y-13820100D01*
X6000899Y-13823412D01*
X6000952Y-13826731D01*
X6001014Y-13830058D01*
X6001083Y-13833393D01*
X6001160Y-13836736D01*
X6001246Y-13840088D01*
X6001340Y-13843448D01*
X6001442Y-13846817D01*
X6001552Y-13850195D01*
X6001671Y-13853583D01*
X6001798Y-13856980D01*
X6001934Y-13860386D01*
X6002077Y-13863803D01*
X6002229Y-13867229D01*
X6002390Y-13870666D01*
X6002559Y-13874114D01*
X6002737Y-13877572D01*
X6002923Y-13881042D01*
X6003118Y-13884523D01*
X6003321Y-13888015D01*
X6003534Y-13891520D01*
X6003754Y-13895037D01*
X6003984Y-13898566D01*
X6004223Y-13902108D01*
X6004470Y-13905663D01*
X6004727Y-13909232D01*
X6004992Y-13912814D01*
X6005266Y-13916410D01*
X6005550Y-13920021D01*
X6005842Y-13923646D01*
X6006144Y-13927287D01*
X6006456Y-13930943D01*
X6006776Y-13934615D01*
X6007106Y-13938303D01*
X6007446Y-13942007D01*
X6007795Y-13945729D01*
X6008153Y-13949468D01*
X6008522Y-13953225D01*
X6008900Y-13957001D01*
X6009288Y-13960795D01*
X6009687Y-13964609D01*
X6010095Y-13968442D01*
X6010513Y-13972296D01*
X6010942Y-13976171D01*
X6011381Y-13980067D01*
X6011831Y-13983985D01*
X6012291Y-13987926D01*
X6012762Y-13991889D01*
X6013244Y-13995877D01*
X6013737Y-13999890D01*
X6014241Y-14003927D01*
X6014757Y-14007991D01*
X6015284Y-14012081D01*
X6015822Y-14016199D01*
X6016372Y-14020345D01*
X6016934Y-14024520D01*
X6017508Y-14028726D01*
X6018095Y-14032962D01*
X6018694Y-14037231D01*
X6019305Y-14041533D01*
X6019930Y-14045868D01*
X6020568Y-14050239D01*
X6021219Y-14054647D01*
X6021883Y-14059092D01*
X6022562Y-14063577D01*
X6023255Y-14068101D01*
X6023962Y-14072668D01*
X6024684Y-14077279D01*
X6025422Y-14081934D01*
X6026174Y-14086637D01*
X6026943Y-14091388D01*
X6027728Y-14096191D01*
X6028530Y-14101046D01*
X6029348Y-14105956D01*
X6030185Y-14110925D01*
X6031040Y-14115954D01*
X6031914Y-14121046D01*
X6032807Y-14126204D01*
X6033720Y-14131432D01*
X6034654Y-14136734D01*
X6035610Y-14142112D01*
X6036588Y-14147572D01*
X6037590Y-14153118D01*
X6038617Y-14158756D01*
X6039669Y-14164490D01*
X6040748Y-14170329D01*
X6041856Y-14176277D01*
X6042994Y-14182344D01*
X6044164Y-14188539D01*
X6045368Y-14194872D01*
X6046608Y-14201353D01*
X6047888Y-14207998D01*
X6049210Y-14214822D01*
X6050579Y-14221842D01*
X6051998Y-14229082D01*
X6053474Y-14236569D01*
X6055012Y-14244335D01*
X6056623Y-14252422D01*
X6058316Y-14260884D01*
X6060106Y-14269793D01*
X6062014Y-14279247D01*
X6064069Y-14289393D01*
X6066319Y-14300458D01*
X6068844Y-14312845D01*
X6071820Y-14327403D01*
X6075893Y-14347294D01*
X6078379Y-14359430D01*
X6080876Y-14371629D01*
X6083382Y-14383894D01*
X6085896Y-14396225D01*
X6087155Y-14402417D01*
X6088416Y-14408625D01*
X6089678Y-14414851D01*
X6090942Y-14421095D01*
X6092205Y-14427356D01*
X6093470Y-14433636D01*
X6094735Y-14439934D01*
X6096000Y-14446250D01*
X7270750Y-13112750D02*
X7271774Y-13114687D01*
X7272795Y-13116622D01*
X7273812Y-13118554D01*
X7274826Y-13120484D01*
X7275836Y-13122410D01*
X7276843Y-13124335D01*
X7277846Y-13126257D01*
X7278845Y-13128177D01*
X7279841Y-13130094D01*
X7280833Y-13132009D01*
X7281822Y-13133921D01*
X7282807Y-13135831D01*
X7283789Y-13137738D01*
X7284768Y-13139643D01*
X7285742Y-13141546D01*
X7286714Y-13143446D01*
X7287681Y-13145343D01*
X7288646Y-13147239D01*
X7289607Y-13149131D01*
X7290564Y-13151022D01*
X7291518Y-13152910D01*
X7292469Y-13154796D01*
X7293416Y-13156679D01*
X7294360Y-13158561D01*
X7295300Y-13160439D01*
X7296237Y-13162316D01*
X7297170Y-13164190D01*
X7298101Y-13166062D01*
X7299027Y-13167931D01*
X7299951Y-13169799D01*
X7300871Y-13171663D01*
X7301788Y-13173526D01*
X7302701Y-13175386D01*
X7303611Y-13177245D01*
X7304518Y-13179100D01*
X7305421Y-13180954D01*
X7306321Y-13182806D01*
X7307218Y-13184655D01*
X7308111Y-13186502D01*
X7309002Y-13188347D01*
X7309888Y-13190189D01*
X7310772Y-13192030D01*
X7311652Y-13193868D01*
X7312530Y-13195704D01*
X7313403Y-13197538D01*
X7314274Y-13199370D01*
X7315142Y-13201199D01*
X7316006Y-13203027D01*
X7316867Y-13204852D01*
X7317724Y-13206676D01*
X7318579Y-13208496D01*
X7319430Y-13210316D01*
X7320278Y-13212132D01*
X7321124Y-13213947D01*
X7321965Y-13215760D01*
X7322804Y-13217571D01*
X7323639Y-13219379D01*
X7324472Y-13221186D01*
X7325301Y-13222990D01*
X7326127Y-13224793D01*
X7326950Y-13226593D01*
X7327770Y-13228392D01*
X7328586Y-13230188D01*
X7329400Y-13231983D01*
X7330211Y-13233775D01*
X7331018Y-13235566D01*
X7331822Y-13237354D01*
X7332624Y-13239141D01*
X7333422Y-13240925D01*
X7334217Y-13242708D01*
X7335009Y-13244489D01*
X7335798Y-13246268D01*
X7336584Y-13248044D01*
X7337367Y-13249819D01*
X7338147Y-13251592D01*
X7338924Y-13253364D01*
X7339697Y-13255133D01*
X7340468Y-13256900D01*
X7341236Y-13258665D01*
X7342001Y-13260429D01*
X7342763Y-13262191D01*
X7343522Y-13263951D01*
X7344278Y-13265709D01*
X7345031Y-13267465D01*
X7345781Y-13269219D01*
X7346528Y-13270972D01*
X7347272Y-13272722D01*
X7348013Y-13274471D01*
X7348751Y-13276218D01*
X7349487Y-13277964D01*
X7350219Y-13279707D01*
X7350949Y-13281449D01*
X7351675Y-13283189D01*
X7352399Y-13284927D01*
X7353120Y-13286664D01*
X7353838Y-13288399D01*
X7354553Y-13290132D01*
X7355265Y-13291863D01*
X7355974Y-13293593D01*
X7356680Y-13295321D01*
X7357384Y-13297047D01*
X7358085Y-13298771D01*
X7358783Y-13300494D01*
X7359478Y-13302215D01*
X7360170Y-13303935D01*
X7360859Y-13305653D01*
X7361546Y-13307369D01*
X7362230Y-13309084D01*
X7362911Y-13310796D01*
X7363589Y-13312508D01*
X7364264Y-13314217D01*
X7364937Y-13315926D01*
X7365607Y-13317632D01*
X7366274Y-13319337D01*
X7366938Y-13321040D01*
X7367599Y-13322742D01*
X7368258Y-13324442D01*
X7368914Y-13326141D01*
X7369567Y-13327838D01*
X7370218Y-13329533D01*
X7370866Y-13331227D01*
X7371511Y-13332920D01*
X7372153Y-13334610D01*
X7372793Y-13336300D01*
X7373430Y-13337988D01*
X7374064Y-13339674D01*
X7374695Y-13341359D01*
X7375324Y-13343042D01*
X7375950Y-13344724D01*
X7376574Y-13346405D01*
X7377195Y-13348084D01*
X7377813Y-13349761D01*
X7378428Y-13351437D01*
X7379041Y-13353112D01*
X7379651Y-13354785D01*
X7380259Y-13356457D01*
X7380864Y-13358128D01*
X7381466Y-13359797D01*
X7382066Y-13361464D01*
X7382663Y-13363131D01*
X7383257Y-13364796D01*
X7383849Y-13366459D01*
X7384438Y-13368121D01*
X7385025Y-13369782D01*
X7385609Y-13371441D01*
X7386190Y-13373100D01*
X7386769Y-13374756D01*
X7387345Y-13376412D01*
X7387919Y-13378066D01*
X7388490Y-13379719D01*
X7389058Y-13381370D01*
X7389624Y-13383021D01*
X7390188Y-13384669D01*
X7390748Y-13386317D01*
X7391307Y-13387964D01*
X7391863Y-13389609D01*
X7392416Y-13391253D01*
X7392966Y-13392895D01*
X7393515Y-13394537D01*
X7394060Y-13396177D01*
X7394603Y-13397816D01*
X7395144Y-13399454D01*
X7395682Y-13401090D01*
X7396218Y-13402726D01*
X7396751Y-13404360D01*
X7397282Y-13405993D01*
X7397810Y-13407625D01*
X7398336Y-13409255D01*
X7398859Y-13410885D01*
X7399380Y-13412513D01*
X7399898Y-13414141D01*
X7400414Y-13415767D01*
X7400927Y-13417392D01*
X7401438Y-13419015D01*
X7401947Y-13420638D01*
X7402453Y-13422260D01*
X7402956Y-13423880D01*
X7403458Y-13425500D01*
X7403956Y-13427118D01*
X7404453Y-13428736D01*
X7404947Y-13430352D01*
X7405438Y-13431967D01*
X7405927Y-13433581D01*
X7406414Y-13435194D01*
X7406898Y-13436807D01*
X7407380Y-13438418D01*
X7407860Y-13440028D01*
X7408337Y-13441637D01*
X7408812Y-13443245D01*
X7409284Y-13444852D01*
X7409754Y-13446458D01*
X7410222Y-13448063D01*
X7410687Y-13449668D01*
X7411150Y-13451271D01*
X7411611Y-13452873D01*
X7412069Y-13454474D01*
X7412525Y-13456075D01*
X7412979Y-13457674D01*
X7413430Y-13459273D01*
X7413879Y-13460871D01*
X7414325Y-13462468D01*
X7414769Y-13464063D01*
X7415211Y-13465658D01*
X7415651Y-13467253D01*
X7416088Y-13468846D01*
X7416523Y-13470438D01*
X7416956Y-13472030D01*
X7417386Y-13473621D01*
X7417814Y-13475211D01*
X7418240Y-13476800D01*
X7418664Y-13478388D01*
X7419085Y-13479975D01*
X7419504Y-13481562D01*
X7419921Y-13483148D01*
X7420335Y-13484733D01*
X7420747Y-13486317D01*
X7421157Y-13487901D01*
X7421565Y-13489483D01*
X7421970Y-13491066D01*
X7422373Y-13492647D01*
X7422774Y-13494228D01*
X7423172Y-13495807D01*
X7423569Y-13497386D01*
X7423963Y-13498965D01*
X7424355Y-13500543D01*
X7424744Y-13502120D01*
X7425132Y-13503696D01*
X7425517Y-13505272D01*
X7425900Y-13506847D01*
X7426281Y-13508421D01*
X7426659Y-13509995D01*
X7427036Y-13511568D01*
X7427410Y-13513140D01*
X7427782Y-13514712D01*
X7428519Y-13517854D01*
X7429248Y-13520993D01*
X7429967Y-13524130D01*
X7430678Y-13527265D01*
X7431381Y-13530398D01*
X7432074Y-13533528D01*
X7432760Y-13536657D01*
X7433436Y-13539783D01*
X7434104Y-13542908D01*
X7434763Y-13546030D01*
X7435414Y-13549152D01*
X7436056Y-13552271D01*
X7436690Y-13555389D01*
X7437315Y-13558505D01*
X7437932Y-13561619D01*
X7438540Y-13564733D01*
X7439140Y-13567845D01*
X7439732Y-13570955D01*
X7440315Y-13574065D01*
X7440890Y-13577173D01*
X7441457Y-13580281D01*
X7442015Y-13583387D01*
X7442565Y-13586493D01*
X7443107Y-13589598D01*
X7443641Y-13592702D01*
X7444166Y-13595805D01*
X7444683Y-13598908D01*
X7445192Y-13602010D01*
X7445693Y-13605112D01*
X7446186Y-13608214D01*
X7446670Y-13611315D01*
X7447146Y-13614416D01*
X7447615Y-13617517D01*
X7448075Y-13620618D01*
X7448527Y-13623719D01*
X7448971Y-13626820D01*
X7449407Y-13629922D01*
X7449835Y-13633024D01*
X7450255Y-13636126D01*
X7450667Y-13639228D01*
X7451071Y-13642332D01*
X7451467Y-13645436D01*
X7451855Y-13648540D01*
X7452236Y-13651646D01*
X7452608Y-13654752D01*
X7452972Y-13657859D01*
X7453328Y-13660968D01*
X7453677Y-13664077D01*
X7454018Y-13667188D01*
X7454350Y-13670301D01*
X7454675Y-13673415D01*
X7454992Y-13676530D01*
X7455301Y-13679647D01*
X7455602Y-13682766D01*
X7455896Y-13685886D01*
X7456181Y-13689009D01*
X7456459Y-13692133D01*
X7456729Y-13695260D01*
X7456991Y-13698389D01*
X7457245Y-13701520D01*
X7457491Y-13704654D01*
X7457730Y-13707791D01*
X7457961Y-13710930D01*
X7458183Y-13714072D01*
X7458399Y-13717216D01*
X7458606Y-13720364D01*
X7458806Y-13723515D01*
X7458997Y-13726669D01*
X7459181Y-13729826D01*
X7459357Y-13732987D01*
X7459526Y-13736151D01*
X7459686Y-13739319D01*
X7459839Y-13742491D01*
X7459984Y-13745667D01*
X7460121Y-13748847D01*
X7460250Y-13752031D01*
X7460372Y-13755219D01*
X7460485Y-13758412D01*
X7460591Y-13761609D01*
X7460689Y-13764811D01*
X7460779Y-13768018D01*
X7460861Y-13771229D01*
X7460936Y-13774446D01*
X7461002Y-13777668D01*
X7461061Y-13780896D01*
X7461112Y-13784129D01*
X7461155Y-13787367D01*
X7461190Y-13790612D01*
X7461217Y-13793862D01*
X7461236Y-13797119D01*
X7461247Y-13800382D01*
X7461250Y-13803651D01*
X7461245Y-13806927D01*
X7461232Y-13810210D01*
X7461211Y-13813499D01*
X7461183Y-13816796D01*
X7461146Y-13820100D01*
X7461101Y-13823412D01*
X7461048Y-13826731D01*
X7460986Y-13830058D01*
X7460917Y-13833393D01*
X7460840Y-13836736D01*
X7460754Y-13840088D01*
X7460660Y-13843448D01*
X7460558Y-13846817D01*
X7460447Y-13850195D01*
X7460329Y-13853583D01*
X7460202Y-13856980D01*
X7460066Y-13860386D01*
X7459923Y-13863803D01*
X7459770Y-13867229D01*
X7459610Y-13870666D01*
X7459441Y-13874114D01*
X7459263Y-13877572D01*
X7459077Y-13881042D01*
X7458882Y-13884523D01*
X7458678Y-13888015D01*
X7458466Y-13891520D01*
X7458245Y-13895037D01*
X7458016Y-13898566D01*
X7457777Y-13902108D01*
X7457530Y-13905663D01*
X7457273Y-13909232D01*
X7457008Y-13912814D01*
X7456734Y-13916410D01*
X7456450Y-13920021D01*
X7456157Y-13923646D01*
X7455856Y-13927287D01*
X7455544Y-13930943D01*
X7455224Y-13934615D01*
X7454894Y-13938303D01*
X7454554Y-13942007D01*
X7454205Y-13945729D01*
X7453846Y-13949468D01*
X7453478Y-13953225D01*
X7453100Y-13957001D01*
X7452712Y-13960795D01*
X7452313Y-13964609D01*
X7451905Y-13968442D01*
X7451487Y-13972296D01*
X7451058Y-13976171D01*
X7450619Y-13980067D01*
X7450169Y-13983985D01*
X7449709Y-13987926D01*
X7449237Y-13991889D01*
X7448756Y-13995877D01*
X7448263Y-13999890D01*
X7447759Y-14003927D01*
X7447243Y-14007991D01*
X7446716Y-14012081D01*
X7446178Y-14016199D01*
X7445628Y-14020345D01*
X7445066Y-14024520D01*
X7444492Y-14028726D01*
X7443905Y-14032962D01*
X7443306Y-14037231D01*
X7442694Y-14041533D01*
X7442070Y-14045868D01*
X7441432Y-14050239D01*
X7440781Y-14054647D01*
X7440116Y-14059092D01*
X7439438Y-14063577D01*
X7438745Y-14068101D01*
X7438038Y-14072668D01*
X7437316Y-14077279D01*
X7436578Y-14081934D01*
X7435826Y-14086637D01*
X7435057Y-14091388D01*
X7434272Y-14096191D01*
X7433470Y-14101046D01*
X7432651Y-14105956D01*
X7431815Y-14110925D01*
X7430960Y-14115954D01*
X7430086Y-14121046D01*
X7429193Y-14126204D01*
X7428280Y-14131432D01*
X7427346Y-14136734D01*
X7426390Y-14142112D01*
X7425412Y-14147572D01*
X7424410Y-14153118D01*
X7423383Y-14158756D01*
X7422331Y-14164490D01*
X7421252Y-14170329D01*
X7420144Y-14176277D01*
X7419006Y-14182344D01*
X7417836Y-14188539D01*
X7416632Y-14194872D01*
X7415392Y-14201353D01*
X7414112Y-14207998D01*
X7412790Y-14214822D01*
X7411421Y-14221842D01*
X7410002Y-14229082D01*
X7408526Y-14236569D01*
X7406988Y-14244335D01*
X7405377Y-14252422D01*
X7403684Y-14260884D01*
X7401894Y-14269793D01*
X7399986Y-14279247D01*
X7397931Y-14289393D01*
X7395681Y-14300458D01*
X7393156Y-14312845D01*
X7390180Y-14327403D01*
X7386107Y-14347294D01*
X7383621Y-14359430D01*
X7381124Y-14371629D01*
X7378618Y-14383894D01*
X7376104Y-14396225D01*
X7374845Y-14402417D01*
X7373584Y-14408625D01*
X7372321Y-14414851D01*
X7371058Y-14421095D01*
X7369794Y-14427356D01*
X7368530Y-14433636D01*
X7367265Y-14439934D01*
X7366000Y-14446250D01*
X9747250Y-12858750D02*
G75*
G02*
X9048750Y-12858750I-349250J0D01*
G01*
X6508750Y-16160750D02*
X6731000Y-15875000D01*
X11525250Y-10890250D02*
X11525250Y-12954000D01*
X6667500Y-15430500D02*
X6667500Y-15779750D01*
X10826708Y-12964900D02*
X10826750Y-10890250D01*
X7366000Y-14446250D02*
X7364027Y-14453480D01*
X7362063Y-14460668D01*
X7360168Y-14467600D01*
X7358280Y-14474494D01*
X7356454Y-14481159D01*
X7354635Y-14487788D01*
X7352870Y-14494210D01*
X7351113Y-14500598D01*
X7349405Y-14506798D01*
X7347704Y-14512966D01*
X7346049Y-14518963D01*
X7344399Y-14524929D01*
X7342791Y-14530738D01*
X7341189Y-14536518D01*
X7339626Y-14542151D01*
X7338067Y-14547758D01*
X7336545Y-14553229D01*
X7335027Y-14558674D01*
X7333543Y-14563993D01*
X7332063Y-14569287D01*
X7330614Y-14574464D01*
X7329170Y-14579616D01*
X7327754Y-14584658D01*
X7326343Y-14589677D01*
X7324959Y-14594592D01*
X7323580Y-14599485D01*
X7322225Y-14604281D01*
X7320875Y-14609055D01*
X7319548Y-14613737D01*
X7318226Y-14618398D01*
X7316925Y-14622972D01*
X7315629Y-14627526D01*
X7314354Y-14631997D01*
X7313082Y-14636450D01*
X7311831Y-14640823D01*
X7310583Y-14645178D01*
X7309354Y-14649458D01*
X7308129Y-14653720D01*
X7306921Y-14657910D01*
X7305717Y-14662083D01*
X7304530Y-14666189D01*
X7303347Y-14670277D01*
X7302179Y-14674300D01*
X7301015Y-14678306D01*
X7299866Y-14682250D01*
X7298721Y-14686179D01*
X7297590Y-14690047D01*
X7296462Y-14693900D01*
X7295348Y-14697696D01*
X7294237Y-14701477D01*
X7293140Y-14705202D01*
X7292045Y-14708913D01*
X7290964Y-14712571D01*
X7289885Y-14716215D01*
X7288819Y-14719808D01*
X7287754Y-14723387D01*
X7286703Y-14726917D01*
X7285653Y-14730433D01*
X7284615Y-14733902D01*
X7283579Y-14737358D01*
X7282555Y-14740768D01*
X7281533Y-14744165D01*
X7280521Y-14747518D01*
X7279512Y-14750859D01*
X7278513Y-14754157D01*
X7277515Y-14757442D01*
X7276529Y-14760687D01*
X7275543Y-14763919D01*
X7274568Y-14767112D01*
X7273594Y-14770293D01*
X7272630Y-14773436D01*
X7271668Y-14776566D01*
X7270714Y-14779660D01*
X7269762Y-14782742D01*
X7268819Y-14785788D01*
X7267878Y-14788823D01*
X7266945Y-14791823D01*
X7266014Y-14794813D01*
X7265091Y-14797768D01*
X7264169Y-14800712D01*
X7263255Y-14803624D01*
X7262343Y-14806525D01*
X7261439Y-14809394D01*
X7260535Y-14812253D01*
X7259640Y-14815081D01*
X7258745Y-14817899D01*
X7257858Y-14820686D01*
X7256972Y-14823464D01*
X7256093Y-14826212D01*
X7255216Y-14828951D01*
X7254345Y-14831661D01*
X7253475Y-14834362D01*
X7252612Y-14837035D01*
X7251750Y-14839698D01*
X7250895Y-14842334D01*
X7250040Y-14844962D01*
X7249192Y-14847563D01*
X7248345Y-14850154D01*
X7247504Y-14852721D01*
X7246664Y-14855278D01*
X7245830Y-14857810D01*
X7244997Y-14860334D01*
X7244169Y-14862833D01*
X7243343Y-14865324D01*
X7242522Y-14867791D01*
X7241702Y-14870250D01*
X7240887Y-14872685D01*
X7240073Y-14875112D01*
X7239265Y-14877516D01*
X7238457Y-14879913D01*
X7237654Y-14882287D01*
X7236853Y-14884653D01*
X7236056Y-14886998D01*
X7235260Y-14889335D01*
X7234469Y-14891651D01*
X7233678Y-14893959D01*
X7232892Y-14896246D01*
X7232107Y-14898526D01*
X7231327Y-14900786D01*
X7230547Y-14903038D01*
X7229772Y-14905271D01*
X7228997Y-14907496D01*
X7228227Y-14909702D01*
X7227457Y-14911901D01*
X7226691Y-14914081D01*
X7225926Y-14916254D01*
X7225166Y-14918408D01*
X7224406Y-14920556D01*
X7223649Y-14922685D01*
X7222894Y-14924808D01*
X7222142Y-14926913D01*
X7221391Y-14929011D01*
X7220644Y-14931092D01*
X7219897Y-14933166D01*
X7219154Y-14935224D01*
X7218411Y-14937274D01*
X7217672Y-14939309D01*
X7216933Y-14941337D01*
X7216198Y-14943348D01*
X7215464Y-14945353D01*
X7214733Y-14947343D01*
X7214002Y-14949326D01*
X7213274Y-14951293D01*
X7212547Y-14953255D01*
X7211824Y-14955201D01*
X7211100Y-14957141D01*
X7210380Y-14959066D01*
X7209660Y-14960985D01*
X7208943Y-14962890D01*
X7208227Y-14964788D01*
X7207514Y-14966672D01*
X7206800Y-14968551D01*
X7206090Y-14970415D01*
X7205380Y-14972274D01*
X7204674Y-14974118D01*
X7203967Y-14975957D01*
X7203263Y-14977783D01*
X7202559Y-14979603D01*
X7201859Y-14981409D01*
X7201158Y-14983211D01*
X7200460Y-14984999D01*
X7199762Y-14986781D01*
X7199067Y-14988551D01*
X7198372Y-14990316D01*
X7197680Y-14992068D01*
X7196987Y-14993815D01*
X7196298Y-14995549D01*
X7195608Y-14997278D01*
X7194921Y-14998995D01*
X7194234Y-15000707D01*
X7193549Y-15002407D01*
X7192865Y-15004102D01*
X7192183Y-15005786D01*
X7191500Y-15007464D01*
X7190821Y-15009131D01*
X7190141Y-15010793D01*
X7189463Y-15012444D01*
X7188786Y-15014089D01*
X7188110Y-15015724D01*
X7187435Y-15017354D01*
X7186762Y-15018973D01*
X7186089Y-15020588D01*
X7185418Y-15022192D01*
X7184746Y-15023791D01*
X7184077Y-15025379D01*
X7183408Y-15026963D01*
X7182741Y-15028537D01*
X7182074Y-15030106D01*
X7181408Y-15031665D01*
X7180743Y-15033220D01*
X7180080Y-15034764D01*
X7179416Y-15036304D01*
X7178754Y-15037835D01*
X7178092Y-15039361D01*
X7177433Y-15040877D01*
X7176772Y-15042389D01*
X7176114Y-15043892D01*
X7175455Y-15045390D01*
X7174799Y-15046879D01*
X7174142Y-15048364D01*
X7173486Y-15049840D01*
X7172831Y-15051312D01*
X7172177Y-15052774D01*
X7171523Y-15054233D01*
X7170871Y-15055682D01*
X7170218Y-15057128D01*
X7169567Y-15058565D01*
X7168916Y-15059998D01*
X7168266Y-15061422D01*
X7167616Y-15062842D01*
X7166968Y-15064254D01*
X7166319Y-15065662D01*
X7165672Y-15067062D01*
X7165024Y-15068458D01*
X7164378Y-15069846D01*
X7163731Y-15071230D01*
X7163086Y-15072606D01*
X7162441Y-15073978D01*
X7161797Y-15075343D01*
X7161153Y-15076704D01*
X7160510Y-15078057D01*
X7159866Y-15079406D01*
X7159224Y-15080747D01*
X7158582Y-15082085D01*
X7157941Y-15083416D01*
X7157299Y-15084743D01*
X7156659Y-15086062D01*
X7156018Y-15087378D01*
X7155379Y-15088687D01*
X7154739Y-15089992D01*
X7154100Y-15091291D01*
X7153461Y-15092585D01*
X7152823Y-15093873D01*
X7152184Y-15095157D01*
X7151547Y-15096434D01*
X7150909Y-15097708D01*
X7150272Y-15098975D01*
X7149635Y-15100239D01*
X7148999Y-15101496D01*
X7148362Y-15102750D01*
X7147726Y-15103997D01*
X7147090Y-15105241D01*
X7146455Y-15106478D01*
X7145819Y-15107712D01*
X7145185Y-15108940D01*
X7144550Y-15110165D01*
X7143915Y-15111383D01*
X7143280Y-15112598D01*
X7142646Y-15113807D01*
X7142012Y-15115013D01*
X7141378Y-15116213D01*
X7140744Y-15117409D01*
X7140111Y-15118600D01*
X7139477Y-15119787D01*
X7138844Y-15120969D01*
X7138210Y-15122148D01*
X7137577Y-15123321D01*
X7136944Y-15124491D01*
X7136311Y-15125655D01*
X7135678Y-15126816D01*
X7135045Y-15127971D01*
X7134412Y-15129124D01*
X7133779Y-15130271D01*
X7133146Y-15131415D01*
X7132514Y-15132554D01*
X7131881Y-15133690D01*
X7131248Y-15134821D01*
X7130615Y-15135948D01*
X7129982Y-15137071D01*
X7129349Y-15138190D01*
X7128716Y-15139305D01*
X7128083Y-15140417D01*
X7127450Y-15141523D01*
X7126817Y-15142627D01*
X7126184Y-15143726D01*
X7125551Y-15144822D01*
X7124917Y-15145913D01*
X7124284Y-15147001D01*
X7123650Y-15148085D01*
X7123016Y-15149166D01*
X7122383Y-15150242D01*
X7121748Y-15151315D01*
X7121115Y-15152384D01*
X7120480Y-15153450D01*
X7119846Y-15154512D01*
X7119211Y-15155571D01*
X7118576Y-15156625D01*
X7117941Y-15157677D01*
X7117306Y-15158724D01*
X7116670Y-15159769D01*
X7116034Y-15160809D01*
X7115398Y-15161847D01*
X7114762Y-15162880D01*
X7114125Y-15163911D01*
X7113489Y-15164938D01*
X7112852Y-15165962D01*
X7112214Y-15166982D01*
X7111577Y-15168000D01*
X7110939Y-15169014D01*
X7110300Y-15170025D01*
X7109662Y-15171032D01*
X7109023Y-15172036D01*
X7108384Y-15173037D01*
X7107744Y-15174035D01*
X7107104Y-15175029D01*
X7106464Y-15176021D01*
X7105823Y-15177010D01*
X7105182Y-15177995D01*
X7104541Y-15178977D01*
X7103899Y-15179957D01*
X7103256Y-15180933D01*
X7102613Y-15181906D01*
X7101970Y-15182876D01*
X7101327Y-15183844D01*
X7100683Y-15184808D01*
X7100038Y-15185770D01*
X7099393Y-15186728D01*
X7098748Y-15187685D01*
X7098102Y-15188637D01*
X7097455Y-15189588D01*
X7096808Y-15190535D01*
X7096161Y-15191479D01*
X7095513Y-15192421D01*
X7094864Y-15193360D01*
X7094215Y-15194296D01*
X7093565Y-15195230D01*
X7092915Y-15196160D01*
X7092264Y-15197089D01*
X7091613Y-15198014D01*
X7090961Y-15198937D01*
X7090308Y-15199857D01*
X7089655Y-15200775D01*
X7089001Y-15201690D01*
X7088347Y-15202603D01*
X7087692Y-15203513D01*
X7087036Y-15204420D01*
X7086380Y-15205325D01*
X7085723Y-15206228D01*
X7085065Y-15207128D01*
X7084406Y-15208025D01*
X7083747Y-15208920D01*
X7083087Y-15209813D01*
X7082427Y-15210703D01*
X7081766Y-15211591D01*
X7081104Y-15212477D01*
X7080441Y-15213360D01*
X7079777Y-15214241D01*
X7079113Y-15215120D01*
X7078448Y-15215996D01*
X7077782Y-15216870D01*
X7077116Y-15217742D01*
X7076448Y-15218612D01*
X7075780Y-15219479D01*
X7075111Y-15220344D01*
X7074441Y-15221207D01*
X7073770Y-15222068D01*
X7073098Y-15222926D01*
X7072426Y-15223783D01*
X7071753Y-15224637D01*
X7071078Y-15225490D01*
X7070403Y-15226340D01*
X7069727Y-15227188D01*
X7069050Y-15228034D01*
X7068372Y-15228878D01*
X7067693Y-15229720D01*
X7067014Y-15230560D01*
X7066333Y-15231398D01*
X7065651Y-15232234D01*
X7064968Y-15233068D01*
X7064285Y-15233900D01*
X7063600Y-15234730D01*
X7062914Y-15235558D01*
X7062228Y-15236385D01*
X7061540Y-15237209D01*
X7060851Y-15238032D01*
X7060161Y-15238853D01*
X7059470Y-15239671D01*
X7058778Y-15240489D01*
X7058085Y-15241304D01*
X7057391Y-15242117D01*
X7056696Y-15242929D01*
X7055999Y-15243739D01*
X7055302Y-15244547D01*
X7054603Y-15245354D01*
X7053903Y-15246158D01*
X7053202Y-15246961D01*
X7052500Y-15247763D01*
X7051796Y-15248562D01*
X7051092Y-15249360D01*
X7050386Y-15250157D01*
X7049679Y-15250952D01*
X7048971Y-15251745D01*
X7047550Y-15253326D01*
X7046125Y-15254901D01*
X7044694Y-15256470D01*
X7043258Y-15258033D01*
X7041817Y-15259590D01*
X7040370Y-15261141D01*
X7038918Y-15262687D01*
X7037460Y-15264226D01*
X7035996Y-15265761D01*
X7034526Y-15267289D01*
X7033050Y-15268813D01*
X7031568Y-15270331D01*
X7030080Y-15271845D01*
X7028586Y-15273353D01*
X7027085Y-15274857D01*
X7025577Y-15276356D01*
X7024063Y-15277850D01*
X7022542Y-15279339D01*
X7021014Y-15280825D01*
X7019479Y-15282306D01*
X7017937Y-15283782D01*
X7016388Y-15285255D01*
X7014831Y-15286724D01*
X7013267Y-15288188D01*
X7011695Y-15289649D01*
X7010115Y-15291107D01*
X7008527Y-15292561D01*
X7006931Y-15294011D01*
X7005327Y-15295458D01*
X7003715Y-15296902D01*
X7002094Y-15298342D01*
X7000464Y-15299780D01*
X6998826Y-15301215D01*
X6997179Y-15302647D01*
X6995522Y-15304076D01*
X6993857Y-15305503D01*
X6992182Y-15306927D01*
X6990497Y-15308349D01*
X6988803Y-15309768D01*
X6987099Y-15311186D01*
X6985384Y-15312601D01*
X6983660Y-15314015D01*
X6981925Y-15315426D01*
X6980179Y-15316836D01*
X6978423Y-15318245D01*
X6976655Y-15319652D01*
X6974877Y-15321058D01*
X6973087Y-15322462D01*
X6971285Y-15323866D01*
X6969472Y-15325268D01*
X6967647Y-15326670D01*
X6965810Y-15328071D01*
X6963960Y-15329471D01*
X6962097Y-15330871D01*
X6960222Y-15332270D01*
X6958334Y-15333669D01*
X6956432Y-15335069D01*
X6954517Y-15336468D01*
X6952587Y-15337867D01*
X6950644Y-15339267D01*
X6948687Y-15340667D01*
X6946715Y-15342068D01*
X6944728Y-15343470D01*
X6942726Y-15344872D01*
X6940708Y-15346276D01*
X6938675Y-15347681D01*
X6936625Y-15349087D01*
X6934560Y-15350495D01*
X6932477Y-15351904D01*
X6930378Y-15353315D01*
X6928262Y-15354728D01*
X6926127Y-15356144D01*
X6923975Y-15357561D01*
X6921804Y-15358981D01*
X6919615Y-15360404D01*
X6917407Y-15361830D01*
X6915179Y-15363259D01*
X6912931Y-15364691D01*
X6910662Y-15366127D01*
X6908373Y-15367566D01*
X6906063Y-15369009D01*
X6903731Y-15370457D01*
X6901377Y-15371909D01*
X6899001Y-15373365D01*
X6896601Y-15374826D01*
X6894177Y-15376292D01*
X6891730Y-15377763D01*
X6889257Y-15379240D01*
X6886759Y-15380723D01*
X6884236Y-15382212D01*
X6881685Y-15383707D01*
X6879108Y-15385209D01*
X6876503Y-15386718D01*
X6873869Y-15388234D01*
X6871206Y-15389758D01*
X6868513Y-15391290D01*
X6865789Y-15392830D01*
X6863034Y-15394379D01*
X6860246Y-15395936D01*
X6857425Y-15397504D01*
X6854570Y-15399081D01*
X6851679Y-15400668D01*
X6848753Y-15402266D01*
X6845789Y-15403876D01*
X6842787Y-15405497D01*
X6839746Y-15407130D01*
X6836664Y-15408776D01*
X6833540Y-15410435D01*
X6830372Y-15412108D01*
X6827161Y-15413796D01*
X6823903Y-15415499D01*
X6820598Y-15417218D01*
X6817243Y-15418953D01*
X6813838Y-15420706D01*
X6810379Y-15422477D01*
X6806866Y-15424267D01*
X6803296Y-15426077D01*
X6799667Y-15427908D01*
X6795977Y-15429761D01*
X6794500Y-15430500D01*
X6191250Y-13112750D02*
X6191250Y-10795000D01*
X9747250Y-10795000D02*
X9747250Y-12858750D01*
X10826750Y-10890250D02*
G75*
G02*
X11525250Y-10890250I349250J0D01*
G01*
X9747250Y-10795000D02*
G75*
G02*
X12604750Y-10795000I1428750J0D01*
G01*
X7270750Y-10890250D02*
G75*
G02*
X7969250Y-10890250I349250J0D01*
G01*
X9048750Y-12858750D02*
X9048750Y-10795000D01*
X13303250Y-12858750D02*
G75*
G02*
X12604750Y-12858750I-349250J0D01*
G01*
X13843000Y-9017000D02*
X13845208Y-9019423D01*
X13847415Y-9021833D01*
X13849624Y-9024233D01*
X13851832Y-9026621D01*
X13854041Y-9028997D01*
X13856250Y-9031363D01*
X13858460Y-9033717D01*
X13860670Y-9036060D01*
X13862881Y-9038393D01*
X13865093Y-9040714D01*
X13867306Y-9043025D01*
X13869519Y-9045325D01*
X13871734Y-9047615D01*
X13873949Y-9049894D01*
X13876165Y-9052163D01*
X13878383Y-9054421D01*
X13880602Y-9056670D01*
X13882822Y-9058909D01*
X13885044Y-9061137D01*
X13887267Y-9063356D01*
X13889492Y-9065566D01*
X13891719Y-9067765D01*
X13893947Y-9069956D01*
X13896177Y-9072137D01*
X13898410Y-9074309D01*
X13900644Y-9076472D01*
X13902881Y-9078626D01*
X13905120Y-9080771D01*
X13907361Y-9082907D01*
X13909605Y-9085035D01*
X13911852Y-9087154D01*
X13914101Y-9089266D01*
X13916354Y-9091369D01*
X13918610Y-9093464D01*
X13920869Y-9095551D01*
X13923131Y-9097631D01*
X13925397Y-9099703D01*
X13927667Y-9101767D01*
X13929940Y-9103825D01*
X13932218Y-9105875D01*
X13934499Y-9107918D01*
X13936786Y-9109955D01*
X13939076Y-9111985D01*
X13941372Y-9114009D01*
X13943673Y-9116026D01*
X13945979Y-9118038D01*
X13948290Y-9120044D01*
X13950607Y-9122044D01*
X13952930Y-9124039D01*
X13955260Y-9126028D01*
X13957595Y-9128013D01*
X13959938Y-9129993D01*
X13962287Y-9131969D01*
X13964644Y-9133940D01*
X13967009Y-9135907D01*
X13969382Y-9137871D01*
X13971763Y-9139832D01*
X13974153Y-9141789D01*
X13976552Y-9143744D01*
X13978961Y-9145696D01*
X13981380Y-9147646D01*
X13983810Y-9149595D01*
X13986250Y-9151542D01*
X13988703Y-9153489D01*
X13991167Y-9155435D01*
X13993645Y-9157381D01*
X13996136Y-9159327D01*
X13998641Y-9161275D01*
X14001161Y-9163224D01*
X14003697Y-9165175D01*
X14006250Y-9167129D01*
X14008820Y-9169087D01*
X14011409Y-9171049D01*
X14014018Y-9173016D01*
X14016648Y-9174989D01*
X14019300Y-9176969D01*
X14021976Y-9178957D01*
X14024678Y-9180953D01*
X14027407Y-9182960D01*
X14030165Y-9184979D01*
X14032955Y-9187011D01*
X14035779Y-9189059D01*
X14038639Y-9191123D01*
X14041540Y-9193206D01*
X14044485Y-9195311D01*
X14047477Y-9197440D01*
X14050523Y-9199598D01*
X14053627Y-9201788D01*
X14056797Y-9204014D01*
X14060041Y-9206282D01*
X14063369Y-9208600D01*
X14066795Y-9210977D01*
X14070334Y-9213422D01*
X14074008Y-9215951D01*
X14077846Y-9218584D01*
X14081890Y-9221348D01*
X14086202Y-9224287D01*
X14090889Y-9227472D01*
X14096146Y-9231035D01*
X14102455Y-9235303D01*
X14107087Y-9238433D01*
X14114485Y-9243434D01*
X14118149Y-9245914D01*
X14121789Y-9248381D01*
X14125406Y-9250838D01*
X14129000Y-9253284D01*
X14132570Y-9255722D01*
X14136117Y-9258152D01*
X14137882Y-9259365D01*
X14139640Y-9260576D01*
X14141393Y-9261786D01*
X14143140Y-9262995D01*
X14144881Y-9264203D01*
X14146616Y-9265410D01*
X14148345Y-9266617D01*
X14150069Y-9267822D01*
X14151786Y-9269028D01*
X14153497Y-9270233D01*
X14155203Y-9271438D01*
X14156903Y-9272643D01*
X14158596Y-9273848D01*
X14160284Y-9275054D01*
X14161966Y-9276260D01*
X14163642Y-9277466D01*
X14165312Y-9278674D01*
X14166976Y-9279882D01*
X14168634Y-9281092D01*
X14170286Y-9282302D01*
X14171933Y-9283514D01*
X14173573Y-9284728D01*
X14175207Y-9285943D01*
X14176836Y-9287160D01*
X14178458Y-9288378D01*
X14180074Y-9289599D01*
X14181685Y-9290823D01*
X14183289Y-9292048D01*
X14184888Y-9293276D01*
X14186480Y-9294507D01*
X14188067Y-9295741D01*
X14189647Y-9296977D01*
X14191222Y-9298217D01*
X14192791Y-9299460D01*
X14194353Y-9300707D01*
X14195910Y-9301957D01*
X14197460Y-9303210D01*
X14199005Y-9304468D01*
X14200543Y-9305729D01*
X14202076Y-9306995D01*
X14203602Y-9308265D01*
X14205123Y-9309539D01*
X14206637Y-9310819D01*
X14208145Y-9312102D01*
X14209648Y-9313391D01*
X14211144Y-9314685D01*
X14212634Y-9315983D01*
X14213377Y-9316635D01*
X14214119Y-9317288D01*
X14214858Y-9317942D01*
X14215597Y-9318597D01*
X14216334Y-9319254D01*
X14217069Y-9319913D01*
X14217803Y-9320572D01*
X14218535Y-9321234D01*
X14219266Y-9321896D01*
X14219995Y-9322561D01*
X14220723Y-9323226D01*
X14221449Y-9323894D01*
X14222174Y-9324563D01*
X14222897Y-9325233D01*
X14223618Y-9325905D01*
X14224338Y-9326579D01*
X14225057Y-9327254D01*
X14225774Y-9327931D01*
X14226490Y-9328609D01*
X14227204Y-9329289D01*
X14227916Y-9329971D01*
X14228627Y-9330655D01*
X14229337Y-9331340D01*
X14230045Y-9332027D01*
X14230751Y-9332716D01*
X14231456Y-9333407D01*
X14232160Y-9334100D01*
X14232861Y-9334794D01*
X14233562Y-9335490D01*
X14234261Y-9336188D01*
X14234958Y-9336888D01*
X14235654Y-9337590D01*
X14236348Y-9338294D01*
X14237041Y-9338999D01*
X14237732Y-9339707D01*
X14238422Y-9340416D01*
X14239110Y-9341128D01*
X14239796Y-9341842D01*
X14240481Y-9342557D01*
X14241165Y-9343275D01*
X14241847Y-9343995D01*
X14242527Y-9344717D01*
X14243206Y-9345441D01*
X14243884Y-9346167D01*
X14244560Y-9346895D01*
X14245234Y-9347625D01*
X14245907Y-9348358D01*
X14246578Y-9349092D01*
X14247248Y-9349829D01*
X14247916Y-9350569D01*
X14248583Y-9351310D01*
X14249248Y-9352054D01*
X14249912Y-9352800D01*
X14250574Y-9353548D01*
X14251234Y-9354299D01*
X14251893Y-9355052D01*
X14252551Y-9355807D01*
X14253207Y-9356565D01*
X14253861Y-9357325D01*
X14254514Y-9358087D01*
X14255166Y-9358852D01*
X14255815Y-9359620D01*
X14256464Y-9360389D01*
X14257110Y-9361162D01*
X14257756Y-9361937D01*
X14258399Y-9362714D01*
X14259041Y-9363494D01*
X14259682Y-9364276D01*
X14260321Y-9365062D01*
X14260958Y-9365849D01*
X14261594Y-9366639D01*
X14262229Y-9367432D01*
X14262861Y-9368228D01*
X14263493Y-9369026D01*
X14264122Y-9369827D01*
X14264751Y-9370631D01*
X14265377Y-9371437D01*
X14266002Y-9372246D01*
X14266626Y-9373058D01*
X14267248Y-9373873D01*
X14267868Y-9374690D01*
X14268487Y-9375511D01*
X14269105Y-9376334D01*
X14269721Y-9377160D01*
X14270335Y-9377989D01*
X14270948Y-9378821D01*
X14271559Y-9379655D01*
X14272168Y-9380493D01*
X14272776Y-9381333D01*
X14273383Y-9382177D01*
X14273988Y-9383023D01*
X14274591Y-9383873D01*
X14275193Y-9384726D01*
X14275794Y-9385581D01*
X14276392Y-9386440D01*
X14276989Y-9387301D01*
X14277585Y-9388166D01*
X14278179Y-9389034D01*
X14278772Y-9389905D01*
X14279363Y-9390779D01*
X14279952Y-9391657D01*
X14280540Y-9392537D01*
X14281126Y-9393421D01*
X14281711Y-9394308D01*
X14282294Y-9395198D01*
X14282876Y-9396092D01*
X14283456Y-9396989D01*
X14284034Y-9397889D01*
X14284611Y-9398792D01*
X14285187Y-9399699D01*
X14285761Y-9400609D01*
X14286333Y-9401522D01*
X14286904Y-9402439D01*
X14287473Y-9403359D01*
X14288040Y-9404283D01*
X14288606Y-9405210D01*
X14289171Y-9406141D01*
X14289734Y-9407075D01*
X14290295Y-9408012D01*
X14290855Y-9408954D01*
X14291413Y-9409898D01*
X14291970Y-9410846D01*
X14292525Y-9411798D01*
X14293078Y-9412753D01*
X14293630Y-9413712D01*
X14294180Y-9414675D01*
X14294729Y-9415641D01*
X14295276Y-9416611D01*
X14295822Y-9417585D01*
X14296366Y-9418562D01*
X14296909Y-9419543D01*
X14297450Y-9420528D01*
X14297989Y-9421516D01*
X14298527Y-9422508D01*
X14299063Y-9423504D01*
X14299598Y-9424504D01*
X14300131Y-9425508D01*
X14300662Y-9426515D01*
X14301192Y-9427527D01*
X14301721Y-9428542D01*
X14302247Y-9429561D01*
X14302773Y-9430585D01*
X14303296Y-9431612D01*
X14303818Y-9432643D01*
X14304339Y-9433678D01*
X14304858Y-9434717D01*
X14305375Y-9435760D01*
X14305891Y-9436807D01*
X14306405Y-9437858D01*
X14306918Y-9438913D01*
X14307429Y-9439972D01*
X14307938Y-9441036D01*
X14308446Y-9442103D01*
X14308952Y-9443175D01*
X14309457Y-9444250D01*
X14309960Y-9445330D01*
X14310462Y-9446415D01*
X14310961Y-9447503D01*
X14311460Y-9448596D01*
X14311957Y-9449692D01*
X14312452Y-9450794D01*
X14312945Y-9451899D01*
X14313437Y-9453009D01*
X14313928Y-9454123D01*
X14314417Y-9455241D01*
X14314904Y-9456364D01*
X14315390Y-9457491D01*
X14315874Y-9458623D01*
X14316356Y-9459759D01*
X14316837Y-9460899D01*
X14317317Y-9462044D01*
X14317794Y-9463193D01*
X14318271Y-9464347D01*
X14318745Y-9465506D01*
X14319218Y-9466668D01*
X14319690Y-9467836D01*
X14320159Y-9469008D01*
X14320628Y-9470184D01*
X14321094Y-9471366D01*
X14321559Y-9472551D01*
X14322023Y-9473742D01*
X14322485Y-9474937D01*
X14322945Y-9476137D01*
X14323403Y-9477341D01*
X14323861Y-9478550D01*
X14324316Y-9479764D01*
X14324770Y-9480983D01*
X14325222Y-9482206D01*
X14325673Y-9483434D01*
X14326122Y-9484667D01*
X14326569Y-9485905D01*
X14327015Y-9487148D01*
X14327460Y-9488395D01*
X14327902Y-9489648D01*
X14328343Y-9490905D01*
X14328783Y-9492167D01*
X14329221Y-9493434D01*
X14329657Y-9494707D01*
X14330092Y-9495984D01*
X14330525Y-9497266D01*
X14330956Y-9498553D01*
X14331386Y-9499845D01*
X14331815Y-9501142D01*
X14332241Y-9502444D01*
X14332666Y-9503751D01*
X14333090Y-9505064D01*
X14333512Y-9506381D01*
X14333932Y-9507704D01*
X14334351Y-9509032D01*
X14334768Y-9510365D01*
X14335183Y-9511703D01*
X14335597Y-9513046D01*
X14336009Y-9514395D01*
X14336420Y-9515749D01*
X14336829Y-9517108D01*
X14337236Y-9518472D01*
X14337642Y-9519842D01*
X14338046Y-9521217D01*
X14338449Y-9522597D01*
X14338850Y-9523983D01*
X14339249Y-9525374D01*
X14339647Y-9526770D01*
X14340043Y-9528172D01*
X14340438Y-9529579D01*
X14340831Y-9530992D01*
X14341222Y-9532410D01*
X14341612Y-9533834D01*
X14342000Y-9535263D01*
X14342386Y-9536698D01*
X14342771Y-9538138D01*
X14343154Y-9539584D01*
X14343536Y-9541035D01*
X14343916Y-9542492D01*
X14344294Y-9543955D01*
X14344671Y-9545423D01*
X14345046Y-9546897D01*
X14345420Y-9548376D01*
X14345792Y-9549862D01*
X14346162Y-9551353D01*
X14346531Y-9552849D01*
X14346898Y-9554352D01*
X14347263Y-9555860D01*
X14347627Y-9557374D01*
X14347989Y-9558893D01*
X14348350Y-9560419D01*
X14348709Y-9561950D01*
X14349066Y-9563488D01*
X14349422Y-9565031D01*
X14349776Y-9566580D01*
X14350129Y-9568135D01*
X14350479Y-9569695D01*
X14350829Y-9571262D01*
X14351176Y-9572835D01*
X14351522Y-9574413D01*
X14351867Y-9575998D01*
X14352209Y-9577589D01*
X14352550Y-9579186D01*
X14352890Y-9580788D01*
X14353228Y-9582397D01*
X14353564Y-9584012D01*
X14353899Y-9585633D01*
X14354232Y-9587261D01*
X14354563Y-9588894D01*
X14354893Y-9590533D01*
X14355221Y-9592179D01*
X14355547Y-9593831D01*
X14355872Y-9595489D01*
X14356195Y-9597153D01*
X14356517Y-9598824D01*
X14356837Y-9600501D01*
X14357155Y-9602184D01*
X14357471Y-9603874D01*
X14357786Y-9605569D01*
X14358100Y-9607272D01*
X14358412Y-9608980D01*
X14358722Y-9610695D01*
X14359030Y-9612416D01*
X14359337Y-9614144D01*
X14359642Y-9615878D01*
X14359946Y-9617619D01*
X14360248Y-9619366D01*
X14360548Y-9621120D01*
X14360847Y-9622880D01*
X14361144Y-9624646D01*
X14361439Y-9626420D01*
X14361733Y-9628199D01*
X14362025Y-9629986D01*
X14362315Y-9631779D01*
X14362604Y-9633578D01*
X14362891Y-9635384D01*
X14363177Y-9637197D01*
X14363461Y-9639017D01*
X14363743Y-9640843D01*
X14364024Y-9642676D01*
X14364303Y-9644516D01*
X14364580Y-9646362D01*
X14364856Y-9648216D01*
X14365130Y-9650076D01*
X14365402Y-9651942D01*
X14365673Y-9653816D01*
X14365942Y-9655697D01*
X14366209Y-9657584D01*
X14366475Y-9659478D01*
X14366739Y-9661379D01*
X14367002Y-9663287D01*
X14367263Y-9665202D01*
X14367522Y-9667124D01*
X14367779Y-9669053D01*
X14368035Y-9670989D01*
X14368289Y-9672932D01*
X14368542Y-9674882D01*
X14368793Y-9676839D01*
X14369042Y-9678803D01*
X14369290Y-9680774D01*
X14369536Y-9682752D01*
X14369780Y-9684738D01*
X14370023Y-9686730D01*
X14370264Y-9688730D01*
X14370503Y-9690737D01*
X14370741Y-9692751D01*
X14370977Y-9694772D01*
X14371212Y-9696800D01*
X14371444Y-9698836D01*
X14371675Y-9700879D01*
X14371905Y-9702929D01*
X14372133Y-9704987D01*
X14372359Y-9707052D01*
X14372583Y-9709124D01*
X14372806Y-9711204D01*
X14373027Y-9713290D01*
X14373247Y-9715385D01*
X14373465Y-9717487D01*
X14373681Y-9719596D01*
X14373895Y-9721712D01*
X14374108Y-9723837D01*
X14374319Y-9725968D01*
X14374529Y-9728107D01*
X14374737Y-9730254D01*
X14374943Y-9732408D01*
X14375147Y-9734570D01*
X14375350Y-9736739D01*
X14375552Y-9738916D01*
X14375751Y-9741101D01*
X14375949Y-9743293D01*
X14376145Y-9745493D01*
X14376340Y-9747700D01*
X14376533Y-9749915D01*
X14376724Y-9752138D01*
X14376913Y-9754369D01*
X14377101Y-9756607D01*
X14377287Y-9758853D01*
X14377472Y-9761107D01*
X14377655Y-9763369D01*
X14377836Y-9765638D01*
X14378016Y-9767916D01*
X14378193Y-9770201D01*
X14378370Y-9772494D01*
X14378544Y-9774795D01*
X14378717Y-9777104D01*
X14378888Y-9779420D01*
X14379058Y-9781745D01*
X14379225Y-9784078D01*
X14379392Y-9786419D01*
X14379556Y-9788767D01*
X14379719Y-9791124D01*
X14379880Y-9793489D01*
X14380039Y-9795862D01*
X14380197Y-9798242D01*
X14380353Y-9800631D01*
X14380508Y-9803028D01*
X14380660Y-9805434D01*
X14380812Y-9807847D01*
X14380961Y-9810269D01*
X14381109Y-9812698D01*
X14381255Y-9815136D01*
X14381399Y-9817582D01*
X14381542Y-9820037D01*
X14381683Y-9822499D01*
X14381822Y-9824970D01*
X14381960Y-9827450D01*
X14382096Y-9829937D01*
X14382230Y-9832433D01*
X14382362Y-9834937D01*
X14382493Y-9837450D01*
X14382622Y-9839971D01*
X14382750Y-9842500D01*
X6667500Y-15779750D02*
X6508750Y-16065500D01*
D11*
D12*
X6716000Y-12494500D02*
X6746000Y-12524500D01*
X6746000Y-12494500D02*
X6716000Y-12524500D01*
X6716000Y-12653250D02*
X6746000Y-12683250D01*
X6746000Y-12653250D02*
X6716000Y-12683250D01*
X11827750Y-11821400D02*
X11857750Y-11851400D01*
X11857750Y-11821400D02*
X11827750Y-11851400D01*
X12050000Y-11034000D02*
X12080000Y-11064000D01*
X12080000Y-11034000D02*
X12050000Y-11064000D01*
X13637500Y-13574000D02*
X13667500Y-13604000D01*
X13667500Y-13574000D02*
X13637500Y-13604000D01*
X13669250Y-13256500D02*
X13699250Y-13286500D01*
X13699250Y-13256500D02*
X13669250Y-13286500D01*
X13828000Y-11224500D02*
X13858000Y-11254500D01*
X13858000Y-11224500D02*
X13828000Y-11254500D01*
X13828000Y-11351500D02*
X13858000Y-11381500D01*
X13858000Y-11351500D02*
X13828000Y-11381500D01*
X13828000Y-11637250D02*
X13858000Y-11667250D01*
X13858000Y-11637250D02*
X13828000Y-11667250D01*
X13828000Y-11954750D02*
X13858000Y-11984750D01*
X13858000Y-11954750D02*
X13828000Y-11984750D01*
X13859750Y-10917160D02*
X13889750Y-10947160D01*
X13889750Y-10917160D02*
X13859750Y-10947160D01*
X13859750Y-11034000D02*
X13889750Y-11064000D01*
X13889750Y-11034000D02*
X13859750Y-11064000D01*
X13896500Y-9723750D02*
G75*
G02*
X13811500Y-9723750I-42500J0D01*
G01*
X13811500Y-9723750D02*
G75*
G02*
X13896500Y-9723750I42500J0D01*
G01*
X13889000Y-9681250D02*
X13819000Y-9681250D01*
X13819000Y-9766250D02*
G75*
G02*
X13819000Y-9681250I0J42500D01*
G01*
X13819000Y-9766250D02*
X13889000Y-9766250D01*
X13889000Y-9766250D02*
G75*
G03*
X13889000Y-9681250I0J42500D01*
G01*
X13896500Y-10743750D02*
G75*
G02*
X13811500Y-10743750I-42500J0D01*
G01*
X13811500Y-10743750D02*
G75*
G02*
X13896500Y-10743750I42500J0D01*
G01*
X13889000Y-10701250D02*
X13819000Y-10701250D01*
X13819000Y-10786250D02*
G75*
G02*
X13819000Y-10701250I0J42500D01*
G01*
X13819000Y-10786250D02*
X13889000Y-10786250D01*
X13889000Y-10786250D02*
G75*
G03*
X13889000Y-10701250I0J42500D01*
G01*
X14266500Y-9723750D02*
G75*
G02*
X14181500Y-9723750I-42500J0D01*
G01*
X14181500Y-9723750D02*
G75*
G02*
X14266500Y-9723750I42500J0D01*
G01*
X14259000Y-9681250D02*
X14189000Y-9681250D01*
X14189000Y-9766250D02*
G75*
G02*
X14189000Y-9681250I0J42500D01*
G01*
X14189000Y-9766250D02*
X14259000Y-9766250D01*
X14259000Y-9766250D02*
G75*
G03*
X14259000Y-9681250I0J42500D01*
G01*
X14266500Y-10743750D02*
G75*
G02*
X14181500Y-10743750I-42500J0D01*
G01*
X14181500Y-10743750D02*
G75*
G02*
X14266500Y-10743750I42500J0D01*
G01*
X14259000Y-10701250D02*
X14189000Y-10701250D01*
X14189000Y-10786250D02*
G75*
G02*
X14189000Y-10701250I0J42500D01*
G01*
X14189000Y-10786250D02*
X14259000Y-10786250D01*
X14259000Y-10786250D02*
G75*
G03*
X14259000Y-10701250I0J42500D01*
G01*
D11*
X6259306Y-16474734D02*
X6259306Y-16274734D01*
X6259306Y-16274734D02*
X6306925Y-16274734D01*
X6306925Y-16274734D02*
X6335497Y-16284258D01*
X6335497Y-16284258D02*
X6354544Y-16303305D01*
X6354544Y-16303305D02*
X6364068Y-16322353D01*
X6364068Y-16322353D02*
X6373592Y-16360448D01*
X6373592Y-16360448D02*
X6373592Y-16389019D01*
X6373592Y-16389019D02*
X6364068Y-16427115D01*
X6364068Y-16427115D02*
X6354544Y-16446162D01*
X6354544Y-16446162D02*
X6335497Y-16465210D01*
X6335497Y-16465210D02*
X6306925Y-16474734D01*
X6306925Y-16474734D02*
X6259306Y-16474734D01*
X6459306Y-16474734D02*
X6459306Y-16341400D01*
X6459306Y-16379496D02*
X6468830Y-16360448D01*
X6468830Y-16360448D02*
X6478354Y-16350924D01*
X6478354Y-16350924D02*
X6497402Y-16341400D01*
X6497402Y-16341400D02*
X6516449Y-16341400D01*
X6583116Y-16474734D02*
X6583116Y-16341400D01*
X6583116Y-16274734D02*
X6573592Y-16284258D01*
X6573592Y-16284258D02*
X6583116Y-16293781D01*
X6583116Y-16293781D02*
X6592640Y-16284258D01*
X6592640Y-16284258D02*
X6583116Y-16274734D01*
X6583116Y-16274734D02*
X6583116Y-16293781D01*
X6706925Y-16474734D02*
X6687878Y-16465210D01*
X6687878Y-16465210D02*
X6678354Y-16446162D01*
X6678354Y-16446162D02*
X6678354Y-16274734D01*
X6811687Y-16474734D02*
X6792640Y-16465210D01*
X6792640Y-16465210D02*
X6783116Y-16446162D01*
X6783116Y-16446162D02*
X6783116Y-16274734D01*
X7040259Y-16474734D02*
X7040259Y-16274734D01*
X7040259Y-16274734D02*
X7106925Y-16417591D01*
X7106925Y-16417591D02*
X7173592Y-16274734D01*
X7173592Y-16274734D02*
X7173592Y-16474734D01*
X7354544Y-16474734D02*
X7354544Y-16369972D01*
X7354544Y-16369972D02*
X7345021Y-16350924D01*
X7345021Y-16350924D02*
X7325973Y-16341400D01*
X7325973Y-16341400D02*
X7287878Y-16341400D01*
X7287878Y-16341400D02*
X7268830Y-16350924D01*
X7354544Y-16465210D02*
X7335497Y-16474734D01*
X7335497Y-16474734D02*
X7287878Y-16474734D01*
X7287878Y-16474734D02*
X7268830Y-16465210D01*
X7268830Y-16465210D02*
X7259306Y-16446162D01*
X7259306Y-16446162D02*
X7259306Y-16427115D01*
X7259306Y-16427115D02*
X7268830Y-16408067D01*
X7268830Y-16408067D02*
X7287878Y-16398543D01*
X7287878Y-16398543D02*
X7335497Y-16398543D01*
X7335497Y-16398543D02*
X7354544Y-16389019D01*
X7449783Y-16341400D02*
X7449783Y-16541400D01*
X7449783Y-16350924D02*
X7468830Y-16341400D01*
X7468830Y-16341400D02*
X7506925Y-16341400D01*
X7506925Y-16341400D02*
X7525973Y-16350924D01*
X7525973Y-16350924D02*
X7535497Y-16360448D01*
X7535497Y-16360448D02*
X7545021Y-16379496D01*
X7545021Y-16379496D02*
X7545021Y-16436638D01*
X7545021Y-16436638D02*
X7535497Y-16455686D01*
X7535497Y-16455686D02*
X7525973Y-16465210D01*
X7525973Y-16465210D02*
X7506925Y-16474734D01*
X7506925Y-16474734D02*
X7468830Y-16474734D01*
X7468830Y-16474734D02*
X7449783Y-16465210D01*
X7630735Y-16455686D02*
X7640259Y-16465210D01*
X7640259Y-16465210D02*
X7630735Y-16474734D01*
X7630735Y-16474734D02*
X7621211Y-16465210D01*
X7621211Y-16465210D02*
X7630735Y-16455686D01*
X7630735Y-16455686D02*
X7630735Y-16474734D01*
X7630735Y-16350924D02*
X7640259Y-16360448D01*
X7640259Y-16360448D02*
X7630735Y-16369972D01*
X7630735Y-16369972D02*
X7621211Y-16360448D01*
X7621211Y-16360448D02*
X7630735Y-16350924D01*
X7630735Y-16350924D02*
X7630735Y-16369972D01*
D12*
X5968530Y-16788250D02*
X5998530Y-16818250D01*
X5998530Y-16788250D02*
X5968530Y-16818250D01*
D11*
X6297402Y-16694734D02*
X6316449Y-16694734D01*
X6316449Y-16694734D02*
X6335497Y-16704258D01*
X6335497Y-16704258D02*
X6345021Y-16713781D01*
X6345021Y-16713781D02*
X6354544Y-16732829D01*
X6354544Y-16732829D02*
X6364068Y-16770924D01*
X6364068Y-16770924D02*
X6364068Y-16818543D01*
X6364068Y-16818543D02*
X6354544Y-16856639D01*
X6354544Y-16856639D02*
X6345021Y-16875686D01*
X6345021Y-16875686D02*
X6335497Y-16885210D01*
X6335497Y-16885210D02*
X6316449Y-16894734D01*
X6316449Y-16894734D02*
X6297402Y-16894734D01*
X6297402Y-16894734D02*
X6278354Y-16885210D01*
X6278354Y-16885210D02*
X6268830Y-16875686D01*
X6268830Y-16875686D02*
X6259306Y-16856639D01*
X6259306Y-16856639D02*
X6249783Y-16818543D01*
X6249783Y-16818543D02*
X6249783Y-16770924D01*
X6249783Y-16770924D02*
X6259306Y-16732829D01*
X6259306Y-16732829D02*
X6268830Y-16713781D01*
X6268830Y-16713781D02*
X6278354Y-16704258D01*
X6278354Y-16704258D02*
X6297402Y-16694734D01*
X6449783Y-16875686D02*
X6459306Y-16885210D01*
X6459306Y-16885210D02*
X6449783Y-16894734D01*
X6449783Y-16894734D02*
X6440259Y-16885210D01*
X6440259Y-16885210D02*
X6449783Y-16875686D01*
X6449783Y-16875686D02*
X6449783Y-16894734D01*
X6525973Y-16694734D02*
X6649783Y-16694734D01*
X6649783Y-16694734D02*
X6583116Y-16770924D01*
X6583116Y-16770924D02*
X6611687Y-16770924D01*
X6611687Y-16770924D02*
X6630735Y-16780448D01*
X6630735Y-16780448D02*
X6640259Y-16789972D01*
X6640259Y-16789972D02*
X6649783Y-16809020D01*
X6649783Y-16809020D02*
X6649783Y-16856639D01*
X6649783Y-16856639D02*
X6640259Y-16875686D01*
X6640259Y-16875686D02*
X6630735Y-16885210D01*
X6630735Y-16885210D02*
X6611687Y-16894734D01*
X6611687Y-16894734D02*
X6554544Y-16894734D01*
X6554544Y-16894734D02*
X6535497Y-16885210D01*
X6535497Y-16885210D02*
X6525973Y-16875686D01*
X6773592Y-16694734D02*
X6792640Y-16694734D01*
X6792640Y-16694734D02*
X6811687Y-16704258D01*
X6811687Y-16704258D02*
X6821211Y-16713781D01*
X6821211Y-16713781D02*
X6830735Y-16732829D01*
X6830735Y-16732829D02*
X6840259Y-16770924D01*
X6840259Y-16770924D02*
X6840259Y-16818543D01*
X6840259Y-16818543D02*
X6830735Y-16856639D01*
X6830735Y-16856639D02*
X6821211Y-16875686D01*
X6821211Y-16875686D02*
X6811687Y-16885210D01*
X6811687Y-16885210D02*
X6792640Y-16894734D01*
X6792640Y-16894734D02*
X6773592Y-16894734D01*
X6773592Y-16894734D02*
X6754544Y-16885210D01*
X6754544Y-16885210D02*
X6745021Y-16875686D01*
X6745021Y-16875686D02*
X6735497Y-16856639D01*
X6735497Y-16856639D02*
X6725973Y-16818543D01*
X6725973Y-16818543D02*
X6725973Y-16770924D01*
X6725973Y-16770924D02*
X6735497Y-16732829D01*
X6735497Y-16732829D02*
X6745021Y-16713781D01*
X6745021Y-16713781D02*
X6754544Y-16704258D01*
X6754544Y-16704258D02*
X6773592Y-16694734D01*
X6964068Y-16694734D02*
X6983116Y-16694734D01*
X6983116Y-16694734D02*
X7002164Y-16704258D01*
X7002164Y-16704258D02*
X7011687Y-16713781D01*
X7011687Y-16713781D02*
X7021211Y-16732829D01*
X7021211Y-16732829D02*
X7030735Y-16770924D01*
X7030735Y-16770924D02*
X7030735Y-16818543D01*
X7030735Y-16818543D02*
X7021211Y-16856639D01*
X7021211Y-16856639D02*
X7011687Y-16875686D01*
X7011687Y-16875686D02*
X7002164Y-16885210D01*
X7002164Y-16885210D02*
X6983116Y-16894734D01*
X6983116Y-16894734D02*
X6964068Y-16894734D01*
X6964068Y-16894734D02*
X6945021Y-16885210D01*
X6945021Y-16885210D02*
X6935497Y-16875686D01*
X6935497Y-16875686D02*
X6925973Y-16856639D01*
X6925973Y-16856639D02*
X6916449Y-16818543D01*
X6916449Y-16818543D02*
X6916449Y-16770924D01*
X6916449Y-16770924D02*
X6925973Y-16732829D01*
X6925973Y-16732829D02*
X6935497Y-16713781D01*
X6935497Y-16713781D02*
X6945021Y-16704258D01*
X6945021Y-16704258D02*
X6964068Y-16694734D01*
X7116449Y-16894734D02*
X7116449Y-16761400D01*
X7116449Y-16780448D02*
X7125973Y-16770924D01*
X7125973Y-16770924D02*
X7145021Y-16761400D01*
X7145021Y-16761400D02*
X7173592Y-16761400D01*
X7173592Y-16761400D02*
X7192640Y-16770924D01*
X7192640Y-16770924D02*
X7202164Y-16789972D01*
X7202164Y-16789972D02*
X7202164Y-16894734D01*
X7202164Y-16789972D02*
X7211687Y-16770924D01*
X7211687Y-16770924D02*
X7230735Y-16761400D01*
X7230735Y-16761400D02*
X7259306Y-16761400D01*
X7259306Y-16761400D02*
X7278354Y-16770924D01*
X7278354Y-16770924D02*
X7287878Y-16789972D01*
X7287878Y-16789972D02*
X7287878Y-16894734D01*
X7383116Y-16894734D02*
X7383116Y-16761400D01*
X7383116Y-16780448D02*
X7392640Y-16770924D01*
X7392640Y-16770924D02*
X7411687Y-16761400D01*
X7411687Y-16761400D02*
X7440259Y-16761400D01*
X7440259Y-16761400D02*
X7459306Y-16770924D01*
X7459306Y-16770924D02*
X7468830Y-16789972D01*
X7468830Y-16789972D02*
X7468830Y-16894734D01*
X7468830Y-16789972D02*
X7478354Y-16770924D01*
X7478354Y-16770924D02*
X7497402Y-16761400D01*
X7497402Y-16761400D02*
X7525973Y-16761400D01*
X7525973Y-16761400D02*
X7545021Y-16770924D01*
X7545021Y-16770924D02*
X7554545Y-16789972D01*
X7554545Y-16789972D02*
X7554545Y-16894734D01*
X7945021Y-16685210D02*
X7773592Y-16942353D01*
X8202164Y-16694734D02*
X8221211Y-16694734D01*
X8221211Y-16694734D02*
X8240259Y-16704258D01*
X8240259Y-16704258D02*
X8249783Y-16713781D01*
X8249783Y-16713781D02*
X8259307Y-16732829D01*
X8259307Y-16732829D02*
X8268830Y-16770924D01*
X8268830Y-16770924D02*
X8268830Y-16818543D01*
X8268830Y-16818543D02*
X8259307Y-16856639D01*
X8259307Y-16856639D02*
X8249783Y-16875686D01*
X8249783Y-16875686D02*
X8240259Y-16885210D01*
X8240259Y-16885210D02*
X8221211Y-16894734D01*
X8221211Y-16894734D02*
X8202164Y-16894734D01*
X8202164Y-16894734D02*
X8183116Y-16885210D01*
X8183116Y-16885210D02*
X8173592Y-16875686D01*
X8173592Y-16875686D02*
X8164068Y-16856639D01*
X8164068Y-16856639D02*
X8154545Y-16818543D01*
X8154545Y-16818543D02*
X8154545Y-16770924D01*
X8154545Y-16770924D02*
X8164068Y-16732829D01*
X8164068Y-16732829D02*
X8173592Y-16713781D01*
X8173592Y-16713781D02*
X8183116Y-16704258D01*
X8183116Y-16704258D02*
X8202164Y-16694734D01*
X8354545Y-16875686D02*
X8364068Y-16885210D01*
X8364068Y-16885210D02*
X8354545Y-16894734D01*
X8354545Y-16894734D02*
X8345021Y-16885210D01*
X8345021Y-16885210D02*
X8354545Y-16875686D01*
X8354545Y-16875686D02*
X8354545Y-16894734D01*
X8487878Y-16694734D02*
X8506926Y-16694734D01*
X8506926Y-16694734D02*
X8525973Y-16704258D01*
X8525973Y-16704258D02*
X8535497Y-16713781D01*
X8535497Y-16713781D02*
X8545021Y-16732829D01*
X8545021Y-16732829D02*
X8554545Y-16770924D01*
X8554545Y-16770924D02*
X8554545Y-16818543D01*
X8554545Y-16818543D02*
X8545021Y-16856639D01*
X8545021Y-16856639D02*
X8535497Y-16875686D01*
X8535497Y-16875686D02*
X8525973Y-16885210D01*
X8525973Y-16885210D02*
X8506926Y-16894734D01*
X8506926Y-16894734D02*
X8487878Y-16894734D01*
X8487878Y-16894734D02*
X8468830Y-16885210D01*
X8468830Y-16885210D02*
X8459307Y-16875686D01*
X8459307Y-16875686D02*
X8449783Y-16856639D01*
X8449783Y-16856639D02*
X8440259Y-16818543D01*
X8440259Y-16818543D02*
X8440259Y-16770924D01*
X8440259Y-16770924D02*
X8449783Y-16732829D01*
X8449783Y-16732829D02*
X8459307Y-16713781D01*
X8459307Y-16713781D02*
X8468830Y-16704258D01*
X8468830Y-16704258D02*
X8487878Y-16694734D01*
X8745021Y-16894734D02*
X8630735Y-16894734D01*
X8687878Y-16894734D02*
X8687878Y-16694734D01*
X8687878Y-16694734D02*
X8668830Y-16723305D01*
X8668830Y-16723305D02*
X8649783Y-16742353D01*
X8649783Y-16742353D02*
X8630735Y-16751877D01*
X8935497Y-16894734D02*
X8821211Y-16894734D01*
X8878354Y-16894734D02*
X8878354Y-16694734D01*
X8878354Y-16694734D02*
X8859307Y-16723305D01*
X8859307Y-16723305D02*
X8840259Y-16742353D01*
X8840259Y-16742353D02*
X8821211Y-16751877D01*
X9049783Y-16780448D02*
X9030735Y-16770924D01*
X9030735Y-16770924D02*
X9021211Y-16761400D01*
X9021211Y-16761400D02*
X9011688Y-16742353D01*
X9011688Y-16742353D02*
X9011688Y-16732829D01*
X9011688Y-16732829D02*
X9021211Y-16713781D01*
X9021211Y-16713781D02*
X9030735Y-16704258D01*
X9030735Y-16704258D02*
X9049783Y-16694734D01*
X9049783Y-16694734D02*
X9087878Y-16694734D01*
X9087878Y-16694734D02*
X9106926Y-16704258D01*
X9106926Y-16704258D02*
X9116450Y-16713781D01*
X9116450Y-16713781D02*
X9125973Y-16732829D01*
X9125973Y-16732829D02*
X9125973Y-16742353D01*
X9125973Y-16742353D02*
X9116450Y-16761400D01*
X9116450Y-16761400D02*
X9106926Y-16770924D01*
X9106926Y-16770924D02*
X9087878Y-16780448D01*
X9087878Y-16780448D02*
X9049783Y-16780448D01*
X9049783Y-16780448D02*
X9030735Y-16789972D01*
X9030735Y-16789972D02*
X9021211Y-16799496D01*
X9021211Y-16799496D02*
X9011688Y-16818543D01*
X9011688Y-16818543D02*
X9011688Y-16856639D01*
X9011688Y-16856639D02*
X9021211Y-16875686D01*
X9021211Y-16875686D02*
X9030735Y-16885210D01*
X9030735Y-16885210D02*
X9049783Y-16894734D01*
X9049783Y-16894734D02*
X9087878Y-16894734D01*
X9087878Y-16894734D02*
X9106926Y-16885210D01*
X9106926Y-16885210D02*
X9116450Y-16875686D01*
X9116450Y-16875686D02*
X9125973Y-16856639D01*
X9125973Y-16856639D02*
X9125973Y-16818543D01*
X9125973Y-16818543D02*
X9116450Y-16799496D01*
X9116450Y-16799496D02*
X9106926Y-16789972D01*
X9106926Y-16789972D02*
X9087878Y-16780448D01*
X9202164Y-16694734D02*
X9202164Y-16732829D01*
X9278354Y-16694734D02*
X9278354Y-16732829D01*
X9573593Y-16970924D02*
X9564069Y-16961400D01*
X9564069Y-16961400D02*
X9545021Y-16932829D01*
X9545021Y-16932829D02*
X9535497Y-16913781D01*
X9535497Y-16913781D02*
X9525973Y-16885210D01*
X9525973Y-16885210D02*
X9516450Y-16837591D01*
X9516450Y-16837591D02*
X9516450Y-16799496D01*
X9516450Y-16799496D02*
X9525973Y-16751877D01*
X9525973Y-16751877D02*
X9535497Y-16723305D01*
X9535497Y-16723305D02*
X9545021Y-16704258D01*
X9545021Y-16704258D02*
X9564069Y-16675686D01*
X9564069Y-16675686D02*
X9573593Y-16666162D01*
X9754545Y-16894734D02*
X9640259Y-16894734D01*
X9697402Y-16894734D02*
X9697402Y-16694734D01*
X9697402Y-16694734D02*
X9678354Y-16723305D01*
X9678354Y-16723305D02*
X9659307Y-16742353D01*
X9659307Y-16742353D02*
X9640259Y-16751877D01*
X9830735Y-16713781D02*
X9840259Y-16704258D01*
X9840259Y-16704258D02*
X9859307Y-16694734D01*
X9859307Y-16694734D02*
X9906926Y-16694734D01*
X9906926Y-16694734D02*
X9925973Y-16704258D01*
X9925973Y-16704258D02*
X9935497Y-16713781D01*
X9935497Y-16713781D02*
X9945021Y-16732829D01*
X9945021Y-16732829D02*
X9945021Y-16751877D01*
X9945021Y-16751877D02*
X9935497Y-16780448D01*
X9935497Y-16780448D02*
X9821212Y-16894734D01*
X9821212Y-16894734D02*
X9945021Y-16894734D01*
X10183116Y-16894734D02*
X10183116Y-16694734D01*
X10268831Y-16894734D02*
X10268831Y-16789972D01*
X10268831Y-16789972D02*
X10259307Y-16770924D01*
X10259307Y-16770924D02*
X10240259Y-16761400D01*
X10240259Y-16761400D02*
X10211688Y-16761400D01*
X10211688Y-16761400D02*
X10192640Y-16770924D01*
X10192640Y-16770924D02*
X10183116Y-16780448D01*
X10392640Y-16894734D02*
X10373593Y-16885210D01*
X10373593Y-16885210D02*
X10364069Y-16875686D01*
X10364069Y-16875686D02*
X10354545Y-16856639D01*
X10354545Y-16856639D02*
X10354545Y-16799496D01*
X10354545Y-16799496D02*
X10364069Y-16780448D01*
X10364069Y-16780448D02*
X10373593Y-16770924D01*
X10373593Y-16770924D02*
X10392640Y-16761400D01*
X10392640Y-16761400D02*
X10421212Y-16761400D01*
X10421212Y-16761400D02*
X10440259Y-16770924D01*
X10440259Y-16770924D02*
X10449783Y-16780448D01*
X10449783Y-16780448D02*
X10459307Y-16799496D01*
X10459307Y-16799496D02*
X10459307Y-16856639D01*
X10459307Y-16856639D02*
X10449783Y-16875686D01*
X10449783Y-16875686D02*
X10440259Y-16885210D01*
X10440259Y-16885210D02*
X10421212Y-16894734D01*
X10421212Y-16894734D02*
X10392640Y-16894734D01*
X10573593Y-16894734D02*
X10554545Y-16885210D01*
X10554545Y-16885210D02*
X10545021Y-16866162D01*
X10545021Y-16866162D02*
X10545021Y-16694734D01*
X10725974Y-16885210D02*
X10706926Y-16894734D01*
X10706926Y-16894734D02*
X10668831Y-16894734D01*
X10668831Y-16894734D02*
X10649783Y-16885210D01*
X10649783Y-16885210D02*
X10640259Y-16866162D01*
X10640259Y-16866162D02*
X10640259Y-16789972D01*
X10640259Y-16789972D02*
X10649783Y-16770924D01*
X10649783Y-16770924D02*
X10668831Y-16761400D01*
X10668831Y-16761400D02*
X10706926Y-16761400D01*
X10706926Y-16761400D02*
X10725974Y-16770924D01*
X10725974Y-16770924D02*
X10735497Y-16789972D01*
X10735497Y-16789972D02*
X10735497Y-16809020D01*
X10735497Y-16809020D02*
X10640259Y-16828067D01*
X10811688Y-16885210D02*
X10830735Y-16894734D01*
X10830735Y-16894734D02*
X10868831Y-16894734D01*
X10868831Y-16894734D02*
X10887878Y-16885210D01*
X10887878Y-16885210D02*
X10897402Y-16866162D01*
X10897402Y-16866162D02*
X10897402Y-16856639D01*
X10897402Y-16856639D02*
X10887878Y-16837591D01*
X10887878Y-16837591D02*
X10868831Y-16828067D01*
X10868831Y-16828067D02*
X10840259Y-16828067D01*
X10840259Y-16828067D02*
X10821212Y-16818543D01*
X10821212Y-16818543D02*
X10811688Y-16799496D01*
X10811688Y-16799496D02*
X10811688Y-16789972D01*
X10811688Y-16789972D02*
X10821212Y-16770924D01*
X10821212Y-16770924D02*
X10840259Y-16761400D01*
X10840259Y-16761400D02*
X10868831Y-16761400D01*
X10868831Y-16761400D02*
X10887878Y-16770924D01*
X10964069Y-16970924D02*
X10973593Y-16961400D01*
X10973593Y-16961400D02*
X10992640Y-16932829D01*
X10992640Y-16932829D02*
X11002164Y-16913781D01*
X11002164Y-16913781D02*
X11011688Y-16885210D01*
X11011688Y-16885210D02*
X11021212Y-16837591D01*
X11021212Y-16837591D02*
X11021212Y-16799496D01*
X11021212Y-16799496D02*
X11011688Y-16751877D01*
X11011688Y-16751877D02*
X11002164Y-16723305D01*
X11002164Y-16723305D02*
X10992640Y-16704258D01*
X10992640Y-16704258D02*
X10973593Y-16675686D01*
X10973593Y-16675686D02*
X10964069Y-16666162D01*
D12*
X5998530Y-17067250D02*
G75*
G02*
X5913530Y-17067250I-42500J0D01*
G01*
X5913530Y-17067250D02*
G75*
G02*
X5998530Y-17067250I42500J0D01*
G01*
D11*
X6297402Y-16958734D02*
X6316449Y-16958734D01*
X6316449Y-16958734D02*
X6335497Y-16968258D01*
X6335497Y-16968258D02*
X6345021Y-16977781D01*
X6345021Y-16977781D02*
X6354544Y-16996829D01*
X6354544Y-16996829D02*
X6364068Y-17034924D01*
X6364068Y-17034924D02*
X6364068Y-17082543D01*
X6364068Y-17082543D02*
X6354544Y-17120639D01*
X6354544Y-17120639D02*
X6345021Y-17139686D01*
X6345021Y-17139686D02*
X6335497Y-17149210D01*
X6335497Y-17149210D02*
X6316449Y-17158734D01*
X6316449Y-17158734D02*
X6297402Y-17158734D01*
X6297402Y-17158734D02*
X6278354Y-17149210D01*
X6278354Y-17149210D02*
X6268830Y-17139686D01*
X6268830Y-17139686D02*
X6259306Y-17120639D01*
X6259306Y-17120639D02*
X6249783Y-17082543D01*
X6249783Y-17082543D02*
X6249783Y-17034924D01*
X6249783Y-17034924D02*
X6259306Y-16996829D01*
X6259306Y-16996829D02*
X6268830Y-16977781D01*
X6268830Y-16977781D02*
X6278354Y-16968258D01*
X6278354Y-16968258D02*
X6297402Y-16958734D01*
X6449783Y-17139686D02*
X6459306Y-17149210D01*
X6459306Y-17149210D02*
X6449783Y-17158734D01*
X6449783Y-17158734D02*
X6440259Y-17149210D01*
X6440259Y-17149210D02*
X6449783Y-17139686D01*
X6449783Y-17139686D02*
X6449783Y-17158734D01*
X6573592Y-17044448D02*
X6554544Y-17034924D01*
X6554544Y-17034924D02*
X6545021Y-17025400D01*
X6545021Y-17025400D02*
X6535497Y-17006353D01*
X6535497Y-17006353D02*
X6535497Y-16996829D01*
X6535497Y-16996829D02*
X6545021Y-16977781D01*
X6545021Y-16977781D02*
X6554544Y-16968258D01*
X6554544Y-16968258D02*
X6573592Y-16958734D01*
X6573592Y-16958734D02*
X6611687Y-16958734D01*
X6611687Y-16958734D02*
X6630735Y-16968258D01*
X6630735Y-16968258D02*
X6640259Y-16977781D01*
X6640259Y-16977781D02*
X6649783Y-16996829D01*
X6649783Y-16996829D02*
X6649783Y-17006353D01*
X6649783Y-17006353D02*
X6640259Y-17025400D01*
X6640259Y-17025400D02*
X6630735Y-17034924D01*
X6630735Y-17034924D02*
X6611687Y-17044448D01*
X6611687Y-17044448D02*
X6573592Y-17044448D01*
X6573592Y-17044448D02*
X6554544Y-17053972D01*
X6554544Y-17053972D02*
X6545021Y-17063496D01*
X6545021Y-17063496D02*
X6535497Y-17082543D01*
X6535497Y-17082543D02*
X6535497Y-17120639D01*
X6535497Y-17120639D02*
X6545021Y-17139686D01*
X6545021Y-17139686D02*
X6554544Y-17149210D01*
X6554544Y-17149210D02*
X6573592Y-17158734D01*
X6573592Y-17158734D02*
X6611687Y-17158734D01*
X6611687Y-17158734D02*
X6630735Y-17149210D01*
X6630735Y-17149210D02*
X6640259Y-17139686D01*
X6640259Y-17139686D02*
X6649783Y-17120639D01*
X6649783Y-17120639D02*
X6649783Y-17082543D01*
X6649783Y-17082543D02*
X6640259Y-17063496D01*
X6640259Y-17063496D02*
X6630735Y-17053972D01*
X6630735Y-17053972D02*
X6611687Y-17044448D01*
X6830735Y-16958734D02*
X6735497Y-16958734D01*
X6735497Y-16958734D02*
X6725973Y-17053972D01*
X6725973Y-17053972D02*
X6735497Y-17044448D01*
X6735497Y-17044448D02*
X6754544Y-17034924D01*
X6754544Y-17034924D02*
X6802164Y-17034924D01*
X6802164Y-17034924D02*
X6821211Y-17044448D01*
X6821211Y-17044448D02*
X6830735Y-17053972D01*
X6830735Y-17053972D02*
X6840259Y-17073020D01*
X6840259Y-17073020D02*
X6840259Y-17120639D01*
X6840259Y-17120639D02*
X6830735Y-17139686D01*
X6830735Y-17139686D02*
X6821211Y-17149210D01*
X6821211Y-17149210D02*
X6802164Y-17158734D01*
X6802164Y-17158734D02*
X6754544Y-17158734D01*
X6754544Y-17158734D02*
X6735497Y-17149210D01*
X6735497Y-17149210D02*
X6725973Y-17139686D01*
X6964068Y-16958734D02*
X6983116Y-16958734D01*
X6983116Y-16958734D02*
X7002164Y-16968258D01*
X7002164Y-16968258D02*
X7011687Y-16977781D01*
X7011687Y-16977781D02*
X7021211Y-16996829D01*
X7021211Y-16996829D02*
X7030735Y-17034924D01*
X7030735Y-17034924D02*
X7030735Y-17082543D01*
X7030735Y-17082543D02*
X7021211Y-17120639D01*
X7021211Y-17120639D02*
X7011687Y-17139686D01*
X7011687Y-17139686D02*
X7002164Y-17149210D01*
X7002164Y-17149210D02*
X6983116Y-17158734D01*
X6983116Y-17158734D02*
X6964068Y-17158734D01*
X6964068Y-17158734D02*
X6945021Y-17149210D01*
X6945021Y-17149210D02*
X6935497Y-17139686D01*
X6935497Y-17139686D02*
X6925973Y-17120639D01*
X6925973Y-17120639D02*
X6916449Y-17082543D01*
X6916449Y-17082543D02*
X6916449Y-17034924D01*
X6916449Y-17034924D02*
X6925973Y-16996829D01*
X6925973Y-16996829D02*
X6935497Y-16977781D01*
X6935497Y-16977781D02*
X6945021Y-16968258D01*
X6945021Y-16968258D02*
X6964068Y-16958734D01*
X7116449Y-17158734D02*
X7116449Y-17025400D01*
X7116449Y-17044448D02*
X7125973Y-17034924D01*
X7125973Y-17034924D02*
X7145021Y-17025400D01*
X7145021Y-17025400D02*
X7173592Y-17025400D01*
X7173592Y-17025400D02*
X7192640Y-17034924D01*
X7192640Y-17034924D02*
X7202164Y-17053972D01*
X7202164Y-17053972D02*
X7202164Y-17158734D01*
X7202164Y-17053972D02*
X7211687Y-17034924D01*
X7211687Y-17034924D02*
X7230735Y-17025400D01*
X7230735Y-17025400D02*
X7259306Y-17025400D01*
X7259306Y-17025400D02*
X7278354Y-17034924D01*
X7278354Y-17034924D02*
X7287878Y-17053972D01*
X7287878Y-17053972D02*
X7287878Y-17158734D01*
X7383116Y-17158734D02*
X7383116Y-17025400D01*
X7383116Y-17044448D02*
X7392640Y-17034924D01*
X7392640Y-17034924D02*
X7411687Y-17025400D01*
X7411687Y-17025400D02*
X7440259Y-17025400D01*
X7440259Y-17025400D02*
X7459306Y-17034924D01*
X7459306Y-17034924D02*
X7468830Y-17053972D01*
X7468830Y-17053972D02*
X7468830Y-17158734D01*
X7468830Y-17053972D02*
X7478354Y-17034924D01*
X7478354Y-17034924D02*
X7497402Y-17025400D01*
X7497402Y-17025400D02*
X7525973Y-17025400D01*
X7525973Y-17025400D02*
X7545021Y-17034924D01*
X7545021Y-17034924D02*
X7554545Y-17053972D01*
X7554545Y-17053972D02*
X7554545Y-17158734D01*
X7945021Y-16949210D02*
X7773592Y-17206353D01*
X8202164Y-16958734D02*
X8221211Y-16958734D01*
X8221211Y-16958734D02*
X8240259Y-16968258D01*
X8240259Y-16968258D02*
X8249783Y-16977781D01*
X8249783Y-16977781D02*
X8259307Y-16996829D01*
X8259307Y-16996829D02*
X8268830Y-17034924D01*
X8268830Y-17034924D02*
X8268830Y-17082543D01*
X8268830Y-17082543D02*
X8259307Y-17120639D01*
X8259307Y-17120639D02*
X8249783Y-17139686D01*
X8249783Y-17139686D02*
X8240259Y-17149210D01*
X8240259Y-17149210D02*
X8221211Y-17158734D01*
X8221211Y-17158734D02*
X8202164Y-17158734D01*
X8202164Y-17158734D02*
X8183116Y-17149210D01*
X8183116Y-17149210D02*
X8173592Y-17139686D01*
X8173592Y-17139686D02*
X8164068Y-17120639D01*
X8164068Y-17120639D02*
X8154545Y-17082543D01*
X8154545Y-17082543D02*
X8154545Y-17034924D01*
X8154545Y-17034924D02*
X8164068Y-16996829D01*
X8164068Y-16996829D02*
X8173592Y-16977781D01*
X8173592Y-16977781D02*
X8183116Y-16968258D01*
X8183116Y-16968258D02*
X8202164Y-16958734D01*
X8354545Y-17139686D02*
X8364068Y-17149210D01*
X8364068Y-17149210D02*
X8354545Y-17158734D01*
X8354545Y-17158734D02*
X8345021Y-17149210D01*
X8345021Y-17149210D02*
X8354545Y-17139686D01*
X8354545Y-17139686D02*
X8354545Y-17158734D01*
X8487878Y-16958734D02*
X8506926Y-16958734D01*
X8506926Y-16958734D02*
X8525973Y-16968258D01*
X8525973Y-16968258D02*
X8535497Y-16977781D01*
X8535497Y-16977781D02*
X8545021Y-16996829D01*
X8545021Y-16996829D02*
X8554545Y-17034924D01*
X8554545Y-17034924D02*
X8554545Y-17082543D01*
X8554545Y-17082543D02*
X8545021Y-17120639D01*
X8545021Y-17120639D02*
X8535497Y-17139686D01*
X8535497Y-17139686D02*
X8525973Y-17149210D01*
X8525973Y-17149210D02*
X8506926Y-17158734D01*
X8506926Y-17158734D02*
X8487878Y-17158734D01*
X8487878Y-17158734D02*
X8468830Y-17149210D01*
X8468830Y-17149210D02*
X8459307Y-17139686D01*
X8459307Y-17139686D02*
X8449783Y-17120639D01*
X8449783Y-17120639D02*
X8440259Y-17082543D01*
X8440259Y-17082543D02*
X8440259Y-17034924D01*
X8440259Y-17034924D02*
X8449783Y-16996829D01*
X8449783Y-16996829D02*
X8459307Y-16977781D01*
X8459307Y-16977781D02*
X8468830Y-16968258D01*
X8468830Y-16968258D02*
X8487878Y-16958734D01*
X8621211Y-16958734D02*
X8745021Y-16958734D01*
X8745021Y-16958734D02*
X8678354Y-17034924D01*
X8678354Y-17034924D02*
X8706926Y-17034924D01*
X8706926Y-17034924D02*
X8725973Y-17044448D01*
X8725973Y-17044448D02*
X8735497Y-17053972D01*
X8735497Y-17053972D02*
X8745021Y-17073020D01*
X8745021Y-17073020D02*
X8745021Y-17120639D01*
X8745021Y-17120639D02*
X8735497Y-17139686D01*
X8735497Y-17139686D02*
X8725973Y-17149210D01*
X8725973Y-17149210D02*
X8706926Y-17158734D01*
X8706926Y-17158734D02*
X8649783Y-17158734D01*
X8649783Y-17158734D02*
X8630735Y-17149210D01*
X8630735Y-17149210D02*
X8621211Y-17139686D01*
X8811688Y-16958734D02*
X8935497Y-16958734D01*
X8935497Y-16958734D02*
X8868830Y-17034924D01*
X8868830Y-17034924D02*
X8897402Y-17034924D01*
X8897402Y-17034924D02*
X8916450Y-17044448D01*
X8916450Y-17044448D02*
X8925973Y-17053972D01*
X8925973Y-17053972D02*
X8935497Y-17073020D01*
X8935497Y-17073020D02*
X8935497Y-17120639D01*
X8935497Y-17120639D02*
X8925973Y-17139686D01*
X8925973Y-17139686D02*
X8916450Y-17149210D01*
X8916450Y-17149210D02*
X8897402Y-17158734D01*
X8897402Y-17158734D02*
X8840259Y-17158734D01*
X8840259Y-17158734D02*
X8821211Y-17149210D01*
X8821211Y-17149210D02*
X8811688Y-17139686D01*
X9116450Y-16958734D02*
X9021211Y-16958734D01*
X9021211Y-16958734D02*
X9011688Y-17053972D01*
X9011688Y-17053972D02*
X9021211Y-17044448D01*
X9021211Y-17044448D02*
X9040259Y-17034924D01*
X9040259Y-17034924D02*
X9087878Y-17034924D01*
X9087878Y-17034924D02*
X9106926Y-17044448D01*
X9106926Y-17044448D02*
X9116450Y-17053972D01*
X9116450Y-17053972D02*
X9125973Y-17073020D01*
X9125973Y-17073020D02*
X9125973Y-17120639D01*
X9125973Y-17120639D02*
X9116450Y-17139686D01*
X9116450Y-17139686D02*
X9106926Y-17149210D01*
X9106926Y-17149210D02*
X9087878Y-17158734D01*
X9087878Y-17158734D02*
X9040259Y-17158734D01*
X9040259Y-17158734D02*
X9021211Y-17149210D01*
X9021211Y-17149210D02*
X9011688Y-17139686D01*
X9202164Y-16958734D02*
X9202164Y-16996829D01*
X9278354Y-16958734D02*
X9278354Y-16996829D01*
X9573593Y-17234924D02*
X9564069Y-17225400D01*
X9564069Y-17225400D02*
X9545021Y-17196829D01*
X9545021Y-17196829D02*
X9535497Y-17177781D01*
X9535497Y-17177781D02*
X9525973Y-17149210D01*
X9525973Y-17149210D02*
X9516450Y-17101591D01*
X9516450Y-17101591D02*
X9516450Y-17063496D01*
X9516450Y-17063496D02*
X9525973Y-17015877D01*
X9525973Y-17015877D02*
X9535497Y-16987305D01*
X9535497Y-16987305D02*
X9545021Y-16968258D01*
X9545021Y-16968258D02*
X9564069Y-16939686D01*
X9564069Y-16939686D02*
X9573593Y-16930162D01*
X9687878Y-16958734D02*
X9706926Y-16958734D01*
X9706926Y-16958734D02*
X9725973Y-16968258D01*
X9725973Y-16968258D02*
X9735497Y-16977781D01*
X9735497Y-16977781D02*
X9745021Y-16996829D01*
X9745021Y-16996829D02*
X9754545Y-17034924D01*
X9754545Y-17034924D02*
X9754545Y-17082543D01*
X9754545Y-17082543D02*
X9745021Y-17120639D01*
X9745021Y-17120639D02*
X9735497Y-17139686D01*
X9735497Y-17139686D02*
X9725973Y-17149210D01*
X9725973Y-17149210D02*
X9706926Y-17158734D01*
X9706926Y-17158734D02*
X9687878Y-17158734D01*
X9687878Y-17158734D02*
X9668831Y-17149210D01*
X9668831Y-17149210D02*
X9659307Y-17139686D01*
X9659307Y-17139686D02*
X9649783Y-17120639D01*
X9649783Y-17120639D02*
X9640259Y-17082543D01*
X9640259Y-17082543D02*
X9640259Y-17034924D01*
X9640259Y-17034924D02*
X9649783Y-16996829D01*
X9649783Y-16996829D02*
X9659307Y-16977781D01*
X9659307Y-16977781D02*
X9668831Y-16968258D01*
X9668831Y-16968258D02*
X9687878Y-16958734D01*
X9992640Y-17158734D02*
X9992640Y-16958734D01*
X10078354Y-17158734D02*
X10078354Y-17053972D01*
X10078354Y-17053972D02*
X10068831Y-17034924D01*
X10068831Y-17034924D02*
X10049783Y-17025400D01*
X10049783Y-17025400D02*
X10021212Y-17025400D01*
X10021212Y-17025400D02*
X10002164Y-17034924D01*
X10002164Y-17034924D02*
X9992640Y-17044448D01*
X10202164Y-17158734D02*
X10183116Y-17149210D01*
X10183116Y-17149210D02*
X10173593Y-17139686D01*
X10173593Y-17139686D02*
X10164069Y-17120639D01*
X10164069Y-17120639D02*
X10164069Y-17063496D01*
X10164069Y-17063496D02*
X10173593Y-17044448D01*
X10173593Y-17044448D02*
X10183116Y-17034924D01*
X10183116Y-17034924D02*
X10202164Y-17025400D01*
X10202164Y-17025400D02*
X10230735Y-17025400D01*
X10230735Y-17025400D02*
X10249783Y-17034924D01*
X10249783Y-17034924D02*
X10259307Y-17044448D01*
X10259307Y-17044448D02*
X10268831Y-17063496D01*
X10268831Y-17063496D02*
X10268831Y-17120639D01*
X10268831Y-17120639D02*
X10259307Y-17139686D01*
X10259307Y-17139686D02*
X10249783Y-17149210D01*
X10249783Y-17149210D02*
X10230735Y-17158734D01*
X10230735Y-17158734D02*
X10202164Y-17158734D01*
X10383116Y-17158734D02*
X10364069Y-17149210D01*
X10364069Y-17149210D02*
X10354545Y-17130162D01*
X10354545Y-17130162D02*
X10354545Y-16958734D01*
X10535497Y-17149210D02*
X10516450Y-17158734D01*
X10516450Y-17158734D02*
X10478354Y-17158734D01*
X10478354Y-17158734D02*
X10459307Y-17149210D01*
X10459307Y-17149210D02*
X10449783Y-17130162D01*
X10449783Y-17130162D02*
X10449783Y-17053972D01*
X10449783Y-17053972D02*
X10459307Y-17034924D01*
X10459307Y-17034924D02*
X10478354Y-17025400D01*
X10478354Y-17025400D02*
X10516450Y-17025400D01*
X10516450Y-17025400D02*
X10535497Y-17034924D01*
X10535497Y-17034924D02*
X10545021Y-17053972D01*
X10545021Y-17053972D02*
X10545021Y-17073020D01*
X10545021Y-17073020D02*
X10449783Y-17092067D01*
X10621212Y-17149210D02*
X10640259Y-17158734D01*
X10640259Y-17158734D02*
X10678354Y-17158734D01*
X10678354Y-17158734D02*
X10697402Y-17149210D01*
X10697402Y-17149210D02*
X10706926Y-17130162D01*
X10706926Y-17130162D02*
X10706926Y-17120639D01*
X10706926Y-17120639D02*
X10697402Y-17101591D01*
X10697402Y-17101591D02*
X10678354Y-17092067D01*
X10678354Y-17092067D02*
X10649783Y-17092067D01*
X10649783Y-17092067D02*
X10630735Y-17082543D01*
X10630735Y-17082543D02*
X10621212Y-17063496D01*
X10621212Y-17063496D02*
X10621212Y-17053972D01*
X10621212Y-17053972D02*
X10630735Y-17034924D01*
X10630735Y-17034924D02*
X10649783Y-17025400D01*
X10649783Y-17025400D02*
X10678354Y-17025400D01*
X10678354Y-17025400D02*
X10697402Y-17034924D01*
X10945021Y-17082543D02*
X11097402Y-17082543D01*
X11021212Y-17158734D02*
X11021212Y-17006353D01*
X11430735Y-17025400D02*
X11430735Y-17158734D01*
X11383116Y-16949210D02*
X11335497Y-17092067D01*
X11335497Y-17092067D02*
X11459307Y-17092067D01*
X11678355Y-17149210D02*
X11697402Y-17158734D01*
X11697402Y-17158734D02*
X11735497Y-17158734D01*
X11735497Y-17158734D02*
X11754545Y-17149210D01*
X11754545Y-17149210D02*
X11764069Y-17130162D01*
X11764069Y-17130162D02*
X11764069Y-17120639D01*
X11764069Y-17120639D02*
X11754545Y-17101591D01*
X11754545Y-17101591D02*
X11735497Y-17092067D01*
X11735497Y-17092067D02*
X11706926Y-17092067D01*
X11706926Y-17092067D02*
X11687878Y-17082543D01*
X11687878Y-17082543D02*
X11678355Y-17063496D01*
X11678355Y-17063496D02*
X11678355Y-17053972D01*
X11678355Y-17053972D02*
X11687878Y-17034924D01*
X11687878Y-17034924D02*
X11706926Y-17025400D01*
X11706926Y-17025400D02*
X11735497Y-17025400D01*
X11735497Y-17025400D02*
X11754545Y-17034924D01*
X11878355Y-17158734D02*
X11859307Y-17149210D01*
X11859307Y-17149210D02*
X11849783Y-17130162D01*
X11849783Y-17130162D02*
X11849783Y-16958734D01*
X11983116Y-17158734D02*
X11964069Y-17149210D01*
X11964069Y-17149210D02*
X11954545Y-17139686D01*
X11954545Y-17139686D02*
X11945021Y-17120639D01*
X11945021Y-17120639D02*
X11945021Y-17063496D01*
X11945021Y-17063496D02*
X11954545Y-17044448D01*
X11954545Y-17044448D02*
X11964069Y-17034924D01*
X11964069Y-17034924D02*
X11983116Y-17025400D01*
X11983116Y-17025400D02*
X12011688Y-17025400D01*
X12011688Y-17025400D02*
X12030736Y-17034924D01*
X12030736Y-17034924D02*
X12040259Y-17044448D01*
X12040259Y-17044448D02*
X12049783Y-17063496D01*
X12049783Y-17063496D02*
X12049783Y-17120639D01*
X12049783Y-17120639D02*
X12040259Y-17139686D01*
X12040259Y-17139686D02*
X12030736Y-17149210D01*
X12030736Y-17149210D02*
X12011688Y-17158734D01*
X12011688Y-17158734D02*
X11983116Y-17158734D01*
X12106926Y-17025400D02*
X12183116Y-17025400D01*
X12135497Y-16958734D02*
X12135497Y-17130162D01*
X12135497Y-17130162D02*
X12145021Y-17149210D01*
X12145021Y-17149210D02*
X12164069Y-17158734D01*
X12164069Y-17158734D02*
X12183116Y-17158734D01*
X12240259Y-17149210D02*
X12259307Y-17158734D01*
X12259307Y-17158734D02*
X12297402Y-17158734D01*
X12297402Y-17158734D02*
X12316450Y-17149210D01*
X12316450Y-17149210D02*
X12325974Y-17130162D01*
X12325974Y-17130162D02*
X12325974Y-17120639D01*
X12325974Y-17120639D02*
X12316450Y-17101591D01*
X12316450Y-17101591D02*
X12297402Y-17092067D01*
X12297402Y-17092067D02*
X12268831Y-17092067D01*
X12268831Y-17092067D02*
X12249783Y-17082543D01*
X12249783Y-17082543D02*
X12240259Y-17063496D01*
X12240259Y-17063496D02*
X12240259Y-17053972D01*
X12240259Y-17053972D02*
X12249783Y-17034924D01*
X12249783Y-17034924D02*
X12268831Y-17025400D01*
X12268831Y-17025400D02*
X12297402Y-17025400D01*
X12297402Y-17025400D02*
X12316450Y-17034924D01*
X12392640Y-17234924D02*
X12402164Y-17225400D01*
X12402164Y-17225400D02*
X12421212Y-17196829D01*
X12421212Y-17196829D02*
X12430736Y-17177781D01*
X12430736Y-17177781D02*
X12440259Y-17149210D01*
X12440259Y-17149210D02*
X12449783Y-17101591D01*
X12449783Y-17101591D02*
X12449783Y-17063496D01*
X12449783Y-17063496D02*
X12440259Y-17015877D01*
X12440259Y-17015877D02*
X12430736Y-16987305D01*
X12430736Y-16987305D02*
X12421212Y-16968258D01*
X12421212Y-16968258D02*
X12402164Y-16939686D01*
X12402164Y-16939686D02*
X12392640Y-16930162D01*
M02*
