%TF.GenerationSoftware,KiCad,Pcbnew,9.0.0*%
%TF.CreationDate,2025-12-28T17:48:29+00:00*%
%TF.ProjectId,turing,74757269-6e67-42e6-9b69-6361645f7063,v2.0*%
%TF.SameCoordinates,Original*%
%TF.FileFunction,Legend,Top*%
%TF.FilePolarity,Positive*%
%FSLAX46Y46*%
G04 Gerber Fmt 4.6, Leading zero omitted, Abs format (unit mm)*
G04 Created by KiCad (PCBNEW 9.0.0) date 2025-12-28 17:48:29*
%MOMM*%
%LPD*%
G01*
G04 APERTURE LIST*
%ADD10C,0.100000*%
%ADD11C,0.000000*%
%ADD12C,0.150000*%
%ADD13C,0.127000*%
%TA.AperFunction,Profile*%
%ADD14C,0.050000*%
%TD*%
%ADD15C,0.050000*%
G04 APERTURE END LIST*
D10*
X72390000Y-143497546D02*
X72389995Y-143571267D01*
X72389961Y-143643622D01*
X72389869Y-143714640D01*
X72389792Y-143749657D01*
X72389690Y-143784350D01*
X72389559Y-143818724D01*
X72389394Y-143852781D01*
X72389194Y-143886526D01*
X72388954Y-143919962D01*
X72388670Y-143953093D01*
X72388338Y-143985922D01*
X72387956Y-144018454D01*
X72387520Y-144050691D01*
X72387025Y-144082637D01*
X72386468Y-144114296D01*
X72385846Y-144145672D01*
X72385155Y-144176768D01*
X72384783Y-144192212D01*
X72384392Y-144207588D01*
X72383981Y-144222896D01*
X72383552Y-144238135D01*
X72383102Y-144253308D01*
X72382632Y-144268414D01*
X72382141Y-144283454D01*
X72381628Y-144298427D01*
X72381094Y-144313336D01*
X72380538Y-144328179D01*
X72379959Y-144342958D01*
X72379356Y-144357673D01*
X72378730Y-144372324D01*
X72378080Y-144386912D01*
X72377406Y-144401438D01*
X72376706Y-144415901D01*
X72375981Y-144430302D01*
X72375230Y-144444642D01*
X72374453Y-144458922D01*
X72373649Y-144473141D01*
X72372818Y-144487299D01*
X72371959Y-144501399D01*
X72371072Y-144515439D01*
X72370156Y-144529421D01*
X72369211Y-144543345D01*
X72368237Y-144557211D01*
X72367233Y-144571019D01*
X72366198Y-144584771D01*
X72365133Y-144598467D01*
X72364036Y-144612107D01*
X72362907Y-144625691D01*
X72361746Y-144639220D01*
X72360552Y-144652695D01*
X72359325Y-144666116D01*
X72358065Y-144679484D01*
X72356770Y-144692798D01*
X72355441Y-144706059D01*
X72354077Y-144719268D01*
X72352678Y-144732426D01*
X72351243Y-144745532D01*
X72349771Y-144758587D01*
X72348263Y-144771592D01*
X72346717Y-144784547D01*
X72345134Y-144797452D01*
X72343512Y-144810308D01*
X72341852Y-144823116D01*
X72340153Y-144835876D01*
X72338414Y-144848588D01*
X72336635Y-144861252D01*
X72334816Y-144873870D01*
X72332956Y-144886442D01*
X72331055Y-144898967D01*
X72329112Y-144911447D01*
X72327127Y-144923883D01*
X72325099Y-144936274D01*
X72323027Y-144948620D01*
X72320913Y-144960923D01*
X72318754Y-144973183D01*
X72316550Y-144985401D01*
X72314302Y-144997576D01*
X72312008Y-145009709D01*
X72309669Y-145021801D01*
X72307283Y-145033852D01*
X72304850Y-145045862D01*
X72302370Y-145057833D01*
X72299843Y-145069764D01*
X72297267Y-145081656D01*
X72294642Y-145093510D01*
X72291969Y-145105325D01*
X72289246Y-145117103D01*
X72286473Y-145128843D01*
X72283650Y-145140546D01*
X72280776Y-145152214D01*
X72277850Y-145163845D01*
X72274873Y-145175441D01*
X72271843Y-145187002D01*
X72268761Y-145198528D01*
X72265626Y-145210021D01*
X72262437Y-145221480D01*
X72259194Y-145232905D01*
X72255897Y-145244298D01*
X72252544Y-145255659D01*
X72249136Y-145266988D01*
X72245673Y-145278285D01*
X72242153Y-145289552D01*
X72238576Y-145300788D01*
X72234942Y-145311994D01*
X72231250Y-145323171D01*
X72227500Y-145334319D01*
X72223692Y-145345438D01*
X72219824Y-145356529D01*
X72215897Y-145367592D01*
X72211910Y-145378628D01*
X72207863Y-145389637D01*
X72203755Y-145400620D01*
X72199585Y-145411576D01*
X72195354Y-145422508D01*
X72191060Y-145433414D01*
X72186704Y-145444296D01*
X72182285Y-145455154D01*
X72177802Y-145465988D01*
X72173255Y-145476800D01*
X72168644Y-145487588D01*
X72163967Y-145498354D01*
X72159225Y-145509098D01*
X72154418Y-145519821D01*
X72149544Y-145530524D01*
X72144603Y-145541205D01*
X72139595Y-145551867D01*
X72134520Y-145562509D01*
X72129376Y-145573132D01*
X72124164Y-145583736D01*
X72118882Y-145594323D01*
X72113531Y-145604891D01*
X72108110Y-145615443D01*
X72102619Y-145625977D01*
X72097057Y-145636495D01*
X72091424Y-145646998D01*
X72085719Y-145657484D01*
X72079941Y-145667956D01*
X72074091Y-145678413D01*
X72068168Y-145688857D01*
X72062172Y-145699286D01*
X72056101Y-145709703D01*
X72049956Y-145720106D01*
X72043735Y-145730498D01*
X72037440Y-145740877D01*
X72031068Y-145751246D01*
X72024621Y-145761603D01*
X72018096Y-145771950D01*
X72011495Y-145782287D01*
X72004815Y-145792614D01*
X71998058Y-145802933D01*
X71991222Y-145813242D01*
X71984307Y-145823544D01*
X71977312Y-145833838D01*
X71970238Y-145844124D01*
X71963083Y-145854404D01*
X71955847Y-145864677D01*
X71948530Y-145874944D01*
X71941131Y-145885206D01*
X71933650Y-145895463D01*
X71926086Y-145905716D01*
X71918440Y-145915964D01*
X71910709Y-145926209D01*
X71902895Y-145936451D01*
X71894996Y-145946689D01*
X71887012Y-145956926D01*
X71878943Y-145967161D01*
X71870788Y-145977394D01*
X71862547Y-145987626D01*
X71854219Y-145997859D01*
X71845803Y-146008091D01*
X71837301Y-146018323D01*
X71828710Y-146028556D01*
X71820030Y-146038791D01*
X71811261Y-146049028D01*
X71802403Y-146059266D01*
X71793455Y-146069508D01*
X71784417Y-146079753D01*
X71775288Y-146090001D01*
X71766067Y-146100254D01*
X71756755Y-146110511D01*
X71747350Y-146120773D01*
X71737853Y-146131040D01*
X71728263Y-146141313D01*
X71718579Y-146151593D01*
X71708801Y-146161879D01*
X71698929Y-146172173D01*
X71688962Y-146182475D01*
X71678899Y-146192784D01*
X71668741Y-146203103D01*
X71658486Y-146213430D01*
X71648135Y-146223767D01*
X71637686Y-146234114D01*
X71627140Y-146244471D01*
X71616495Y-146254840D01*
X71605752Y-146265219D01*
X71594910Y-146275611D01*
X71583969Y-146286014D01*
X71572927Y-146296431D01*
X71561786Y-146306860D01*
X71550543Y-146317304D01*
X71539199Y-146327761D01*
X71527754Y-146338233D01*
X71516206Y-146348719D01*
X71504555Y-146359222D01*
X71492802Y-146369740D01*
X71480945Y-146380274D01*
X71468984Y-146390826D01*
X71456918Y-146401394D01*
X71444748Y-146411981D01*
X71432472Y-146422585D01*
X71420090Y-146433208D01*
X71407602Y-146443850D01*
X71395007Y-146454512D01*
X71382306Y-146465193D01*
X71369496Y-146475896D01*
X71356578Y-146486619D01*
X71343552Y-146497363D01*
X71330417Y-146508129D01*
X71317172Y-146518917D01*
X71303818Y-146529729D01*
X71290353Y-146540563D01*
X71276777Y-146551421D01*
X71263090Y-146562303D01*
X71249291Y-146573209D01*
X71235381Y-146584141D01*
X71221357Y-146595097D01*
X71207220Y-146606080D01*
X71192970Y-146617089D01*
X71178606Y-146628125D01*
X71164127Y-146639188D01*
X71149534Y-146650279D01*
X71134825Y-146661398D01*
X71120000Y-146672546D01*
D11*
G36*
X62636400Y-143840200D02*
G01*
X63017400Y-144246600D01*
X63296800Y-144703800D01*
X63449200Y-145237200D01*
X63500000Y-146100800D01*
X63500000Y-146685000D01*
X62992000Y-146253200D01*
X62712600Y-145948400D01*
X62509400Y-145618200D01*
X62382400Y-145338800D01*
X62306200Y-145008600D01*
X62255400Y-144678400D01*
X62230000Y-144195800D01*
X62230000Y-143535400D01*
X62636400Y-143840200D01*
G37*
D10*
X62230000Y-143510000D02*
X62230005Y-143583721D01*
X62230039Y-143656076D01*
X62230131Y-143727094D01*
X62230208Y-143762111D01*
X62230310Y-143796804D01*
X62230441Y-143831178D01*
X62230606Y-143865235D01*
X62230806Y-143898980D01*
X62231046Y-143932416D01*
X62231330Y-143965547D01*
X62231662Y-143998376D01*
X62232044Y-144030908D01*
X62232480Y-144063145D01*
X62232975Y-144095091D01*
X62233532Y-144126750D01*
X62234154Y-144158126D01*
X62234845Y-144189222D01*
X62235217Y-144204666D01*
X62235608Y-144220042D01*
X62236019Y-144235350D01*
X62236448Y-144250589D01*
X62236898Y-144265762D01*
X62237368Y-144280868D01*
X62237859Y-144295908D01*
X62238372Y-144310881D01*
X62238906Y-144325790D01*
X62239462Y-144340633D01*
X62240041Y-144355412D01*
X62240644Y-144370127D01*
X62241270Y-144384778D01*
X62241920Y-144399366D01*
X62242594Y-144413892D01*
X62243294Y-144428355D01*
X62244019Y-144442756D01*
X62244770Y-144457096D01*
X62245547Y-144471376D01*
X62246351Y-144485595D01*
X62247182Y-144499753D01*
X62248041Y-144513853D01*
X62248928Y-144527893D01*
X62249844Y-144541875D01*
X62250789Y-144555799D01*
X62251763Y-144569665D01*
X62252767Y-144583473D01*
X62253802Y-144597225D01*
X62254867Y-144610921D01*
X62255964Y-144624561D01*
X62257093Y-144638145D01*
X62258254Y-144651674D01*
X62259448Y-144665149D01*
X62260675Y-144678570D01*
X62261935Y-144691938D01*
X62263230Y-144705252D01*
X62264559Y-144718513D01*
X62265923Y-144731722D01*
X62267322Y-144744880D01*
X62268757Y-144757986D01*
X62270229Y-144771041D01*
X62271737Y-144784046D01*
X62273283Y-144797001D01*
X62274866Y-144809906D01*
X62276488Y-144822762D01*
X62278148Y-144835570D01*
X62279847Y-144848330D01*
X62281586Y-144861042D01*
X62283365Y-144873706D01*
X62285184Y-144886324D01*
X62287044Y-144898896D01*
X62288945Y-144911421D01*
X62290888Y-144923901D01*
X62292873Y-144936337D01*
X62294901Y-144948728D01*
X62296973Y-144961074D01*
X62299087Y-144973377D01*
X62301246Y-144985637D01*
X62303450Y-144997855D01*
X62305698Y-145010030D01*
X62307992Y-145022163D01*
X62310331Y-145034255D01*
X62312717Y-145046306D01*
X62315150Y-145058316D01*
X62317630Y-145070287D01*
X62320157Y-145082218D01*
X62322733Y-145094110D01*
X62325358Y-145105964D01*
X62328031Y-145117779D01*
X62330754Y-145129557D01*
X62333527Y-145141297D01*
X62336350Y-145153000D01*
X62339224Y-145164668D01*
X62342150Y-145176299D01*
X62345127Y-145187895D01*
X62348157Y-145199456D01*
X62351239Y-145210982D01*
X62354374Y-145222475D01*
X62357563Y-145233934D01*
X62360806Y-145245359D01*
X62364103Y-145256752D01*
X62367456Y-145268113D01*
X62370864Y-145279442D01*
X62374327Y-145290739D01*
X62377847Y-145302006D01*
X62381424Y-145313242D01*
X62385058Y-145324448D01*
X62388750Y-145335625D01*
X62392500Y-145346773D01*
X62396308Y-145357892D01*
X62400176Y-145368983D01*
X62404103Y-145380046D01*
X62408090Y-145391082D01*
X62412137Y-145402091D01*
X62416245Y-145413074D01*
X62420415Y-145424030D01*
X62424646Y-145434962D01*
X62428940Y-145445868D01*
X62433296Y-145456750D01*
X62437715Y-145467608D01*
X62442198Y-145478442D01*
X62446745Y-145489254D01*
X62451356Y-145500042D01*
X62456033Y-145510808D01*
X62460775Y-145521552D01*
X62465582Y-145532275D01*
X62470456Y-145542978D01*
X62475397Y-145553659D01*
X62480405Y-145564321D01*
X62485480Y-145574963D01*
X62490624Y-145585586D01*
X62495836Y-145596190D01*
X62501118Y-145606777D01*
X62506469Y-145617345D01*
X62511890Y-145627897D01*
X62517381Y-145638431D01*
X62522943Y-145648949D01*
X62528576Y-145659452D01*
X62534281Y-145669938D01*
X62540059Y-145680410D01*
X62545909Y-145690867D01*
X62551832Y-145701311D01*
X62557828Y-145711740D01*
X62563899Y-145722157D01*
X62570044Y-145732560D01*
X62576265Y-145742952D01*
X62582560Y-145753331D01*
X62588932Y-145763700D01*
X62595379Y-145774057D01*
X62601904Y-145784404D01*
X62608505Y-145794741D01*
X62615185Y-145805068D01*
X62621942Y-145815387D01*
X62628778Y-145825696D01*
X62635693Y-145835998D01*
X62642688Y-145846292D01*
X62649762Y-145856578D01*
X62656917Y-145866858D01*
X62664153Y-145877131D01*
X62671470Y-145887398D01*
X62678869Y-145897660D01*
X62686350Y-145907917D01*
X62693914Y-145918170D01*
X62701560Y-145928418D01*
X62709291Y-145938663D01*
X62717105Y-145948905D01*
X62725004Y-145959143D01*
X62732988Y-145969380D01*
X62741057Y-145979615D01*
X62749212Y-145989848D01*
X62757453Y-146000080D01*
X62765781Y-146010313D01*
X62774197Y-146020545D01*
X62782699Y-146030777D01*
X62791290Y-146041010D01*
X62799970Y-146051245D01*
X62808739Y-146061482D01*
X62817597Y-146071720D01*
X62826545Y-146081962D01*
X62835583Y-146092207D01*
X62844712Y-146102455D01*
X62853933Y-146112708D01*
X62863245Y-146122965D01*
X62872650Y-146133227D01*
X62882147Y-146143494D01*
X62891737Y-146153767D01*
X62901421Y-146164047D01*
X62911199Y-146174333D01*
X62921071Y-146184627D01*
X62931038Y-146194929D01*
X62941101Y-146205238D01*
X62951259Y-146215557D01*
X62961514Y-146225884D01*
X62971865Y-146236221D01*
X62982314Y-146246568D01*
X62992860Y-146256925D01*
X63003505Y-146267294D01*
X63014248Y-146277673D01*
X63025090Y-146288065D01*
X63036031Y-146298468D01*
X63047073Y-146308885D01*
X63058214Y-146319314D01*
X63069457Y-146329758D01*
X63080801Y-146340215D01*
X63092246Y-146350687D01*
X63103794Y-146361173D01*
X63115445Y-146371676D01*
X63127198Y-146382194D01*
X63139055Y-146392728D01*
X63151016Y-146403280D01*
X63163082Y-146413848D01*
X63175252Y-146424435D01*
X63187528Y-146435039D01*
X63199910Y-146445662D01*
X63212398Y-146456304D01*
X63224993Y-146466966D01*
X63237694Y-146477647D01*
X63250504Y-146488350D01*
X63263422Y-146499073D01*
X63276448Y-146509817D01*
X63289583Y-146520583D01*
X63302828Y-146531371D01*
X63316182Y-146542183D01*
X63329647Y-146553017D01*
X63343223Y-146563875D01*
X63356910Y-146574757D01*
X63370709Y-146585663D01*
X63384619Y-146596595D01*
X63398643Y-146607551D01*
X63412780Y-146618534D01*
X63427030Y-146629543D01*
X63441394Y-146640579D01*
X63455873Y-146651642D01*
X63470466Y-146662733D01*
X63485175Y-146673852D01*
X63500000Y-146685000D01*
D11*
G36*
X72390000Y-144183346D02*
G01*
X72364600Y-144665946D01*
X72313800Y-144996146D01*
X72237600Y-145326346D01*
X72110600Y-145605746D01*
X71907400Y-145935946D01*
X71628000Y-146240746D01*
X71120000Y-146672546D01*
X71120000Y-146088346D01*
X71170800Y-145224746D01*
X71323200Y-144691346D01*
X71602600Y-144234146D01*
X71983600Y-143827746D01*
X72390000Y-143522946D01*
X72390000Y-144183346D01*
G37*
D10*
X63500000Y-146685000D02*
X63499995Y-146611279D01*
X63499961Y-146538924D01*
X63499869Y-146467906D01*
X63499792Y-146432889D01*
X63499690Y-146398196D01*
X63499559Y-146363822D01*
X63499394Y-146329765D01*
X63499194Y-146296020D01*
X63498954Y-146262584D01*
X63498670Y-146229453D01*
X63498338Y-146196624D01*
X63497956Y-146164092D01*
X63497520Y-146131855D01*
X63497025Y-146099909D01*
X63496468Y-146068250D01*
X63495846Y-146036874D01*
X63495155Y-146005778D01*
X63494783Y-145990334D01*
X63494392Y-145974958D01*
X63493981Y-145959650D01*
X63493552Y-145944411D01*
X63493102Y-145929238D01*
X63492632Y-145914132D01*
X63492141Y-145899092D01*
X63491628Y-145884119D01*
X63491094Y-145869210D01*
X63490538Y-145854367D01*
X63489959Y-145839588D01*
X63489356Y-145824873D01*
X63488730Y-145810222D01*
X63488080Y-145795634D01*
X63487406Y-145781108D01*
X63486706Y-145766645D01*
X63485981Y-145752244D01*
X63485230Y-145737904D01*
X63484453Y-145723624D01*
X63483649Y-145709405D01*
X63482818Y-145695247D01*
X63481959Y-145681147D01*
X63481072Y-145667107D01*
X63480156Y-145653125D01*
X63479211Y-145639201D01*
X63478237Y-145625335D01*
X63477233Y-145611527D01*
X63476198Y-145597775D01*
X63475133Y-145584079D01*
X63474036Y-145570439D01*
X63472907Y-145556855D01*
X63471746Y-145543326D01*
X63470552Y-145529851D01*
X63469325Y-145516430D01*
X63468065Y-145503062D01*
X63466770Y-145489748D01*
X63465441Y-145476487D01*
X63464077Y-145463278D01*
X63462678Y-145450120D01*
X63461243Y-145437014D01*
X63459771Y-145423959D01*
X63458263Y-145410954D01*
X63456717Y-145397999D01*
X63455134Y-145385094D01*
X63453512Y-145372238D01*
X63451852Y-145359430D01*
X63450153Y-145346670D01*
X63448414Y-145333958D01*
X63446635Y-145321294D01*
X63444816Y-145308676D01*
X63442956Y-145296104D01*
X63441055Y-145283579D01*
X63439112Y-145271099D01*
X63437127Y-145258663D01*
X63435099Y-145246272D01*
X63433027Y-145233926D01*
X63430913Y-145221623D01*
X63428754Y-145209363D01*
X63426550Y-145197145D01*
X63424302Y-145184970D01*
X63422008Y-145172837D01*
X63419669Y-145160745D01*
X63417283Y-145148694D01*
X63414850Y-145136684D01*
X63412370Y-145124713D01*
X63409843Y-145112782D01*
X63407267Y-145100890D01*
X63404642Y-145089036D01*
X63401969Y-145077221D01*
X63399246Y-145065443D01*
X63396473Y-145053703D01*
X63393650Y-145042000D01*
X63390776Y-145030332D01*
X63387850Y-145018701D01*
X63384873Y-145007105D01*
X63381843Y-144995544D01*
X63378761Y-144984018D01*
X63375626Y-144972525D01*
X63372437Y-144961066D01*
X63369194Y-144949641D01*
X63365897Y-144938248D01*
X63362544Y-144926887D01*
X63359136Y-144915558D01*
X63355673Y-144904261D01*
X63352153Y-144892994D01*
X63348576Y-144881758D01*
X63344942Y-144870552D01*
X63341250Y-144859375D01*
X63337500Y-144848227D01*
X63333692Y-144837108D01*
X63329824Y-144826017D01*
X63325897Y-144814954D01*
X63321910Y-144803918D01*
X63317863Y-144792909D01*
X63313755Y-144781926D01*
X63309585Y-144770970D01*
X63305354Y-144760038D01*
X63301060Y-144749132D01*
X63296704Y-144738250D01*
X63292285Y-144727392D01*
X63287802Y-144716558D01*
X63283255Y-144705746D01*
X63278644Y-144694958D01*
X63273967Y-144684192D01*
X63269225Y-144673448D01*
X63264418Y-144662725D01*
X63259544Y-144652022D01*
X63254603Y-144641341D01*
X63249595Y-144630679D01*
X63244520Y-144620037D01*
X63239376Y-144609414D01*
X63234164Y-144598810D01*
X63228882Y-144588223D01*
X63223531Y-144577655D01*
X63218110Y-144567103D01*
X63212619Y-144556569D01*
X63207057Y-144546051D01*
X63201424Y-144535548D01*
X63195719Y-144525062D01*
X63189941Y-144514590D01*
X63184091Y-144504133D01*
X63178168Y-144493689D01*
X63172172Y-144483260D01*
X63166101Y-144472843D01*
X63159956Y-144462440D01*
X63153735Y-144452048D01*
X63147440Y-144441669D01*
X63141068Y-144431300D01*
X63134621Y-144420943D01*
X63128096Y-144410596D01*
X63121495Y-144400259D01*
X63114815Y-144389932D01*
X63108058Y-144379613D01*
X63101222Y-144369304D01*
X63094307Y-144359002D01*
X63087312Y-144348708D01*
X63080238Y-144338422D01*
X63073083Y-144328142D01*
X63065847Y-144317869D01*
X63058530Y-144307602D01*
X63051131Y-144297340D01*
X63043650Y-144287083D01*
X63036086Y-144276830D01*
X63028440Y-144266582D01*
X63020709Y-144256337D01*
X63012895Y-144246095D01*
X63004996Y-144235857D01*
X62997012Y-144225620D01*
X62988943Y-144215385D01*
X62980788Y-144205152D01*
X62972547Y-144194920D01*
X62964219Y-144184688D01*
X62955803Y-144174455D01*
X62947301Y-144164223D01*
X62938710Y-144153990D01*
X62930030Y-144143755D01*
X62921261Y-144133518D01*
X62912403Y-144123280D01*
X62903455Y-144113038D01*
X62894417Y-144102793D01*
X62885288Y-144092545D01*
X62876067Y-144082292D01*
X62866755Y-144072035D01*
X62857350Y-144061773D01*
X62847853Y-144051506D01*
X62838263Y-144041233D01*
X62828579Y-144030953D01*
X62818801Y-144020667D01*
X62808929Y-144010373D01*
X62798962Y-144000071D01*
X62788899Y-143989762D01*
X62778741Y-143979443D01*
X62768486Y-143969116D01*
X62758135Y-143958779D01*
X62747686Y-143948432D01*
X62737140Y-143938075D01*
X62726495Y-143927706D01*
X62715752Y-143917327D01*
X62704910Y-143906935D01*
X62693969Y-143896532D01*
X62682927Y-143886115D01*
X62671786Y-143875686D01*
X62660543Y-143865242D01*
X62649199Y-143854785D01*
X62637754Y-143844313D01*
X62626206Y-143833827D01*
X62614555Y-143823324D01*
X62602802Y-143812806D01*
X62590945Y-143802272D01*
X62578984Y-143791720D01*
X62566918Y-143781152D01*
X62554748Y-143770565D01*
X62542472Y-143759961D01*
X62530090Y-143749338D01*
X62517602Y-143738696D01*
X62505007Y-143728034D01*
X62492306Y-143717353D01*
X62479496Y-143706650D01*
X62466578Y-143695927D01*
X62453552Y-143685183D01*
X62440417Y-143674417D01*
X62427172Y-143663629D01*
X62413818Y-143652817D01*
X62400353Y-143641983D01*
X62386777Y-143631125D01*
X62373090Y-143620243D01*
X62359291Y-143609337D01*
X62345381Y-143598405D01*
X62331357Y-143587449D01*
X62317220Y-143576466D01*
X62302970Y-143565457D01*
X62288606Y-143554421D01*
X62274127Y-143543358D01*
X62259534Y-143532267D01*
X62244825Y-143521148D01*
X62230000Y-143510000D01*
X71120000Y-146672546D02*
X71120005Y-146598825D01*
X71120039Y-146526470D01*
X71120131Y-146455452D01*
X71120208Y-146420435D01*
X71120310Y-146385742D01*
X71120441Y-146351368D01*
X71120606Y-146317311D01*
X71120806Y-146283566D01*
X71121046Y-146250130D01*
X71121330Y-146216999D01*
X71121662Y-146184170D01*
X71122044Y-146151638D01*
X71122480Y-146119401D01*
X71122975Y-146087455D01*
X71123532Y-146055796D01*
X71124154Y-146024420D01*
X71124845Y-145993324D01*
X71125217Y-145977880D01*
X71125608Y-145962504D01*
X71126019Y-145947196D01*
X71126448Y-145931957D01*
X71126898Y-145916784D01*
X71127368Y-145901678D01*
X71127859Y-145886638D01*
X71128372Y-145871665D01*
X71128906Y-145856756D01*
X71129462Y-145841913D01*
X71130041Y-145827134D01*
X71130644Y-145812419D01*
X71131270Y-145797768D01*
X71131920Y-145783180D01*
X71132594Y-145768654D01*
X71133294Y-145754191D01*
X71134019Y-145739790D01*
X71134770Y-145725450D01*
X71135547Y-145711170D01*
X71136351Y-145696951D01*
X71137182Y-145682793D01*
X71138041Y-145668693D01*
X71138928Y-145654653D01*
X71139844Y-145640671D01*
X71140789Y-145626747D01*
X71141763Y-145612881D01*
X71142767Y-145599073D01*
X71143802Y-145585321D01*
X71144867Y-145571625D01*
X71145964Y-145557985D01*
X71147093Y-145544401D01*
X71148254Y-145530872D01*
X71149448Y-145517397D01*
X71150675Y-145503976D01*
X71151935Y-145490608D01*
X71153230Y-145477294D01*
X71154559Y-145464033D01*
X71155923Y-145450824D01*
X71157322Y-145437666D01*
X71158757Y-145424560D01*
X71160229Y-145411505D01*
X71161737Y-145398500D01*
X71163283Y-145385545D01*
X71164866Y-145372640D01*
X71166488Y-145359784D01*
X71168148Y-145346976D01*
X71169847Y-145334216D01*
X71171586Y-145321504D01*
X71173365Y-145308840D01*
X71175184Y-145296222D01*
X71177044Y-145283650D01*
X71178945Y-145271125D01*
X71180888Y-145258645D01*
X71182873Y-145246209D01*
X71184901Y-145233818D01*
X71186973Y-145221472D01*
X71189087Y-145209169D01*
X71191246Y-145196909D01*
X71193450Y-145184691D01*
X71195698Y-145172516D01*
X71197992Y-145160383D01*
X71200331Y-145148291D01*
X71202717Y-145136240D01*
X71205150Y-145124230D01*
X71207630Y-145112259D01*
X71210157Y-145100328D01*
X71212733Y-145088436D01*
X71215358Y-145076582D01*
X71218031Y-145064767D01*
X71220754Y-145052989D01*
X71223527Y-145041249D01*
X71226350Y-145029546D01*
X71229224Y-145017878D01*
X71232150Y-145006247D01*
X71235127Y-144994651D01*
X71238157Y-144983090D01*
X71241239Y-144971564D01*
X71244374Y-144960071D01*
X71247563Y-144948612D01*
X71250806Y-144937187D01*
X71254103Y-144925794D01*
X71257456Y-144914433D01*
X71260864Y-144903104D01*
X71264327Y-144891807D01*
X71267847Y-144880540D01*
X71271424Y-144869304D01*
X71275058Y-144858098D01*
X71278750Y-144846921D01*
X71282500Y-144835773D01*
X71286308Y-144824654D01*
X71290176Y-144813563D01*
X71294103Y-144802500D01*
X71298090Y-144791464D01*
X71302137Y-144780455D01*
X71306245Y-144769472D01*
X71310415Y-144758516D01*
X71314646Y-144747584D01*
X71318940Y-144736678D01*
X71323296Y-144725796D01*
X71327715Y-144714938D01*
X71332198Y-144704104D01*
X71336745Y-144693292D01*
X71341356Y-144682504D01*
X71346033Y-144671738D01*
X71350775Y-144660994D01*
X71355582Y-144650271D01*
X71360456Y-144639568D01*
X71365397Y-144628887D01*
X71370405Y-144618225D01*
X71375480Y-144607583D01*
X71380624Y-144596960D01*
X71385836Y-144586356D01*
X71391118Y-144575769D01*
X71396469Y-144565201D01*
X71401890Y-144554649D01*
X71407381Y-144544115D01*
X71412943Y-144533597D01*
X71418576Y-144523094D01*
X71424281Y-144512608D01*
X71430059Y-144502136D01*
X71435909Y-144491679D01*
X71441832Y-144481235D01*
X71447828Y-144470806D01*
X71453899Y-144460389D01*
X71460044Y-144449986D01*
X71466265Y-144439594D01*
X71472560Y-144429215D01*
X71478932Y-144418846D01*
X71485379Y-144408489D01*
X71491904Y-144398142D01*
X71498505Y-144387805D01*
X71505185Y-144377478D01*
X71511942Y-144367159D01*
X71518778Y-144356850D01*
X71525693Y-144346548D01*
X71532688Y-144336254D01*
X71539762Y-144325968D01*
X71546917Y-144315688D01*
X71554153Y-144305415D01*
X71561470Y-144295148D01*
X71568869Y-144284886D01*
X71576350Y-144274629D01*
X71583914Y-144264376D01*
X71591560Y-144254128D01*
X71599291Y-144243883D01*
X71607105Y-144233641D01*
X71615004Y-144223403D01*
X71622988Y-144213166D01*
X71631057Y-144202931D01*
X71639212Y-144192698D01*
X71647453Y-144182466D01*
X71655781Y-144172234D01*
X71664197Y-144162001D01*
X71672699Y-144151769D01*
X71681290Y-144141536D01*
X71689970Y-144131301D01*
X71698739Y-144121064D01*
X71707597Y-144110826D01*
X71716545Y-144100584D01*
X71725583Y-144090339D01*
X71734712Y-144080091D01*
X71743933Y-144069838D01*
X71753245Y-144059581D01*
X71762650Y-144049319D01*
X71772147Y-144039052D01*
X71781737Y-144028779D01*
X71791421Y-144018499D01*
X71801199Y-144008213D01*
X71811071Y-143997919D01*
X71821038Y-143987617D01*
X71831101Y-143977308D01*
X71841259Y-143966989D01*
X71851514Y-143956662D01*
X71861865Y-143946325D01*
X71872314Y-143935978D01*
X71882860Y-143925621D01*
X71893505Y-143915252D01*
X71904248Y-143904873D01*
X71915090Y-143894481D01*
X71926031Y-143884078D01*
X71937073Y-143873661D01*
X71948214Y-143863232D01*
X71959457Y-143852788D01*
X71970801Y-143842331D01*
X71982246Y-143831859D01*
X71993794Y-143821373D01*
X72005445Y-143810870D01*
X72017198Y-143800352D01*
X72029055Y-143789818D01*
X72041016Y-143779266D01*
X72053082Y-143768698D01*
X72065252Y-143758111D01*
X72077528Y-143747507D01*
X72089910Y-143736884D01*
X72102398Y-143726242D01*
X72114993Y-143715580D01*
X72127694Y-143704899D01*
X72140504Y-143694196D01*
X72153422Y-143683473D01*
X72166448Y-143672729D01*
X72179583Y-143661963D01*
X72192828Y-143651175D01*
X72206182Y-143640363D01*
X72219647Y-143629529D01*
X72233223Y-143618671D01*
X72246910Y-143607789D01*
X72260709Y-143596883D01*
X72274619Y-143585951D01*
X72288643Y-143574995D01*
X72302780Y-143564012D01*
X72317030Y-143553003D01*
X72331394Y-143541967D01*
X72345873Y-143530904D01*
X72360466Y-143519813D01*
X72375175Y-143508694D01*
X72390000Y-143497546D01*
D12*
X112048276Y-100678952D02*
X112048276Y-100983714D01*
X112048276Y-100983714D02*
X111408276Y-100983714D01*
X111713038Y-100465619D02*
X111713038Y-100252285D01*
X112048276Y-100160857D02*
X112048276Y-100465619D01*
X112048276Y-100465619D02*
X111408276Y-100465619D01*
X111408276Y-100465619D02*
X111408276Y-100160857D01*
X112048276Y-99886571D02*
X111408276Y-99886571D01*
X111408276Y-99886571D02*
X111408276Y-99734190D01*
X111408276Y-99734190D02*
X111438752Y-99642761D01*
X111438752Y-99642761D02*
X111499704Y-99581809D01*
X111499704Y-99581809D02*
X111560657Y-99551332D01*
X111560657Y-99551332D02*
X111682561Y-99520856D01*
X111682561Y-99520856D02*
X111773990Y-99520856D01*
X111773990Y-99520856D02*
X111895895Y-99551332D01*
X111895895Y-99551332D02*
X111956847Y-99581809D01*
X111956847Y-99581809D02*
X112017800Y-99642761D01*
X112017800Y-99642761D02*
X112048276Y-99734190D01*
X112048276Y-99734190D02*
X112048276Y-99886571D01*
X112048276Y-98911332D02*
X112048276Y-99277047D01*
X112048276Y-99094190D02*
X111408276Y-99094190D01*
X111408276Y-99094190D02*
X111499704Y-99155142D01*
X111499704Y-99155142D02*
X111560657Y-99216094D01*
X111560657Y-99216094D02*
X111591133Y-99277047D01*
X111408276Y-98697999D02*
X111408276Y-98271332D01*
X111408276Y-98271332D02*
X112048276Y-98545618D01*
X66593809Y-126170676D02*
X66289047Y-126170676D01*
X66289047Y-126170676D02*
X66289047Y-125530676D01*
X66807142Y-125835438D02*
X67020476Y-125835438D01*
X67111904Y-126170676D02*
X66807142Y-126170676D01*
X66807142Y-126170676D02*
X66807142Y-125530676D01*
X66807142Y-125530676D02*
X67111904Y-125530676D01*
X67386190Y-126170676D02*
X67386190Y-125530676D01*
X67386190Y-125530676D02*
X67538571Y-125530676D01*
X67538571Y-125530676D02*
X67630000Y-125561152D01*
X67630000Y-125561152D02*
X67690952Y-125622104D01*
X67690952Y-125622104D02*
X67721429Y-125683057D01*
X67721429Y-125683057D02*
X67751905Y-125804961D01*
X67751905Y-125804961D02*
X67751905Y-125896390D01*
X67751905Y-125896390D02*
X67721429Y-126018295D01*
X67721429Y-126018295D02*
X67690952Y-126079247D01*
X67690952Y-126079247D02*
X67630000Y-126140200D01*
X67630000Y-126140200D02*
X67538571Y-126170676D01*
X67538571Y-126170676D02*
X67386190Y-126170676D01*
X68361429Y-126170676D02*
X67995714Y-126170676D01*
X68178571Y-126170676D02*
X68178571Y-125530676D01*
X68178571Y-125530676D02*
X68117619Y-125622104D01*
X68117619Y-125622104D02*
X68056667Y-125683057D01*
X68056667Y-125683057D02*
X67995714Y-125713533D01*
X84373809Y-111794276D02*
X84069047Y-111794276D01*
X84069047Y-111794276D02*
X84069047Y-111154276D01*
X84587142Y-111459038D02*
X84800476Y-111459038D01*
X84891904Y-111794276D02*
X84587142Y-111794276D01*
X84587142Y-111794276D02*
X84587142Y-111154276D01*
X84587142Y-111154276D02*
X84891904Y-111154276D01*
X85166190Y-111794276D02*
X85166190Y-111154276D01*
X85166190Y-111154276D02*
X85318571Y-111154276D01*
X85318571Y-111154276D02*
X85410000Y-111184752D01*
X85410000Y-111184752D02*
X85470952Y-111245704D01*
X85470952Y-111245704D02*
X85501429Y-111306657D01*
X85501429Y-111306657D02*
X85531905Y-111428561D01*
X85531905Y-111428561D02*
X85531905Y-111519990D01*
X85531905Y-111519990D02*
X85501429Y-111641895D01*
X85501429Y-111641895D02*
X85470952Y-111702847D01*
X85470952Y-111702847D02*
X85410000Y-111763800D01*
X85410000Y-111763800D02*
X85318571Y-111794276D01*
X85318571Y-111794276D02*
X85166190Y-111794276D01*
X85745238Y-111154276D02*
X86171905Y-111154276D01*
X86171905Y-111154276D02*
X85897619Y-111794276D01*
X101849047Y-118982476D02*
X101544285Y-118982476D01*
X101544285Y-118982476D02*
X101544285Y-118342476D01*
X102062380Y-118647238D02*
X102275714Y-118647238D01*
X102367142Y-118982476D02*
X102062380Y-118982476D01*
X102062380Y-118982476D02*
X102062380Y-118342476D01*
X102062380Y-118342476D02*
X102367142Y-118342476D01*
X102641428Y-118982476D02*
X102641428Y-118342476D01*
X102641428Y-118342476D02*
X102793809Y-118342476D01*
X102793809Y-118342476D02*
X102885238Y-118372952D01*
X102885238Y-118372952D02*
X102946190Y-118433904D01*
X102946190Y-118433904D02*
X102976667Y-118494857D01*
X102976667Y-118494857D02*
X103007143Y-118616761D01*
X103007143Y-118616761D02*
X103007143Y-118708190D01*
X103007143Y-118708190D02*
X102976667Y-118830095D01*
X102976667Y-118830095D02*
X102946190Y-118891047D01*
X102946190Y-118891047D02*
X102885238Y-118952000D01*
X102885238Y-118952000D02*
X102793809Y-118982476D01*
X102793809Y-118982476D02*
X102641428Y-118982476D01*
X103616667Y-118982476D02*
X103250952Y-118982476D01*
X103433809Y-118982476D02*
X103433809Y-118342476D01*
X103433809Y-118342476D02*
X103372857Y-118433904D01*
X103372857Y-118433904D02*
X103311905Y-118494857D01*
X103311905Y-118494857D02*
X103250952Y-118525333D01*
X104165238Y-118555809D02*
X104165238Y-118982476D01*
X104012857Y-118312000D02*
X103860476Y-118769142D01*
X103860476Y-118769142D02*
X104256667Y-118769142D01*
X137409047Y-111794276D02*
X137104285Y-111794276D01*
X137104285Y-111794276D02*
X137104285Y-111154276D01*
X137622380Y-111459038D02*
X137835714Y-111459038D01*
X137927142Y-111794276D02*
X137622380Y-111794276D01*
X137622380Y-111794276D02*
X137622380Y-111154276D01*
X137622380Y-111154276D02*
X137927142Y-111154276D01*
X138201428Y-111794276D02*
X138201428Y-111154276D01*
X138201428Y-111154276D02*
X138353809Y-111154276D01*
X138353809Y-111154276D02*
X138445238Y-111184752D01*
X138445238Y-111184752D02*
X138506190Y-111245704D01*
X138506190Y-111245704D02*
X138536667Y-111306657D01*
X138536667Y-111306657D02*
X138567143Y-111428561D01*
X138567143Y-111428561D02*
X138567143Y-111519990D01*
X138567143Y-111519990D02*
X138536667Y-111641895D01*
X138536667Y-111641895D02*
X138506190Y-111702847D01*
X138506190Y-111702847D02*
X138445238Y-111763800D01*
X138445238Y-111763800D02*
X138353809Y-111794276D01*
X138353809Y-111794276D02*
X138201428Y-111794276D01*
X138810952Y-111215228D02*
X138841428Y-111184752D01*
X138841428Y-111184752D02*
X138902381Y-111154276D01*
X138902381Y-111154276D02*
X139054762Y-111154276D01*
X139054762Y-111154276D02*
X139115714Y-111184752D01*
X139115714Y-111184752D02*
X139146190Y-111215228D01*
X139146190Y-111215228D02*
X139176667Y-111276180D01*
X139176667Y-111276180D02*
X139176667Y-111337133D01*
X139176667Y-111337133D02*
X139146190Y-111428561D01*
X139146190Y-111428561D02*
X138780476Y-111794276D01*
X138780476Y-111794276D02*
X139176667Y-111794276D01*
X139390000Y-111154276D02*
X139816667Y-111154276D01*
X139816667Y-111154276D02*
X139542381Y-111794276D01*
X84373809Y-118982476D02*
X84069047Y-118982476D01*
X84069047Y-118982476D02*
X84069047Y-118342476D01*
X84587142Y-118647238D02*
X84800476Y-118647238D01*
X84891904Y-118982476D02*
X84587142Y-118982476D01*
X84587142Y-118982476D02*
X84587142Y-118342476D01*
X84587142Y-118342476D02*
X84891904Y-118342476D01*
X85166190Y-118982476D02*
X85166190Y-118342476D01*
X85166190Y-118342476D02*
X85318571Y-118342476D01*
X85318571Y-118342476D02*
X85410000Y-118372952D01*
X85410000Y-118372952D02*
X85470952Y-118433904D01*
X85470952Y-118433904D02*
X85501429Y-118494857D01*
X85501429Y-118494857D02*
X85531905Y-118616761D01*
X85531905Y-118616761D02*
X85531905Y-118708190D01*
X85531905Y-118708190D02*
X85501429Y-118830095D01*
X85501429Y-118830095D02*
X85470952Y-118891047D01*
X85470952Y-118891047D02*
X85410000Y-118952000D01*
X85410000Y-118952000D02*
X85318571Y-118982476D01*
X85318571Y-118982476D02*
X85166190Y-118982476D01*
X85897619Y-118616761D02*
X85836667Y-118586285D01*
X85836667Y-118586285D02*
X85806190Y-118555809D01*
X85806190Y-118555809D02*
X85775714Y-118494857D01*
X85775714Y-118494857D02*
X85775714Y-118464380D01*
X85775714Y-118464380D02*
X85806190Y-118403428D01*
X85806190Y-118403428D02*
X85836667Y-118372952D01*
X85836667Y-118372952D02*
X85897619Y-118342476D01*
X85897619Y-118342476D02*
X86019524Y-118342476D01*
X86019524Y-118342476D02*
X86080476Y-118372952D01*
X86080476Y-118372952D02*
X86110952Y-118403428D01*
X86110952Y-118403428D02*
X86141429Y-118464380D01*
X86141429Y-118464380D02*
X86141429Y-118494857D01*
X86141429Y-118494857D02*
X86110952Y-118555809D01*
X86110952Y-118555809D02*
X86080476Y-118586285D01*
X86080476Y-118586285D02*
X86019524Y-118616761D01*
X86019524Y-118616761D02*
X85897619Y-118616761D01*
X85897619Y-118616761D02*
X85836667Y-118647238D01*
X85836667Y-118647238D02*
X85806190Y-118677714D01*
X85806190Y-118677714D02*
X85775714Y-118738666D01*
X85775714Y-118738666D02*
X85775714Y-118860571D01*
X85775714Y-118860571D02*
X85806190Y-118921523D01*
X85806190Y-118921523D02*
X85836667Y-118952000D01*
X85836667Y-118952000D02*
X85897619Y-118982476D01*
X85897619Y-118982476D02*
X86019524Y-118982476D01*
X86019524Y-118982476D02*
X86080476Y-118952000D01*
X86080476Y-118952000D02*
X86110952Y-118921523D01*
X86110952Y-118921523D02*
X86141429Y-118860571D01*
X86141429Y-118860571D02*
X86141429Y-118738666D01*
X86141429Y-118738666D02*
X86110952Y-118677714D01*
X86110952Y-118677714D02*
X86080476Y-118647238D01*
X86080476Y-118647238D02*
X86019524Y-118616761D01*
X86070033Y-134542897D02*
X85820387Y-134717701D01*
X85820387Y-134717701D02*
X85453298Y-134193444D01*
X86052500Y-134145923D02*
X86227253Y-134023560D01*
X86494431Y-134245730D02*
X86244785Y-134420534D01*
X86244785Y-134420534D02*
X85877696Y-133896276D01*
X85877696Y-133896276D02*
X86127343Y-133721472D01*
X86719113Y-134088405D02*
X86352025Y-133564148D01*
X86352025Y-133564148D02*
X86476848Y-133476746D01*
X86476848Y-133476746D02*
X86569222Y-133449269D01*
X86569222Y-133449269D02*
X86654112Y-133464238D01*
X86654112Y-133464238D02*
X86714038Y-133496687D01*
X86714038Y-133496687D02*
X86808924Y-133579065D01*
X86808924Y-133579065D02*
X86861365Y-133653959D01*
X86861365Y-133653959D02*
X86906322Y-133771298D01*
X86906322Y-133771298D02*
X86916319Y-133838707D01*
X86916319Y-133838707D02*
X86901350Y-133923597D01*
X86901350Y-133923597D02*
X86843937Y-134001003D01*
X86843937Y-134001003D02*
X86719113Y-134088405D01*
X87517982Y-133529032D02*
X87218406Y-133738797D01*
X87368194Y-133633914D02*
X87001105Y-133109657D01*
X87001105Y-133109657D02*
X87003617Y-133219512D01*
X87003617Y-133219512D02*
X86988649Y-133304402D01*
X86988649Y-133304402D02*
X86956200Y-133364327D01*
X87475433Y-132777529D02*
X87525363Y-132742568D01*
X87525363Y-132742568D02*
X87592772Y-132732572D01*
X87592772Y-132732572D02*
X87635217Y-132740056D01*
X87635217Y-132740056D02*
X87695143Y-132772505D01*
X87695143Y-132772505D02*
X87790029Y-132854883D01*
X87790029Y-132854883D02*
X87877431Y-132979706D01*
X87877431Y-132979706D02*
X87922388Y-133097045D01*
X87922388Y-133097045D02*
X87932384Y-133164455D01*
X87932384Y-133164455D02*
X87924900Y-133206900D01*
X87924900Y-133206900D02*
X87892451Y-133266825D01*
X87892451Y-133266825D02*
X87842522Y-133301786D01*
X87842522Y-133301786D02*
X87775112Y-133311782D01*
X87775112Y-133311782D02*
X87732667Y-133304298D01*
X87732667Y-133304298D02*
X87672742Y-133271849D01*
X87672742Y-133271849D02*
X87577856Y-133189471D01*
X87577856Y-133189471D02*
X87490453Y-133064648D01*
X87490453Y-133064648D02*
X87445496Y-132947309D01*
X87445496Y-132947309D02*
X87435500Y-132879900D01*
X87435500Y-132879900D02*
X87442984Y-132837454D01*
X87442984Y-132837454D02*
X87475433Y-132777529D01*
X135777336Y-133166610D02*
X135527690Y-132991806D01*
X135527690Y-132991806D02*
X135894779Y-132467549D01*
X136144373Y-133014362D02*
X136319125Y-133136725D01*
X136201735Y-133463778D02*
X135952088Y-133288973D01*
X135952088Y-133288973D02*
X136319177Y-132764716D01*
X136319177Y-132764716D02*
X136568824Y-132939520D01*
X136426417Y-133621102D02*
X136793506Y-133096844D01*
X136793506Y-133096844D02*
X136918329Y-133184246D01*
X136918329Y-133184246D02*
X136975742Y-133261652D01*
X136975742Y-133261652D02*
X136990711Y-133346542D01*
X136990711Y-133346542D02*
X136980714Y-133413952D01*
X136980714Y-133413952D02*
X136935757Y-133531291D01*
X136935757Y-133531291D02*
X136883316Y-133606185D01*
X136883316Y-133606185D02*
X136788430Y-133688563D01*
X136788430Y-133688563D02*
X136728504Y-133721012D01*
X136728504Y-133721012D02*
X136643614Y-133735980D01*
X136643614Y-133735980D02*
X136551240Y-133708504D01*
X136551240Y-133708504D02*
X136426417Y-133621102D01*
X137257837Y-133496382D02*
X137300282Y-133488898D01*
X137300282Y-133488898D02*
X137367692Y-133498894D01*
X137367692Y-133498894D02*
X137492515Y-133586296D01*
X137492515Y-133586296D02*
X137524964Y-133646222D01*
X137524964Y-133646222D02*
X137532448Y-133688667D01*
X137532448Y-133688667D02*
X137522452Y-133756076D01*
X137522452Y-133756076D02*
X137487491Y-133806006D01*
X137487491Y-133806006D02*
X137410085Y-133863419D01*
X137410085Y-133863419D02*
X136900745Y-133953230D01*
X136900745Y-133953230D02*
X137225285Y-134180475D01*
X137919374Y-134145618D02*
X137674648Y-134495123D01*
X137934395Y-133858499D02*
X137547365Y-134145566D01*
X137547365Y-134145566D02*
X137871905Y-134372812D01*
X101849047Y-126170676D02*
X101544285Y-126170676D01*
X101544285Y-126170676D02*
X101544285Y-125530676D01*
X102062380Y-125835438D02*
X102275714Y-125835438D01*
X102367142Y-126170676D02*
X102062380Y-126170676D01*
X102062380Y-126170676D02*
X102062380Y-125530676D01*
X102062380Y-125530676D02*
X102367142Y-125530676D01*
X102641428Y-126170676D02*
X102641428Y-125530676D01*
X102641428Y-125530676D02*
X102793809Y-125530676D01*
X102793809Y-125530676D02*
X102885238Y-125561152D01*
X102885238Y-125561152D02*
X102946190Y-125622104D01*
X102946190Y-125622104D02*
X102976667Y-125683057D01*
X102976667Y-125683057D02*
X103007143Y-125804961D01*
X103007143Y-125804961D02*
X103007143Y-125896390D01*
X103007143Y-125896390D02*
X102976667Y-126018295D01*
X102976667Y-126018295D02*
X102946190Y-126079247D01*
X102946190Y-126079247D02*
X102885238Y-126140200D01*
X102885238Y-126140200D02*
X102793809Y-126170676D01*
X102793809Y-126170676D02*
X102641428Y-126170676D01*
X103616667Y-126170676D02*
X103250952Y-126170676D01*
X103433809Y-126170676D02*
X103433809Y-125530676D01*
X103433809Y-125530676D02*
X103372857Y-125622104D01*
X103372857Y-125622104D02*
X103311905Y-125683057D01*
X103311905Y-125683057D02*
X103250952Y-125713533D01*
X103830000Y-125530676D02*
X104226191Y-125530676D01*
X104226191Y-125530676D02*
X104012857Y-125774485D01*
X104012857Y-125774485D02*
X104104286Y-125774485D01*
X104104286Y-125774485D02*
X104165238Y-125804961D01*
X104165238Y-125804961D02*
X104195714Y-125835438D01*
X104195714Y-125835438D02*
X104226191Y-125896390D01*
X104226191Y-125896390D02*
X104226191Y-126048771D01*
X104226191Y-126048771D02*
X104195714Y-126109723D01*
X104195714Y-126109723D02*
X104165238Y-126140200D01*
X104165238Y-126140200D02*
X104104286Y-126170676D01*
X104104286Y-126170676D02*
X103921429Y-126170676D01*
X103921429Y-126170676D02*
X103860476Y-126140200D01*
X103860476Y-126140200D02*
X103830000Y-126109723D01*
X119629047Y-118982476D02*
X119324285Y-118982476D01*
X119324285Y-118982476D02*
X119324285Y-118342476D01*
X119842380Y-118647238D02*
X120055714Y-118647238D01*
X120147142Y-118982476D02*
X119842380Y-118982476D01*
X119842380Y-118982476D02*
X119842380Y-118342476D01*
X119842380Y-118342476D02*
X120147142Y-118342476D01*
X120421428Y-118982476D02*
X120421428Y-118342476D01*
X120421428Y-118342476D02*
X120573809Y-118342476D01*
X120573809Y-118342476D02*
X120665238Y-118372952D01*
X120665238Y-118372952D02*
X120726190Y-118433904D01*
X120726190Y-118433904D02*
X120756667Y-118494857D01*
X120756667Y-118494857D02*
X120787143Y-118616761D01*
X120787143Y-118616761D02*
X120787143Y-118708190D01*
X120787143Y-118708190D02*
X120756667Y-118830095D01*
X120756667Y-118830095D02*
X120726190Y-118891047D01*
X120726190Y-118891047D02*
X120665238Y-118952000D01*
X120665238Y-118952000D02*
X120573809Y-118982476D01*
X120573809Y-118982476D02*
X120421428Y-118982476D01*
X121030952Y-118403428D02*
X121061428Y-118372952D01*
X121061428Y-118372952D02*
X121122381Y-118342476D01*
X121122381Y-118342476D02*
X121274762Y-118342476D01*
X121274762Y-118342476D02*
X121335714Y-118372952D01*
X121335714Y-118372952D02*
X121366190Y-118403428D01*
X121366190Y-118403428D02*
X121396667Y-118464380D01*
X121396667Y-118464380D02*
X121396667Y-118525333D01*
X121396667Y-118525333D02*
X121366190Y-118616761D01*
X121366190Y-118616761D02*
X121000476Y-118982476D01*
X121000476Y-118982476D02*
X121396667Y-118982476D01*
X121792857Y-118342476D02*
X121853810Y-118342476D01*
X121853810Y-118342476D02*
X121914762Y-118372952D01*
X121914762Y-118372952D02*
X121945238Y-118403428D01*
X121945238Y-118403428D02*
X121975714Y-118464380D01*
X121975714Y-118464380D02*
X122006191Y-118586285D01*
X122006191Y-118586285D02*
X122006191Y-118738666D01*
X122006191Y-118738666D02*
X121975714Y-118860571D01*
X121975714Y-118860571D02*
X121945238Y-118921523D01*
X121945238Y-118921523D02*
X121914762Y-118952000D01*
X121914762Y-118952000D02*
X121853810Y-118982476D01*
X121853810Y-118982476D02*
X121792857Y-118982476D01*
X121792857Y-118982476D02*
X121731905Y-118952000D01*
X121731905Y-118952000D02*
X121701429Y-118921523D01*
X121701429Y-118921523D02*
X121670952Y-118860571D01*
X121670952Y-118860571D02*
X121640476Y-118738666D01*
X121640476Y-118738666D02*
X121640476Y-118586285D01*
X121640476Y-118586285D02*
X121670952Y-118464380D01*
X121670952Y-118464380D02*
X121701429Y-118403428D01*
X121701429Y-118403428D02*
X121731905Y-118372952D01*
X121731905Y-118372952D02*
X121792857Y-118342476D01*
X68190506Y-103403691D02*
X67940860Y-103228886D01*
X67940860Y-103228886D02*
X68307949Y-102704629D01*
X68557543Y-103251443D02*
X68732296Y-103373806D01*
X68614905Y-103700858D02*
X68365259Y-103526054D01*
X68365259Y-103526054D02*
X68732348Y-103001796D01*
X68732348Y-103001796D02*
X68981994Y-103176601D01*
X68839587Y-103858182D02*
X69206676Y-103333925D01*
X69206676Y-103333925D02*
X69331499Y-103421327D01*
X69331499Y-103421327D02*
X69388913Y-103498733D01*
X69388913Y-103498733D02*
X69403881Y-103583623D01*
X69403881Y-103583623D02*
X69393885Y-103651032D01*
X69393885Y-103651032D02*
X69348928Y-103768371D01*
X69348928Y-103768371D02*
X69296486Y-103843265D01*
X69296486Y-103843265D02*
X69201600Y-103925643D01*
X69201600Y-103925643D02*
X69141675Y-103958092D01*
X69141675Y-103958092D02*
X69056785Y-103973061D01*
X69056785Y-103973061D02*
X68964410Y-103945584D01*
X68964410Y-103945584D02*
X68839587Y-103858182D01*
X69833252Y-104033090D02*
X69588526Y-104382595D01*
X69848272Y-103745971D02*
X69461243Y-104033038D01*
X69461243Y-104033038D02*
X69785783Y-104260283D01*
X129828276Y-138905952D02*
X129828276Y-139210714D01*
X129828276Y-139210714D02*
X129188276Y-139210714D01*
X129493038Y-138692619D02*
X129493038Y-138479285D01*
X129828276Y-138387857D02*
X129828276Y-138692619D01*
X129828276Y-138692619D02*
X129188276Y-138692619D01*
X129188276Y-138692619D02*
X129188276Y-138387857D01*
X129828276Y-138113571D02*
X129188276Y-138113571D01*
X129188276Y-138113571D02*
X129188276Y-137961190D01*
X129188276Y-137961190D02*
X129218752Y-137869761D01*
X129218752Y-137869761D02*
X129279704Y-137808809D01*
X129279704Y-137808809D02*
X129340657Y-137778332D01*
X129340657Y-137778332D02*
X129462561Y-137747856D01*
X129462561Y-137747856D02*
X129553990Y-137747856D01*
X129553990Y-137747856D02*
X129675895Y-137778332D01*
X129675895Y-137778332D02*
X129736847Y-137808809D01*
X129736847Y-137808809D02*
X129797800Y-137869761D01*
X129797800Y-137869761D02*
X129828276Y-137961190D01*
X129828276Y-137961190D02*
X129828276Y-138113571D01*
X129249228Y-137504047D02*
X129218752Y-137473571D01*
X129218752Y-137473571D02*
X129188276Y-137412618D01*
X129188276Y-137412618D02*
X129188276Y-137260237D01*
X129188276Y-137260237D02*
X129218752Y-137199285D01*
X129218752Y-137199285D02*
X129249228Y-137168809D01*
X129249228Y-137168809D02*
X129310180Y-137138332D01*
X129310180Y-137138332D02*
X129371133Y-137138332D01*
X129371133Y-137138332D02*
X129462561Y-137168809D01*
X129462561Y-137168809D02*
X129828276Y-137534523D01*
X129828276Y-137534523D02*
X129828276Y-137138332D01*
X129188276Y-136924999D02*
X129188276Y-136528808D01*
X129188276Y-136528808D02*
X129432085Y-136742142D01*
X129432085Y-136742142D02*
X129432085Y-136650713D01*
X129432085Y-136650713D02*
X129462561Y-136589761D01*
X129462561Y-136589761D02*
X129493038Y-136559285D01*
X129493038Y-136559285D02*
X129553990Y-136528808D01*
X129553990Y-136528808D02*
X129706371Y-136528808D01*
X129706371Y-136528808D02*
X129767323Y-136559285D01*
X129767323Y-136559285D02*
X129797800Y-136589761D01*
X129797800Y-136589761D02*
X129828276Y-136650713D01*
X129828276Y-136650713D02*
X129828276Y-136833570D01*
X129828276Y-136833570D02*
X129797800Y-136894523D01*
X129797800Y-136894523D02*
X129767323Y-136924999D01*
X101849047Y-111794276D02*
X101544285Y-111794276D01*
X101544285Y-111794276D02*
X101544285Y-111154276D01*
X102062380Y-111459038D02*
X102275714Y-111459038D01*
X102367142Y-111794276D02*
X102062380Y-111794276D01*
X102062380Y-111794276D02*
X102062380Y-111154276D01*
X102062380Y-111154276D02*
X102367142Y-111154276D01*
X102641428Y-111794276D02*
X102641428Y-111154276D01*
X102641428Y-111154276D02*
X102793809Y-111154276D01*
X102793809Y-111154276D02*
X102885238Y-111184752D01*
X102885238Y-111184752D02*
X102946190Y-111245704D01*
X102946190Y-111245704D02*
X102976667Y-111306657D01*
X102976667Y-111306657D02*
X103007143Y-111428561D01*
X103007143Y-111428561D02*
X103007143Y-111519990D01*
X103007143Y-111519990D02*
X102976667Y-111641895D01*
X102976667Y-111641895D02*
X102946190Y-111702847D01*
X102946190Y-111702847D02*
X102885238Y-111763800D01*
X102885238Y-111763800D02*
X102793809Y-111794276D01*
X102793809Y-111794276D02*
X102641428Y-111794276D01*
X103616667Y-111794276D02*
X103250952Y-111794276D01*
X103433809Y-111794276D02*
X103433809Y-111154276D01*
X103433809Y-111154276D02*
X103372857Y-111245704D01*
X103372857Y-111245704D02*
X103311905Y-111306657D01*
X103311905Y-111306657D02*
X103250952Y-111337133D01*
X104195714Y-111154276D02*
X103890952Y-111154276D01*
X103890952Y-111154276D02*
X103860476Y-111459038D01*
X103860476Y-111459038D02*
X103890952Y-111428561D01*
X103890952Y-111428561D02*
X103951905Y-111398085D01*
X103951905Y-111398085D02*
X104104286Y-111398085D01*
X104104286Y-111398085D02*
X104165238Y-111428561D01*
X104165238Y-111428561D02*
X104195714Y-111459038D01*
X104195714Y-111459038D02*
X104226191Y-111519990D01*
X104226191Y-111519990D02*
X104226191Y-111672371D01*
X104226191Y-111672371D02*
X104195714Y-111733323D01*
X104195714Y-111733323D02*
X104165238Y-111763800D01*
X104165238Y-111763800D02*
X104104286Y-111794276D01*
X104104286Y-111794276D02*
X103951905Y-111794276D01*
X103951905Y-111794276D02*
X103890952Y-111763800D01*
X103890952Y-111763800D02*
X103860476Y-111733323D01*
X66593809Y-118982476D02*
X66289047Y-118982476D01*
X66289047Y-118982476D02*
X66289047Y-118342476D01*
X66807142Y-118647238D02*
X67020476Y-118647238D01*
X67111904Y-118982476D02*
X66807142Y-118982476D01*
X66807142Y-118982476D02*
X66807142Y-118342476D01*
X66807142Y-118342476D02*
X67111904Y-118342476D01*
X67386190Y-118982476D02*
X67386190Y-118342476D01*
X67386190Y-118342476D02*
X67538571Y-118342476D01*
X67538571Y-118342476D02*
X67630000Y-118372952D01*
X67630000Y-118372952D02*
X67690952Y-118433904D01*
X67690952Y-118433904D02*
X67721429Y-118494857D01*
X67721429Y-118494857D02*
X67751905Y-118616761D01*
X67751905Y-118616761D02*
X67751905Y-118708190D01*
X67751905Y-118708190D02*
X67721429Y-118830095D01*
X67721429Y-118830095D02*
X67690952Y-118891047D01*
X67690952Y-118891047D02*
X67630000Y-118952000D01*
X67630000Y-118952000D02*
X67538571Y-118982476D01*
X67538571Y-118982476D02*
X67386190Y-118982476D01*
X67995714Y-118403428D02*
X68026190Y-118372952D01*
X68026190Y-118372952D02*
X68087143Y-118342476D01*
X68087143Y-118342476D02*
X68239524Y-118342476D01*
X68239524Y-118342476D02*
X68300476Y-118372952D01*
X68300476Y-118372952D02*
X68330952Y-118403428D01*
X68330952Y-118403428D02*
X68361429Y-118464380D01*
X68361429Y-118464380D02*
X68361429Y-118525333D01*
X68361429Y-118525333D02*
X68330952Y-118616761D01*
X68330952Y-118616761D02*
X67965238Y-118982476D01*
X67965238Y-118982476D02*
X68361429Y-118982476D01*
X137409047Y-118982476D02*
X137104285Y-118982476D01*
X137104285Y-118982476D02*
X137104285Y-118342476D01*
X137622380Y-118647238D02*
X137835714Y-118647238D01*
X137927142Y-118982476D02*
X137622380Y-118982476D01*
X137622380Y-118982476D02*
X137622380Y-118342476D01*
X137622380Y-118342476D02*
X137927142Y-118342476D01*
X138201428Y-118982476D02*
X138201428Y-118342476D01*
X138201428Y-118342476D02*
X138353809Y-118342476D01*
X138353809Y-118342476D02*
X138445238Y-118372952D01*
X138445238Y-118372952D02*
X138506190Y-118433904D01*
X138506190Y-118433904D02*
X138536667Y-118494857D01*
X138536667Y-118494857D02*
X138567143Y-118616761D01*
X138567143Y-118616761D02*
X138567143Y-118708190D01*
X138567143Y-118708190D02*
X138536667Y-118830095D01*
X138536667Y-118830095D02*
X138506190Y-118891047D01*
X138506190Y-118891047D02*
X138445238Y-118952000D01*
X138445238Y-118952000D02*
X138353809Y-118982476D01*
X138353809Y-118982476D02*
X138201428Y-118982476D01*
X138810952Y-118403428D02*
X138841428Y-118372952D01*
X138841428Y-118372952D02*
X138902381Y-118342476D01*
X138902381Y-118342476D02*
X139054762Y-118342476D01*
X139054762Y-118342476D02*
X139115714Y-118372952D01*
X139115714Y-118372952D02*
X139146190Y-118403428D01*
X139146190Y-118403428D02*
X139176667Y-118464380D01*
X139176667Y-118464380D02*
X139176667Y-118525333D01*
X139176667Y-118525333D02*
X139146190Y-118616761D01*
X139146190Y-118616761D02*
X138780476Y-118982476D01*
X138780476Y-118982476D02*
X139176667Y-118982476D01*
X139725238Y-118342476D02*
X139603333Y-118342476D01*
X139603333Y-118342476D02*
X139542381Y-118372952D01*
X139542381Y-118372952D02*
X139511905Y-118403428D01*
X139511905Y-118403428D02*
X139450952Y-118494857D01*
X139450952Y-118494857D02*
X139420476Y-118616761D01*
X139420476Y-118616761D02*
X139420476Y-118860571D01*
X139420476Y-118860571D02*
X139450952Y-118921523D01*
X139450952Y-118921523D02*
X139481429Y-118952000D01*
X139481429Y-118952000D02*
X139542381Y-118982476D01*
X139542381Y-118982476D02*
X139664286Y-118982476D01*
X139664286Y-118982476D02*
X139725238Y-118952000D01*
X139725238Y-118952000D02*
X139755714Y-118921523D01*
X139755714Y-118921523D02*
X139786191Y-118860571D01*
X139786191Y-118860571D02*
X139786191Y-118708190D01*
X139786191Y-118708190D02*
X139755714Y-118647238D01*
X139755714Y-118647238D02*
X139725238Y-118616761D01*
X139725238Y-118616761D02*
X139664286Y-118586285D01*
X139664286Y-118586285D02*
X139542381Y-118586285D01*
X139542381Y-118586285D02*
X139481429Y-118616761D01*
X139481429Y-118616761D02*
X139450952Y-118647238D01*
X139450952Y-118647238D02*
X139420476Y-118708190D01*
X119629047Y-126170676D02*
X119324285Y-126170676D01*
X119324285Y-126170676D02*
X119324285Y-125530676D01*
X119842380Y-125835438D02*
X120055714Y-125835438D01*
X120147142Y-126170676D02*
X119842380Y-126170676D01*
X119842380Y-126170676D02*
X119842380Y-125530676D01*
X119842380Y-125530676D02*
X120147142Y-125530676D01*
X120421428Y-126170676D02*
X120421428Y-125530676D01*
X120421428Y-125530676D02*
X120573809Y-125530676D01*
X120573809Y-125530676D02*
X120665238Y-125561152D01*
X120665238Y-125561152D02*
X120726190Y-125622104D01*
X120726190Y-125622104D02*
X120756667Y-125683057D01*
X120756667Y-125683057D02*
X120787143Y-125804961D01*
X120787143Y-125804961D02*
X120787143Y-125896390D01*
X120787143Y-125896390D02*
X120756667Y-126018295D01*
X120756667Y-126018295D02*
X120726190Y-126079247D01*
X120726190Y-126079247D02*
X120665238Y-126140200D01*
X120665238Y-126140200D02*
X120573809Y-126170676D01*
X120573809Y-126170676D02*
X120421428Y-126170676D01*
X121030952Y-125591628D02*
X121061428Y-125561152D01*
X121061428Y-125561152D02*
X121122381Y-125530676D01*
X121122381Y-125530676D02*
X121274762Y-125530676D01*
X121274762Y-125530676D02*
X121335714Y-125561152D01*
X121335714Y-125561152D02*
X121366190Y-125591628D01*
X121366190Y-125591628D02*
X121396667Y-125652580D01*
X121396667Y-125652580D02*
X121396667Y-125713533D01*
X121396667Y-125713533D02*
X121366190Y-125804961D01*
X121366190Y-125804961D02*
X121000476Y-126170676D01*
X121000476Y-126170676D02*
X121396667Y-126170676D01*
X122006191Y-126170676D02*
X121640476Y-126170676D01*
X121823333Y-126170676D02*
X121823333Y-125530676D01*
X121823333Y-125530676D02*
X121762381Y-125622104D01*
X121762381Y-125622104D02*
X121701429Y-125683057D01*
X121701429Y-125683057D02*
X121640476Y-125713533D01*
X137409047Y-126170676D02*
X137104285Y-126170676D01*
X137104285Y-126170676D02*
X137104285Y-125530676D01*
X137622380Y-125835438D02*
X137835714Y-125835438D01*
X137927142Y-126170676D02*
X137622380Y-126170676D01*
X137622380Y-126170676D02*
X137622380Y-125530676D01*
X137622380Y-125530676D02*
X137927142Y-125530676D01*
X138201428Y-126170676D02*
X138201428Y-125530676D01*
X138201428Y-125530676D02*
X138353809Y-125530676D01*
X138353809Y-125530676D02*
X138445238Y-125561152D01*
X138445238Y-125561152D02*
X138506190Y-125622104D01*
X138506190Y-125622104D02*
X138536667Y-125683057D01*
X138536667Y-125683057D02*
X138567143Y-125804961D01*
X138567143Y-125804961D02*
X138567143Y-125896390D01*
X138567143Y-125896390D02*
X138536667Y-126018295D01*
X138536667Y-126018295D02*
X138506190Y-126079247D01*
X138506190Y-126079247D02*
X138445238Y-126140200D01*
X138445238Y-126140200D02*
X138353809Y-126170676D01*
X138353809Y-126170676D02*
X138201428Y-126170676D01*
X138810952Y-125591628D02*
X138841428Y-125561152D01*
X138841428Y-125561152D02*
X138902381Y-125530676D01*
X138902381Y-125530676D02*
X139054762Y-125530676D01*
X139054762Y-125530676D02*
X139115714Y-125561152D01*
X139115714Y-125561152D02*
X139146190Y-125591628D01*
X139146190Y-125591628D02*
X139176667Y-125652580D01*
X139176667Y-125652580D02*
X139176667Y-125713533D01*
X139176667Y-125713533D02*
X139146190Y-125804961D01*
X139146190Y-125804961D02*
X138780476Y-126170676D01*
X138780476Y-126170676D02*
X139176667Y-126170676D01*
X139755714Y-125530676D02*
X139450952Y-125530676D01*
X139450952Y-125530676D02*
X139420476Y-125835438D01*
X139420476Y-125835438D02*
X139450952Y-125804961D01*
X139450952Y-125804961D02*
X139511905Y-125774485D01*
X139511905Y-125774485D02*
X139664286Y-125774485D01*
X139664286Y-125774485D02*
X139725238Y-125804961D01*
X139725238Y-125804961D02*
X139755714Y-125835438D01*
X139755714Y-125835438D02*
X139786191Y-125896390D01*
X139786191Y-125896390D02*
X139786191Y-126048771D01*
X139786191Y-126048771D02*
X139755714Y-126109723D01*
X139755714Y-126109723D02*
X139725238Y-126140200D01*
X139725238Y-126140200D02*
X139664286Y-126170676D01*
X139664286Y-126170676D02*
X139511905Y-126170676D01*
X139511905Y-126170676D02*
X139450952Y-126140200D01*
X139450952Y-126140200D02*
X139420476Y-126109723D01*
X100195474Y-133371708D02*
X99945828Y-133196904D01*
X99945828Y-133196904D02*
X100312917Y-132672647D01*
X100562511Y-133219460D02*
X100737263Y-133341823D01*
X100619873Y-133668876D02*
X100370226Y-133494071D01*
X100370226Y-133494071D02*
X100737315Y-132969814D01*
X100737315Y-132969814D02*
X100986962Y-133144618D01*
X100844555Y-133826200D02*
X101211644Y-133301942D01*
X101211644Y-133301942D02*
X101336467Y-133389344D01*
X101336467Y-133389344D02*
X101393880Y-133466750D01*
X101393880Y-133466750D02*
X101408849Y-133551640D01*
X101408849Y-133551640D02*
X101398852Y-133619050D01*
X101398852Y-133619050D02*
X101353895Y-133736389D01*
X101353895Y-133736389D02*
X101301454Y-133811283D01*
X101301454Y-133811283D02*
X101206568Y-133893661D01*
X101206568Y-133893661D02*
X101146642Y-133926110D01*
X101146642Y-133926110D02*
X101061752Y-133941078D01*
X101061752Y-133941078D02*
X100969378Y-133913602D01*
X100969378Y-133913602D02*
X100844555Y-133826200D01*
X101643423Y-134385573D02*
X101343847Y-134175808D01*
X101493635Y-134280691D02*
X101860724Y-133756433D01*
X101860724Y-133756433D02*
X101758353Y-133796366D01*
X101758353Y-133796366D02*
X101673463Y-133811335D01*
X101673463Y-133811335D02*
X101606054Y-133801339D01*
X102175268Y-134051089D02*
X102217713Y-134043604D01*
X102217713Y-134043604D02*
X102285123Y-134053601D01*
X102285123Y-134053601D02*
X102409946Y-134141003D01*
X102409946Y-134141003D02*
X102442395Y-134200928D01*
X102442395Y-134200928D02*
X102449879Y-134243373D01*
X102449879Y-134243373D02*
X102439883Y-134310783D01*
X102439883Y-134310783D02*
X102404922Y-134360712D01*
X102404922Y-134360712D02*
X102327516Y-134418126D01*
X102327516Y-134418126D02*
X101818176Y-134507936D01*
X101818176Y-134507936D02*
X102142716Y-134735182D01*
X119629047Y-111794276D02*
X119324285Y-111794276D01*
X119324285Y-111794276D02*
X119324285Y-111154276D01*
X119842380Y-111459038D02*
X120055714Y-111459038D01*
X120147142Y-111794276D02*
X119842380Y-111794276D01*
X119842380Y-111794276D02*
X119842380Y-111154276D01*
X119842380Y-111154276D02*
X120147142Y-111154276D01*
X120421428Y-111794276D02*
X120421428Y-111154276D01*
X120421428Y-111154276D02*
X120573809Y-111154276D01*
X120573809Y-111154276D02*
X120665238Y-111184752D01*
X120665238Y-111184752D02*
X120726190Y-111245704D01*
X120726190Y-111245704D02*
X120756667Y-111306657D01*
X120756667Y-111306657D02*
X120787143Y-111428561D01*
X120787143Y-111428561D02*
X120787143Y-111519990D01*
X120787143Y-111519990D02*
X120756667Y-111641895D01*
X120756667Y-111641895D02*
X120726190Y-111702847D01*
X120726190Y-111702847D02*
X120665238Y-111763800D01*
X120665238Y-111763800D02*
X120573809Y-111794276D01*
X120573809Y-111794276D02*
X120421428Y-111794276D01*
X121396667Y-111794276D02*
X121030952Y-111794276D01*
X121213809Y-111794276D02*
X121213809Y-111154276D01*
X121213809Y-111154276D02*
X121152857Y-111245704D01*
X121152857Y-111245704D02*
X121091905Y-111306657D01*
X121091905Y-111306657D02*
X121030952Y-111337133D01*
X121701429Y-111794276D02*
X121823333Y-111794276D01*
X121823333Y-111794276D02*
X121884286Y-111763800D01*
X121884286Y-111763800D02*
X121914762Y-111733323D01*
X121914762Y-111733323D02*
X121975714Y-111641895D01*
X121975714Y-111641895D02*
X122006191Y-111519990D01*
X122006191Y-111519990D02*
X122006191Y-111276180D01*
X122006191Y-111276180D02*
X121975714Y-111215228D01*
X121975714Y-111215228D02*
X121945238Y-111184752D01*
X121945238Y-111184752D02*
X121884286Y-111154276D01*
X121884286Y-111154276D02*
X121762381Y-111154276D01*
X121762381Y-111154276D02*
X121701429Y-111184752D01*
X121701429Y-111184752D02*
X121670952Y-111215228D01*
X121670952Y-111215228D02*
X121640476Y-111276180D01*
X121640476Y-111276180D02*
X121640476Y-111428561D01*
X121640476Y-111428561D02*
X121670952Y-111489514D01*
X121670952Y-111489514D02*
X121701429Y-111519990D01*
X121701429Y-111519990D02*
X121762381Y-111550466D01*
X121762381Y-111550466D02*
X121884286Y-111550466D01*
X121884286Y-111550466D02*
X121945238Y-111519990D01*
X121945238Y-111519990D02*
X121975714Y-111489514D01*
X121975714Y-111489514D02*
X122006191Y-111428561D01*
X76488276Y-100374190D02*
X76488276Y-100678952D01*
X76488276Y-100678952D02*
X75848276Y-100678952D01*
X76153038Y-100160857D02*
X76153038Y-99947523D01*
X76488276Y-99856095D02*
X76488276Y-100160857D01*
X76488276Y-100160857D02*
X75848276Y-100160857D01*
X75848276Y-100160857D02*
X75848276Y-99856095D01*
X76488276Y-99581809D02*
X75848276Y-99581809D01*
X75848276Y-99581809D02*
X75848276Y-99429428D01*
X75848276Y-99429428D02*
X75878752Y-99337999D01*
X75878752Y-99337999D02*
X75939704Y-99277047D01*
X75939704Y-99277047D02*
X76000657Y-99246570D01*
X76000657Y-99246570D02*
X76122561Y-99216094D01*
X76122561Y-99216094D02*
X76213990Y-99216094D01*
X76213990Y-99216094D02*
X76335895Y-99246570D01*
X76335895Y-99246570D02*
X76396847Y-99277047D01*
X76396847Y-99277047D02*
X76457800Y-99337999D01*
X76457800Y-99337999D02*
X76488276Y-99429428D01*
X76488276Y-99429428D02*
X76488276Y-99581809D01*
X75848276Y-98637047D02*
X75848276Y-98941809D01*
X75848276Y-98941809D02*
X76153038Y-98972285D01*
X76153038Y-98972285D02*
X76122561Y-98941809D01*
X76122561Y-98941809D02*
X76092085Y-98880856D01*
X76092085Y-98880856D02*
X76092085Y-98728475D01*
X76092085Y-98728475D02*
X76122561Y-98667523D01*
X76122561Y-98667523D02*
X76153038Y-98637047D01*
X76153038Y-98637047D02*
X76213990Y-98606570D01*
X76213990Y-98606570D02*
X76366371Y-98606570D01*
X76366371Y-98606570D02*
X76427323Y-98637047D01*
X76427323Y-98637047D02*
X76457800Y-98667523D01*
X76457800Y-98667523D02*
X76488276Y-98728475D01*
X76488276Y-98728475D02*
X76488276Y-98880856D01*
X76488276Y-98880856D02*
X76457800Y-98941809D01*
X76457800Y-98941809D02*
X76427323Y-98972285D01*
X121630033Y-134326997D02*
X121380387Y-134501801D01*
X121380387Y-134501801D02*
X121013298Y-133977544D01*
X121612500Y-133930023D02*
X121787253Y-133807660D01*
X122054431Y-134029830D02*
X121804785Y-134204634D01*
X121804785Y-134204634D02*
X121437696Y-133680376D01*
X121437696Y-133680376D02*
X121687343Y-133505572D01*
X122279113Y-133872505D02*
X121912025Y-133348248D01*
X121912025Y-133348248D02*
X122036848Y-133260846D01*
X122036848Y-133260846D02*
X122129222Y-133233369D01*
X122129222Y-133233369D02*
X122214112Y-133248338D01*
X122214112Y-133248338D02*
X122274038Y-133280787D01*
X122274038Y-133280787D02*
X122368924Y-133363165D01*
X122368924Y-133363165D02*
X122421365Y-133438059D01*
X122421365Y-133438059D02*
X122466322Y-133555398D01*
X122466322Y-133555398D02*
X122476319Y-133622807D01*
X122476319Y-133622807D02*
X122461350Y-133707697D01*
X122461350Y-133707697D02*
X122403937Y-133785103D01*
X122403937Y-133785103D02*
X122279113Y-133872505D01*
X122446278Y-133048569D02*
X122453762Y-133006124D01*
X122453762Y-133006124D02*
X122486211Y-132946198D01*
X122486211Y-132946198D02*
X122611034Y-132858796D01*
X122611034Y-132858796D02*
X122678444Y-132848800D01*
X122678444Y-132848800D02*
X122720889Y-132856284D01*
X122720889Y-132856284D02*
X122780815Y-132888733D01*
X122780815Y-132888733D02*
X122815775Y-132938662D01*
X122815775Y-132938662D02*
X122843252Y-133031037D01*
X122843252Y-133031037D02*
X122753442Y-133540377D01*
X122753442Y-133540377D02*
X123077982Y-133313132D01*
X122945571Y-132698960D02*
X122953055Y-132656515D01*
X122953055Y-132656515D02*
X122985504Y-132596590D01*
X122985504Y-132596590D02*
X123110327Y-132509188D01*
X123110327Y-132509188D02*
X123177737Y-132499191D01*
X123177737Y-132499191D02*
X123220182Y-132506676D01*
X123220182Y-132506676D02*
X123280107Y-132539125D01*
X123280107Y-132539125D02*
X123315068Y-132589054D01*
X123315068Y-132589054D02*
X123342545Y-132681428D01*
X123342545Y-132681428D02*
X123252734Y-133190769D01*
X123252734Y-133190769D02*
X123577275Y-132963523D01*
X118328033Y-104450875D02*
X118078387Y-104625679D01*
X118078387Y-104625679D02*
X117711298Y-104101422D01*
X118310500Y-104053901D02*
X118485253Y-103931538D01*
X118752431Y-104153708D02*
X118502785Y-104328512D01*
X118502785Y-104328512D02*
X118135696Y-103804254D01*
X118135696Y-103804254D02*
X118385343Y-103629450D01*
X118977113Y-103996383D02*
X118610025Y-103472126D01*
X118610025Y-103472126D02*
X118734848Y-103384724D01*
X118734848Y-103384724D02*
X118827222Y-103357247D01*
X118827222Y-103357247D02*
X118912112Y-103372216D01*
X118912112Y-103372216D02*
X118972038Y-103404665D01*
X118972038Y-103404665D02*
X119066924Y-103487043D01*
X119066924Y-103487043D02*
X119119365Y-103561937D01*
X119119365Y-103561937D02*
X119164322Y-103679276D01*
X119164322Y-103679276D02*
X119174319Y-103746685D01*
X119174319Y-103746685D02*
X119159350Y-103831575D01*
X119159350Y-103831575D02*
X119101937Y-103908981D01*
X119101937Y-103908981D02*
X118977113Y-103996383D01*
X119775982Y-103437010D02*
X119476406Y-103646775D01*
X119626194Y-103541892D02*
X119259105Y-103017635D01*
X119259105Y-103017635D02*
X119261617Y-103127490D01*
X119261617Y-103127490D02*
X119246649Y-103212380D01*
X119246649Y-103212380D02*
X119214200Y-103272305D01*
X119865792Y-102927669D02*
X119798383Y-102937665D01*
X119798383Y-102937665D02*
X119755938Y-102930181D01*
X119755938Y-102930181D02*
X119696012Y-102897732D01*
X119696012Y-102897732D02*
X119678532Y-102872768D01*
X119678532Y-102872768D02*
X119668536Y-102805358D01*
X119668536Y-102805358D02*
X119676020Y-102762913D01*
X119676020Y-102762913D02*
X119708469Y-102702987D01*
X119708469Y-102702987D02*
X119808327Y-102633066D01*
X119808327Y-102633066D02*
X119875737Y-102623069D01*
X119875737Y-102623069D02*
X119918182Y-102630554D01*
X119918182Y-102630554D02*
X119978107Y-102663003D01*
X119978107Y-102663003D02*
X119995588Y-102687967D01*
X119995588Y-102687967D02*
X120005584Y-102755377D01*
X120005584Y-102755377D02*
X119998100Y-102797822D01*
X119998100Y-102797822D02*
X119965651Y-102857747D01*
X119965651Y-102857747D02*
X119865792Y-102927669D01*
X119865792Y-102927669D02*
X119833344Y-102987595D01*
X119833344Y-102987595D02*
X119825859Y-103030040D01*
X119825859Y-103030040D02*
X119835856Y-103097449D01*
X119835856Y-103097449D02*
X119905777Y-103197308D01*
X119905777Y-103197308D02*
X119965703Y-103229757D01*
X119965703Y-103229757D02*
X120008148Y-103237241D01*
X120008148Y-103237241D02*
X120075558Y-103227245D01*
X120075558Y-103227245D02*
X120175416Y-103157323D01*
X120175416Y-103157323D02*
X120207865Y-103097398D01*
X120207865Y-103097398D02*
X120215349Y-103054952D01*
X120215349Y-103054952D02*
X120205353Y-102987543D01*
X120205353Y-102987543D02*
X120135431Y-102887684D01*
X120135431Y-102887684D02*
X120075506Y-102855235D01*
X120075506Y-102855235D02*
X120033061Y-102847751D01*
X120033061Y-102847751D02*
X119965651Y-102857747D01*
X94268276Y-138905952D02*
X94268276Y-139210714D01*
X94268276Y-139210714D02*
X93628276Y-139210714D01*
X93933038Y-138692619D02*
X93933038Y-138479285D01*
X94268276Y-138387857D02*
X94268276Y-138692619D01*
X94268276Y-138692619D02*
X93628276Y-138692619D01*
X93628276Y-138692619D02*
X93628276Y-138387857D01*
X94268276Y-138113571D02*
X93628276Y-138113571D01*
X93628276Y-138113571D02*
X93628276Y-137961190D01*
X93628276Y-137961190D02*
X93658752Y-137869761D01*
X93658752Y-137869761D02*
X93719704Y-137808809D01*
X93719704Y-137808809D02*
X93780657Y-137778332D01*
X93780657Y-137778332D02*
X93902561Y-137747856D01*
X93902561Y-137747856D02*
X93993990Y-137747856D01*
X93993990Y-137747856D02*
X94115895Y-137778332D01*
X94115895Y-137778332D02*
X94176847Y-137808809D01*
X94176847Y-137808809D02*
X94237800Y-137869761D01*
X94237800Y-137869761D02*
X94268276Y-137961190D01*
X94268276Y-137961190D02*
X94268276Y-138113571D01*
X94268276Y-137138332D02*
X94268276Y-137504047D01*
X94268276Y-137321190D02*
X93628276Y-137321190D01*
X93628276Y-137321190D02*
X93719704Y-137382142D01*
X93719704Y-137382142D02*
X93780657Y-137443094D01*
X93780657Y-137443094D02*
X93811133Y-137504047D01*
X94268276Y-136528808D02*
X94268276Y-136894523D01*
X94268276Y-136711666D02*
X93628276Y-136711666D01*
X93628276Y-136711666D02*
X93719704Y-136772618D01*
X93719704Y-136772618D02*
X93780657Y-136833570D01*
X93780657Y-136833570D02*
X93811133Y-136894523D01*
X82999203Y-104225270D02*
X82749557Y-104400075D01*
X82749557Y-104400075D02*
X82382468Y-103875817D01*
X82981671Y-103828297D02*
X83156423Y-103705934D01*
X83423602Y-103928103D02*
X83173956Y-104102907D01*
X83173956Y-104102907D02*
X82806867Y-103578650D01*
X82806867Y-103578650D02*
X83056513Y-103403846D01*
X83648284Y-103770779D02*
X83281195Y-103246522D01*
X83281195Y-103246522D02*
X83406018Y-103159120D01*
X83406018Y-103159120D02*
X83498392Y-103131643D01*
X83498392Y-103131643D02*
X83583283Y-103146612D01*
X83583283Y-103146612D02*
X83643208Y-103179060D01*
X83643208Y-103179060D02*
X83738094Y-103261438D01*
X83738094Y-103261438D02*
X83790536Y-103336332D01*
X83790536Y-103336332D02*
X83835493Y-103453671D01*
X83835493Y-103453671D02*
X83845489Y-103521081D01*
X83845489Y-103521081D02*
X83830521Y-103605971D01*
X83830521Y-103605971D02*
X83773107Y-103683377D01*
X83773107Y-103683377D02*
X83648284Y-103770779D01*
X84030134Y-102722109D02*
X83930275Y-102792031D01*
X83930275Y-102792031D02*
X83897827Y-102851956D01*
X83897827Y-102851956D02*
X83890342Y-102894401D01*
X83890342Y-102894401D02*
X83892854Y-103004256D01*
X83892854Y-103004256D02*
X83937811Y-103121595D01*
X83937811Y-103121595D02*
X84077655Y-103321312D01*
X84077655Y-103321312D02*
X84137580Y-103353761D01*
X84137580Y-103353761D02*
X84180025Y-103361245D01*
X84180025Y-103361245D02*
X84247435Y-103351249D01*
X84247435Y-103351249D02*
X84347294Y-103281327D01*
X84347294Y-103281327D02*
X84379742Y-103221402D01*
X84379742Y-103221402D02*
X84387227Y-103178957D01*
X84387227Y-103178957D02*
X84377230Y-103111547D01*
X84377230Y-103111547D02*
X84289828Y-102986724D01*
X84289828Y-102986724D02*
X84229903Y-102954275D01*
X84229903Y-102954275D02*
X84187458Y-102946791D01*
X84187458Y-102946791D02*
X84120048Y-102956787D01*
X84120048Y-102956787D02*
X84020190Y-103026709D01*
X84020190Y-103026709D02*
X83987741Y-103086634D01*
X83987741Y-103086634D02*
X83980257Y-103129079D01*
X83980257Y-103129079D02*
X83990253Y-103196489D01*
X84373809Y-126170676D02*
X84069047Y-126170676D01*
X84069047Y-126170676D02*
X84069047Y-125530676D01*
X84587142Y-125835438D02*
X84800476Y-125835438D01*
X84891904Y-126170676D02*
X84587142Y-126170676D01*
X84587142Y-126170676D02*
X84587142Y-125530676D01*
X84587142Y-125530676D02*
X84891904Y-125530676D01*
X85166190Y-126170676D02*
X85166190Y-125530676D01*
X85166190Y-125530676D02*
X85318571Y-125530676D01*
X85318571Y-125530676D02*
X85410000Y-125561152D01*
X85410000Y-125561152D02*
X85470952Y-125622104D01*
X85470952Y-125622104D02*
X85501429Y-125683057D01*
X85501429Y-125683057D02*
X85531905Y-125804961D01*
X85531905Y-125804961D02*
X85531905Y-125896390D01*
X85531905Y-125896390D02*
X85501429Y-126018295D01*
X85501429Y-126018295D02*
X85470952Y-126079247D01*
X85470952Y-126079247D02*
X85410000Y-126140200D01*
X85410000Y-126140200D02*
X85318571Y-126170676D01*
X85318571Y-126170676D02*
X85166190Y-126170676D01*
X85836667Y-126170676D02*
X85958571Y-126170676D01*
X85958571Y-126170676D02*
X86019524Y-126140200D01*
X86019524Y-126140200D02*
X86050000Y-126109723D01*
X86050000Y-126109723D02*
X86110952Y-126018295D01*
X86110952Y-126018295D02*
X86141429Y-125896390D01*
X86141429Y-125896390D02*
X86141429Y-125652580D01*
X86141429Y-125652580D02*
X86110952Y-125591628D01*
X86110952Y-125591628D02*
X86080476Y-125561152D01*
X86080476Y-125561152D02*
X86019524Y-125530676D01*
X86019524Y-125530676D02*
X85897619Y-125530676D01*
X85897619Y-125530676D02*
X85836667Y-125561152D01*
X85836667Y-125561152D02*
X85806190Y-125591628D01*
X85806190Y-125591628D02*
X85775714Y-125652580D01*
X85775714Y-125652580D02*
X85775714Y-125804961D01*
X85775714Y-125804961D02*
X85806190Y-125865914D01*
X85806190Y-125865914D02*
X85836667Y-125896390D01*
X85836667Y-125896390D02*
X85897619Y-125926866D01*
X85897619Y-125926866D02*
X86019524Y-125926866D01*
X86019524Y-125926866D02*
X86080476Y-125896390D01*
X86080476Y-125896390D02*
X86110952Y-125865914D01*
X86110952Y-125865914D02*
X86141429Y-125804961D01*
X66593809Y-111794276D02*
X66289047Y-111794276D01*
X66289047Y-111794276D02*
X66289047Y-111154276D01*
X66807142Y-111459038D02*
X67020476Y-111459038D01*
X67111904Y-111794276D02*
X66807142Y-111794276D01*
X66807142Y-111794276D02*
X66807142Y-111154276D01*
X66807142Y-111154276D02*
X67111904Y-111154276D01*
X67386190Y-111794276D02*
X67386190Y-111154276D01*
X67386190Y-111154276D02*
X67538571Y-111154276D01*
X67538571Y-111154276D02*
X67630000Y-111184752D01*
X67630000Y-111184752D02*
X67690952Y-111245704D01*
X67690952Y-111245704D02*
X67721429Y-111306657D01*
X67721429Y-111306657D02*
X67751905Y-111428561D01*
X67751905Y-111428561D02*
X67751905Y-111519990D01*
X67751905Y-111519990D02*
X67721429Y-111641895D01*
X67721429Y-111641895D02*
X67690952Y-111702847D01*
X67690952Y-111702847D02*
X67630000Y-111763800D01*
X67630000Y-111763800D02*
X67538571Y-111794276D01*
X67538571Y-111794276D02*
X67386190Y-111794276D01*
X67965238Y-111154276D02*
X68361429Y-111154276D01*
X68361429Y-111154276D02*
X68148095Y-111398085D01*
X68148095Y-111398085D02*
X68239524Y-111398085D01*
X68239524Y-111398085D02*
X68300476Y-111428561D01*
X68300476Y-111428561D02*
X68330952Y-111459038D01*
X68330952Y-111459038D02*
X68361429Y-111519990D01*
X68361429Y-111519990D02*
X68361429Y-111672371D01*
X68361429Y-111672371D02*
X68330952Y-111733323D01*
X68330952Y-111733323D02*
X68300476Y-111763800D01*
X68300476Y-111763800D02*
X68239524Y-111794276D01*
X68239524Y-111794276D02*
X68056667Y-111794276D01*
X68056667Y-111794276D02*
X67995714Y-111763800D01*
X67995714Y-111763800D02*
X67965238Y-111733323D01*
X103519336Y-103279686D02*
X103269690Y-103104882D01*
X103269690Y-103104882D02*
X103636779Y-102580625D01*
X103886373Y-103127438D02*
X104061125Y-103249801D01*
X103943735Y-103576854D02*
X103694088Y-103402049D01*
X103694088Y-103402049D02*
X104061177Y-102877792D01*
X104061177Y-102877792D02*
X104310824Y-103052596D01*
X104168417Y-103734178D02*
X104535506Y-103209920D01*
X104535506Y-103209920D02*
X104660329Y-103297322D01*
X104660329Y-103297322D02*
X104717742Y-103374728D01*
X104717742Y-103374728D02*
X104732711Y-103459618D01*
X104732711Y-103459618D02*
X104722714Y-103527028D01*
X104722714Y-103527028D02*
X104677757Y-103644367D01*
X104677757Y-103644367D02*
X104625316Y-103719261D01*
X104625316Y-103719261D02*
X104530430Y-103801639D01*
X104530430Y-103801639D02*
X104470504Y-103834088D01*
X104470504Y-103834088D02*
X104385614Y-103849056D01*
X104385614Y-103849056D02*
X104293240Y-103821580D01*
X104293240Y-103821580D02*
X104168417Y-103734178D01*
X104967285Y-104293551D02*
X104667709Y-104083786D01*
X104817497Y-104188669D02*
X105184586Y-103664411D01*
X105184586Y-103664411D02*
X105082215Y-103704344D01*
X105082215Y-103704344D02*
X104997325Y-103719313D01*
X104997325Y-103719313D02*
X104929916Y-103709317D01*
X105783737Y-104083942D02*
X105683879Y-104014020D01*
X105683879Y-104014020D02*
X105616469Y-104004024D01*
X105616469Y-104004024D02*
X105574024Y-104011508D01*
X105574024Y-104011508D02*
X105471654Y-104051441D01*
X105471654Y-104051441D02*
X105376767Y-104133819D01*
X105376767Y-104133819D02*
X105236924Y-104333536D01*
X105236924Y-104333536D02*
X105226928Y-104400946D01*
X105226928Y-104400946D02*
X105234412Y-104443391D01*
X105234412Y-104443391D02*
X105266861Y-104503316D01*
X105266861Y-104503316D02*
X105366719Y-104573238D01*
X105366719Y-104573238D02*
X105434129Y-104583234D01*
X105434129Y-104583234D02*
X105476574Y-104575750D01*
X105476574Y-104575750D02*
X105536499Y-104543301D01*
X105536499Y-104543301D02*
X105623902Y-104418478D01*
X105623902Y-104418478D02*
X105633898Y-104351068D01*
X105633898Y-104351068D02*
X105626414Y-104308623D01*
X105626414Y-104308623D02*
X105593965Y-104248698D01*
X105593965Y-104248698D02*
X105494106Y-104178776D01*
X105494106Y-104178776D02*
X105426696Y-104168780D01*
X105426696Y-104168780D02*
X105384251Y-104176264D01*
X105384251Y-104176264D02*
X105324326Y-104208713D01*
D13*
%TO.C,LED17*%
X109260000Y-102158000D02*
X109260000Y-97158000D01*
X109460000Y-97158000D02*
X109260000Y-97158000D01*
X109460000Y-102158000D02*
X109260000Y-102158000D01*
X110760000Y-97158000D02*
X112760000Y-97158000D01*
X112760000Y-102158000D02*
X110760000Y-102158000D01*
X114060000Y-97858000D02*
X114260000Y-98058000D01*
X114260000Y-98058000D02*
X114260000Y-102158000D01*
X114260000Y-102158000D02*
X114060000Y-102158000D01*
X113480460Y-99658000D02*
G75*
G02*
X110039540Y-99658000I-1720460J0D01*
G01*
X110039540Y-99658000D02*
G75*
G02*
X113480460Y-99658000I1720460J0D01*
G01*
%TO.C,LED1*%
X64810000Y-126882400D02*
X64810000Y-124882400D01*
X64810000Y-128182400D02*
X64810000Y-128382400D01*
X65510000Y-123582400D02*
X65710000Y-123382400D01*
X65710000Y-123382400D02*
X69810000Y-123382400D01*
X69810000Y-123382400D02*
X69810000Y-123582400D01*
X69810000Y-124882400D02*
X69810000Y-126882400D01*
X69810000Y-128182400D02*
X69810000Y-128382400D01*
X69810000Y-128382400D02*
X64810000Y-128382400D01*
X69030460Y-125882400D02*
G75*
G02*
X65589540Y-125882400I-1720460J0D01*
G01*
X65589540Y-125882400D02*
G75*
G02*
X69030460Y-125882400I1720460J0D01*
G01*
%TO.C,LED7*%
X82590000Y-109006000D02*
X87590000Y-109006000D01*
X82590000Y-109206000D02*
X82590000Y-109006000D01*
X82590000Y-112506000D02*
X82590000Y-110506000D01*
X82590000Y-114006000D02*
X82590000Y-113806000D01*
X86690000Y-114006000D02*
X82590000Y-114006000D01*
X86890000Y-113806000D02*
X86690000Y-114006000D01*
X87590000Y-109206000D02*
X87590000Y-109006000D01*
X87590000Y-110506000D02*
X87590000Y-112506000D01*
X86810460Y-111506000D02*
G75*
G02*
X83369540Y-111506000I-1720460J0D01*
G01*
X83369540Y-111506000D02*
G75*
G02*
X86810460Y-111506000I1720460J0D01*
G01*
%TO.C,LED14*%
X100370000Y-119694200D02*
X100370000Y-117694200D01*
X100370000Y-120994200D02*
X100370000Y-121194200D01*
X101070000Y-116394200D02*
X101270000Y-116194200D01*
X101270000Y-116194200D02*
X105370000Y-116194200D01*
X105370000Y-116194200D02*
X105370000Y-116394200D01*
X105370000Y-117694200D02*
X105370000Y-119694200D01*
X105370000Y-120994200D02*
X105370000Y-121194200D01*
X105370000Y-121194200D02*
X100370000Y-121194200D01*
X104590460Y-118694200D02*
G75*
G02*
X101149540Y-118694200I-1720460J0D01*
G01*
X101149540Y-118694200D02*
G75*
G02*
X104590460Y-118694200I1720460J0D01*
G01*
%TO.C,LED27*%
X135930000Y-112506000D02*
X135930000Y-110506000D01*
X135930000Y-113806000D02*
X135930000Y-114006000D01*
X136630000Y-109206000D02*
X136830000Y-109006000D01*
X136830000Y-109006000D02*
X140930000Y-109006000D01*
X140930000Y-109006000D02*
X140930000Y-109206000D01*
X140930000Y-110506000D02*
X140930000Y-112506000D01*
X140930000Y-113806000D02*
X140930000Y-114006000D01*
X140930000Y-114006000D02*
X135930000Y-114006000D01*
X140150460Y-111506000D02*
G75*
G02*
X136709540Y-111506000I-1720460J0D01*
G01*
X136709540Y-111506000D02*
G75*
G02*
X140150460Y-111506000I1720460J0D01*
G01*
%TO.C,LED8*%
X82590000Y-116194200D02*
X87590000Y-116194200D01*
X82590000Y-116394200D02*
X82590000Y-116194200D01*
X82590000Y-119694200D02*
X82590000Y-117694200D01*
X82590000Y-121194200D02*
X82590000Y-120994200D01*
X86690000Y-121194200D02*
X82590000Y-121194200D01*
X86890000Y-120994200D02*
X86690000Y-121194200D01*
X87590000Y-116394200D02*
X87590000Y-116194200D01*
X87590000Y-117694200D02*
X87590000Y-119694200D01*
X86810460Y-118694200D02*
G75*
G02*
X83369540Y-118694200I-1720460J0D01*
G01*
X83369540Y-118694200D02*
G75*
G02*
X86810460Y-118694200I1720460J0D01*
G01*
%TO.C,LED10*%
X83259179Y-133107222D02*
X87354939Y-130239340D01*
X83373894Y-133271052D02*
X83259179Y-133107222D01*
X85266696Y-135974254D02*
X84119543Y-134335950D01*
X86127061Y-137202982D02*
X86012346Y-137039152D01*
X87469654Y-130403170D02*
X87354939Y-130239340D01*
X88215304Y-131468068D02*
X89362457Y-133106372D01*
X89485584Y-134851319D02*
X86127061Y-137202982D01*
X89534699Y-134572773D02*
X89485584Y-134851319D01*
X88461460Y-133721161D02*
G75*
G02*
X85020540Y-133721161I-1720460J0D01*
G01*
X85020540Y-133721161D02*
G75*
G02*
X88461460Y-133721161I1720460J0D01*
G01*
%TO.C,LED24*%
X133411894Y-133966172D02*
X133297179Y-134130002D01*
X134157543Y-132901274D02*
X135304696Y-131262970D01*
X136623752Y-130599576D02*
X136902298Y-130550461D01*
X136902298Y-130550461D02*
X140260821Y-132902124D01*
X137392939Y-136997884D02*
X133297179Y-134130002D01*
X137507654Y-136834054D02*
X137392939Y-136997884D01*
X139400457Y-134130852D02*
X138253304Y-135769156D01*
X140260821Y-132902124D02*
X140146106Y-133065954D01*
X138499460Y-133516063D02*
G75*
G02*
X135058540Y-133516063I-1720460J0D01*
G01*
X135058540Y-133516063D02*
G75*
G02*
X138499460Y-133516063I1720460J0D01*
G01*
%TO.C,LED13*%
X100370000Y-126882400D02*
X100370000Y-124882400D01*
X100370000Y-128182400D02*
X100370000Y-128382400D01*
X101070000Y-123582400D02*
X101270000Y-123382400D01*
X101270000Y-123382400D02*
X105370000Y-123382400D01*
X105370000Y-123382400D02*
X105370000Y-123582400D01*
X105370000Y-124882400D02*
X105370000Y-126882400D01*
X105370000Y-128182400D02*
X105370000Y-128382400D01*
X105370000Y-128382400D02*
X100370000Y-128382400D01*
X104590460Y-125882400D02*
G75*
G02*
X101149540Y-125882400I-1720460J0D01*
G01*
X101149540Y-125882400D02*
G75*
G02*
X104590460Y-125882400I1720460J0D01*
G01*
%TO.C,LED20*%
X118150000Y-116194200D02*
X123150000Y-116194200D01*
X118150000Y-116394200D02*
X118150000Y-116194200D01*
X118150000Y-119694200D02*
X118150000Y-117694200D01*
X118150000Y-121194200D02*
X118150000Y-120994200D01*
X122250000Y-121194200D02*
X118150000Y-121194200D01*
X122450000Y-120994200D02*
X122250000Y-121194200D01*
X123150000Y-116394200D02*
X123150000Y-116194200D01*
X123150000Y-117694200D02*
X123150000Y-119694200D01*
X122370460Y-118694200D02*
G75*
G02*
X118929540Y-118694200I-1720460J0D01*
G01*
X118929540Y-118694200D02*
G75*
G02*
X122370460Y-118694200I1720460J0D01*
G01*
%TO.C,LED4*%
X65575418Y-104028448D02*
X65460703Y-104192278D01*
X66321067Y-102963550D02*
X67468220Y-101325246D01*
X68787276Y-100661852D02*
X69065822Y-100612737D01*
X69065822Y-100612737D02*
X72424345Y-102964400D01*
X69556463Y-107060160D02*
X65460703Y-104192278D01*
X69671178Y-106896330D02*
X69556463Y-107060160D01*
X71563981Y-104193128D02*
X70416828Y-105831432D01*
X72424345Y-102964400D02*
X72309630Y-103128230D01*
X70662984Y-103578339D02*
G75*
G02*
X67222064Y-103578339I-1720460J0D01*
G01*
X67222064Y-103578339D02*
G75*
G02*
X70662984Y-103578339I1720460J0D01*
G01*
%TO.C,LED23*%
X127040000Y-140385000D02*
X127040000Y-135385000D01*
X127240000Y-135385000D02*
X127040000Y-135385000D01*
X127240000Y-140385000D02*
X127040000Y-140385000D01*
X128540000Y-135385000D02*
X130540000Y-135385000D01*
X130540000Y-140385000D02*
X128540000Y-140385000D01*
X131840000Y-136085000D02*
X132040000Y-136285000D01*
X132040000Y-136285000D02*
X132040000Y-140385000D01*
X132040000Y-140385000D02*
X131840000Y-140385000D01*
X131260460Y-137885000D02*
G75*
G02*
X127819540Y-137885000I-1720460J0D01*
G01*
X127819540Y-137885000D02*
G75*
G02*
X131260460Y-137885000I1720460J0D01*
G01*
%TO.C,LED15*%
X100370000Y-112506000D02*
X100370000Y-110506000D01*
X100370000Y-113806000D02*
X100370000Y-114006000D01*
X101070000Y-109206000D02*
X101270000Y-109006000D01*
X101270000Y-109006000D02*
X105370000Y-109006000D01*
X105370000Y-109006000D02*
X105370000Y-109206000D01*
X105370000Y-110506000D02*
X105370000Y-112506000D01*
X105370000Y-113806000D02*
X105370000Y-114006000D01*
X105370000Y-114006000D02*
X100370000Y-114006000D01*
X104590460Y-111506000D02*
G75*
G02*
X101149540Y-111506000I-1720460J0D01*
G01*
X101149540Y-111506000D02*
G75*
G02*
X104590460Y-111506000I1720460J0D01*
G01*
%TO.C,LED2*%
X64810000Y-119694200D02*
X64810000Y-117694200D01*
X64810000Y-120994200D02*
X64810000Y-121194200D01*
X65510000Y-116394200D02*
X65710000Y-116194200D01*
X65710000Y-116194200D02*
X69810000Y-116194200D01*
X69810000Y-116194200D02*
X69810000Y-116394200D01*
X69810000Y-117694200D02*
X69810000Y-119694200D01*
X69810000Y-120994200D02*
X69810000Y-121194200D01*
X69810000Y-121194200D02*
X64810000Y-121194200D01*
X69030460Y-118694200D02*
G75*
G02*
X65589540Y-118694200I-1720460J0D01*
G01*
X65589540Y-118694200D02*
G75*
G02*
X69030460Y-118694200I1720460J0D01*
G01*
%TO.C,LED26*%
X135930000Y-119694200D02*
X135930000Y-117694200D01*
X135930000Y-120994200D02*
X135930000Y-121194200D01*
X136630000Y-116394200D02*
X136830000Y-116194200D01*
X136830000Y-116194200D02*
X140930000Y-116194200D01*
X140930000Y-116194200D02*
X140930000Y-116394200D01*
X140930000Y-117694200D02*
X140930000Y-119694200D01*
X140930000Y-120994200D02*
X140930000Y-121194200D01*
X140930000Y-121194200D02*
X135930000Y-121194200D01*
X140150460Y-118694200D02*
G75*
G02*
X136709540Y-118694200I-1720460J0D01*
G01*
X136709540Y-118694200D02*
G75*
G02*
X140150460Y-118694200I1720460J0D01*
G01*
%TO.C,LED21*%
X118150000Y-123382400D02*
X123150000Y-123382400D01*
X118150000Y-123582400D02*
X118150000Y-123382400D01*
X118150000Y-126882400D02*
X118150000Y-124882400D01*
X118150000Y-128382400D02*
X118150000Y-128182400D01*
X122250000Y-128382400D02*
X118150000Y-128382400D01*
X122450000Y-128182400D02*
X122250000Y-128382400D01*
X123150000Y-123582400D02*
X123150000Y-123382400D01*
X123150000Y-124882400D02*
X123150000Y-126882400D01*
X122370460Y-125882400D02*
G75*
G02*
X118929540Y-125882400I-1720460J0D01*
G01*
X118929540Y-125882400D02*
G75*
G02*
X122370460Y-125882400I1720460J0D01*
G01*
%TO.C,LED25*%
X135930000Y-126882400D02*
X135930000Y-124882400D01*
X135930000Y-128182400D02*
X135930000Y-128382400D01*
X136630000Y-123582400D02*
X136830000Y-123382400D01*
X136830000Y-123382400D02*
X140930000Y-123382400D01*
X140930000Y-123382400D02*
X140930000Y-123582400D01*
X140930000Y-124882400D02*
X140930000Y-126882400D01*
X140930000Y-128182400D02*
X140930000Y-128382400D01*
X140930000Y-128382400D02*
X135930000Y-128382400D01*
X140150460Y-125882400D02*
G75*
G02*
X136709540Y-125882400I-1720460J0D01*
G01*
X136709540Y-125882400D02*
G75*
G02*
X140150460Y-125882400I1720460J0D01*
G01*
%TO.C,LED12*%
X97830032Y-134171270D02*
X97715317Y-134335100D01*
X98575681Y-133106372D02*
X99722834Y-131468068D01*
X101041890Y-130804674D02*
X101320436Y-130755559D01*
X101320436Y-130755559D02*
X104678959Y-133107222D01*
X101811077Y-137202982D02*
X97715317Y-134335100D01*
X101925792Y-137039152D02*
X101811077Y-137202982D01*
X103818595Y-134335950D02*
X102671442Y-135974254D01*
X104678959Y-133107222D02*
X104564244Y-133271052D01*
X102917598Y-133721161D02*
G75*
G02*
X99476678Y-133721161I-1720460J0D01*
G01*
X99476678Y-133721161D02*
G75*
G02*
X102917598Y-133721161I1720460J0D01*
G01*
%TO.C,LED19*%
X118150000Y-109006000D02*
X123150000Y-109006000D01*
X118150000Y-109206000D02*
X118150000Y-109006000D01*
X118150000Y-112506000D02*
X118150000Y-110506000D01*
X118150000Y-114006000D02*
X118150000Y-113806000D01*
X122250000Y-114006000D02*
X118150000Y-114006000D01*
X122450000Y-113806000D02*
X122250000Y-114006000D01*
X123150000Y-109206000D02*
X123150000Y-109006000D01*
X123150000Y-110506000D02*
X123150000Y-112506000D01*
X122370460Y-111506000D02*
G75*
G02*
X118929540Y-111506000I-1720460J0D01*
G01*
X118929540Y-111506000D02*
G75*
G02*
X122370460Y-111506000I1720460J0D01*
G01*
%TO.C,LED5*%
X73700000Y-102158000D02*
X73700000Y-97158000D01*
X73900000Y-97158000D02*
X73700000Y-97158000D01*
X73900000Y-102158000D02*
X73700000Y-102158000D01*
X75200000Y-97158000D02*
X77200000Y-97158000D01*
X77200000Y-102158000D02*
X75200000Y-102158000D01*
X78500000Y-97858000D02*
X78700000Y-98058000D01*
X78700000Y-98058000D02*
X78700000Y-102158000D01*
X78700000Y-102158000D02*
X78500000Y-102158000D01*
X77920460Y-99658000D02*
G75*
G02*
X74479540Y-99658000I-1720460J0D01*
G01*
X74479540Y-99658000D02*
G75*
G02*
X77920460Y-99658000I1720460J0D01*
G01*
%TO.C,LED22*%
X118819179Y-132891322D02*
X122914939Y-130023440D01*
X118933894Y-133055152D02*
X118819179Y-132891322D01*
X120826696Y-135758354D02*
X119679543Y-134120050D01*
X121687061Y-136987082D02*
X121572346Y-136823252D01*
X123029654Y-130187270D02*
X122914939Y-130023440D01*
X123775304Y-131252168D02*
X124922457Y-132890472D01*
X125045584Y-134635419D02*
X121687061Y-136987082D01*
X125094699Y-134356873D02*
X125045584Y-134635419D01*
X124021460Y-133505261D02*
G75*
G02*
X120580540Y-133505261I-1720460J0D01*
G01*
X120580540Y-133505261D02*
G75*
G02*
X124021460Y-133505261I1720460J0D01*
G01*
%TO.C,LED18*%
X115517179Y-103015200D02*
X119612939Y-100147318D01*
X115631894Y-103179030D02*
X115517179Y-103015200D01*
X117524696Y-105882232D02*
X116377543Y-104243928D01*
X118385061Y-107110960D02*
X118270346Y-106947130D01*
X119727654Y-100311148D02*
X119612939Y-100147318D01*
X120473304Y-101376046D02*
X121620457Y-103014350D01*
X121743584Y-104759297D02*
X118385061Y-107110960D01*
X121792699Y-104480751D02*
X121743584Y-104759297D01*
X120719460Y-103629139D02*
G75*
G02*
X117278540Y-103629139I-1720460J0D01*
G01*
X117278540Y-103629139D02*
G75*
G02*
X120719460Y-103629139I1720460J0D01*
G01*
%TO.C,LED11*%
X91480000Y-140385000D02*
X91480000Y-135385000D01*
X91680000Y-135385000D02*
X91480000Y-135385000D01*
X91680000Y-140385000D02*
X91480000Y-140385000D01*
X92980000Y-135385000D02*
X94980000Y-135385000D01*
X94980000Y-140385000D02*
X92980000Y-140385000D01*
X96280000Y-136085000D02*
X96480000Y-136285000D01*
X96480000Y-136285000D02*
X96480000Y-140385000D01*
X96480000Y-140385000D02*
X96280000Y-140385000D01*
X95700460Y-137885000D02*
G75*
G02*
X92259540Y-137885000I-1720460J0D01*
G01*
X92259540Y-137885000D02*
G75*
G02*
X95700460Y-137885000I1720460J0D01*
G01*
%TO.C,LED6*%
X79938703Y-102964400D02*
X84034463Y-100096518D01*
X80053418Y-103128230D02*
X79938703Y-102964400D01*
X81946220Y-105831432D02*
X80799067Y-104193128D01*
X82806585Y-107060160D02*
X82691870Y-106896330D01*
X84149178Y-100260348D02*
X84034463Y-100096518D01*
X84894828Y-101325246D02*
X86041981Y-102963550D01*
X86165108Y-104708497D02*
X82806585Y-107060160D01*
X86214223Y-104429951D02*
X86165108Y-104708497D01*
X85140984Y-103578339D02*
G75*
G02*
X81700064Y-103578339I-1720460J0D01*
G01*
X81700064Y-103578339D02*
G75*
G02*
X85140984Y-103578339I1720460J0D01*
G01*
%TO.C,LED9*%
X82590000Y-123382400D02*
X87590000Y-123382400D01*
X82590000Y-123582400D02*
X82590000Y-123382400D01*
X82590000Y-126882400D02*
X82590000Y-124882400D01*
X82590000Y-128382400D02*
X82590000Y-128182400D01*
X86690000Y-128382400D02*
X82590000Y-128382400D01*
X86890000Y-128182400D02*
X86690000Y-128382400D01*
X87590000Y-123582400D02*
X87590000Y-123382400D01*
X87590000Y-124882400D02*
X87590000Y-126882400D01*
X86810460Y-125882400D02*
G75*
G02*
X83369540Y-125882400I-1720460J0D01*
G01*
X83369540Y-125882400D02*
G75*
G02*
X86810460Y-125882400I1720460J0D01*
G01*
%TO.C,LED3*%
X64810000Y-112506000D02*
X64810000Y-110506000D01*
X64810000Y-113806000D02*
X64810000Y-114006000D01*
X65510000Y-109206000D02*
X65710000Y-109006000D01*
X65710000Y-109006000D02*
X69810000Y-109006000D01*
X69810000Y-109006000D02*
X69810000Y-109206000D01*
X69810000Y-110506000D02*
X69810000Y-112506000D01*
X69810000Y-113806000D02*
X69810000Y-114006000D01*
X69810000Y-114006000D02*
X64810000Y-114006000D01*
X69030460Y-111506000D02*
G75*
G02*
X65589540Y-111506000I-1720460J0D01*
G01*
X65589540Y-111506000D02*
G75*
G02*
X69030460Y-111506000I1720460J0D01*
G01*
%TO.C,LED16*%
X101153894Y-104079248D02*
X101039179Y-104243078D01*
X101899543Y-103014350D02*
X103046696Y-101376046D01*
X104365752Y-100712652D02*
X104644298Y-100663537D01*
X104644298Y-100663537D02*
X108002821Y-103015200D01*
X105134939Y-107110960D02*
X101039179Y-104243078D01*
X105249654Y-106947130D02*
X105134939Y-107110960D01*
X107142457Y-104243928D02*
X105995304Y-105882232D01*
X108002821Y-103015200D02*
X107888106Y-103179030D01*
X106241460Y-103629139D02*
G75*
G02*
X102800540Y-103629139I-1720460J0D01*
G01*
X102800540Y-103629139D02*
G75*
G02*
X106241460Y-103629139I1720460J0D01*
G01*
%TD*%
D14*
X133032500Y-128587500D02*
X133032500Y-98425000D01*
X143827500Y-98425000D02*
X143827500Y-129540000D01*
X79692500Y-108902500D02*
X79692500Y-129540100D01*
X72707500Y-108902500D02*
X72707500Y-131127500D01*
X108267084Y-129649085D02*
G75*
G02*
X79692500Y-129540106I-14287084J108985D01*
G01*
X69532500Y-160655000D02*
X69532500Y-161607500D01*
X61912500Y-107950000D02*
G75*
G02*
X90487500Y-107950000I14287500J0D01*
G01*
X65087500Y-160655000D02*
X65087500Y-161607500D01*
D15*
X60960000Y-144462500D02*
X60979727Y-144534796D01*
X60999365Y-144606682D01*
X61018322Y-144676004D01*
X61037196Y-144744943D01*
X61055464Y-144811589D01*
X61073654Y-144877877D01*
X61091298Y-144942096D01*
X61108870Y-145005978D01*
X61125946Y-145067981D01*
X61142956Y-145129665D01*
X61159513Y-145189631D01*
X61176007Y-145249295D01*
X61192086Y-145307379D01*
X61208107Y-145365176D01*
X61223744Y-145421515D01*
X61239326Y-145477580D01*
X61254553Y-145532292D01*
X61269728Y-145586742D01*
X61284574Y-145639933D01*
X61299370Y-145692873D01*
X61313859Y-145744637D01*
X61328301Y-145796160D01*
X61342455Y-145846580D01*
X61356565Y-145896770D01*
X61370405Y-145945923D01*
X61384204Y-145994854D01*
X61397748Y-146042809D01*
X61411252Y-146090550D01*
X61424517Y-146137369D01*
X61437744Y-146183982D01*
X61450745Y-146229722D01*
X61463710Y-146275262D01*
X61476460Y-146319975D01*
X61489177Y-146364496D01*
X61501689Y-146408230D01*
X61514170Y-146451778D01*
X61526457Y-146494578D01*
X61538713Y-146537197D01*
X61550785Y-146579104D01*
X61562827Y-146620835D01*
X61574695Y-146661886D01*
X61586534Y-146702766D01*
X61598205Y-146742997D01*
X61609850Y-146783062D01*
X61621335Y-146822505D01*
X61632794Y-146861787D01*
X61644099Y-146900474D01*
X61655381Y-146939004D01*
X61666516Y-146976962D01*
X61677627Y-147014768D01*
X61688598Y-147052024D01*
X61699546Y-147089133D01*
X61710359Y-147125714D01*
X61721151Y-147162151D01*
X61731813Y-147198080D01*
X61742455Y-147233868D01*
X61752972Y-147269167D01*
X61763469Y-147304330D01*
X61773847Y-147339020D01*
X61784205Y-147373577D01*
X61794448Y-147407679D01*
X61804673Y-147441651D01*
X61814787Y-147475183D01*
X61824883Y-147508588D01*
X61834872Y-147541568D01*
X61844845Y-147574425D01*
X61854713Y-147606871D01*
X61864566Y-147639195D01*
X61874319Y-147671123D01*
X61884057Y-147702932D01*
X61893698Y-147734356D01*
X61903324Y-147765664D01*
X61912857Y-147796600D01*
X61922376Y-147827423D01*
X61931805Y-147857884D01*
X61941220Y-147888235D01*
X61950547Y-147918235D01*
X61959862Y-147948127D01*
X61969092Y-147977679D01*
X61978310Y-148007125D01*
X61987446Y-148036241D01*
X61996570Y-148065253D01*
X62005614Y-148093944D01*
X62014647Y-148122533D01*
X62023603Y-148150812D01*
X62032548Y-148178990D01*
X62041419Y-148206865D01*
X62050279Y-148234642D01*
X62059066Y-148262125D01*
X62067844Y-148289512D01*
X62076551Y-148316613D01*
X62085248Y-148343619D01*
X62093877Y-148370347D01*
X62102498Y-148396981D01*
X62111051Y-148423345D01*
X62119596Y-148449618D01*
X62128076Y-148475626D01*
X62136549Y-148501545D01*
X62144958Y-148527207D01*
X62153360Y-148552781D01*
X62161700Y-148578104D01*
X62170033Y-148603341D01*
X62178306Y-148628333D01*
X62186573Y-148653241D01*
X62194781Y-148677910D01*
X62202983Y-148702496D01*
X62211129Y-148726849D01*
X62219268Y-148751121D01*
X62227352Y-148775165D01*
X62235430Y-148799129D01*
X62243455Y-148822871D01*
X62251474Y-148846534D01*
X62259441Y-148869980D01*
X62267403Y-148893349D01*
X62275314Y-148916507D01*
X62283220Y-148939587D01*
X62291077Y-148962462D01*
X62298929Y-148985261D01*
X62306732Y-149007858D01*
X62314531Y-149030381D01*
X62322283Y-149052707D01*
X62330031Y-149074960D01*
X62337733Y-149097020D01*
X62345432Y-149119009D01*
X62353085Y-149140809D01*
X62360735Y-149162538D01*
X62368341Y-149184083D01*
X62375944Y-149205558D01*
X62383505Y-149226853D01*
X62391062Y-149248079D01*
X62398578Y-149269128D01*
X62406091Y-149290111D01*
X62413563Y-149310920D01*
X62421033Y-149331663D01*
X62428463Y-149352237D01*
X62435891Y-149372745D01*
X62443280Y-149393088D01*
X62450667Y-149413366D01*
X62458016Y-149433482D01*
X62465364Y-149453535D01*
X62472674Y-149473429D01*
X62479983Y-149493260D01*
X62487256Y-149512935D01*
X62494528Y-149532549D01*
X62501764Y-149552010D01*
X62508999Y-149571411D01*
X62516200Y-149590661D01*
X62523400Y-149609853D01*
X62530566Y-149628897D01*
X62537731Y-149647883D01*
X62544864Y-149666724D01*
X62551996Y-149685508D01*
X62559096Y-149704151D01*
X62566195Y-149722736D01*
X62573264Y-149741183D01*
X62580332Y-149759574D01*
X62587369Y-149777829D01*
X62594406Y-149796029D01*
X62601414Y-149814095D01*
X62608422Y-149832107D01*
X62615400Y-149849988D01*
X62622379Y-149867815D01*
X62629329Y-149885514D01*
X62636280Y-149903159D01*
X62643202Y-149920679D01*
X62650126Y-149938146D01*
X62657022Y-149955490D01*
X62663919Y-149972782D01*
X62670789Y-149989953D01*
X62677661Y-150007073D01*
X62684506Y-150024073D01*
X62691352Y-150041023D01*
X62698173Y-150057857D01*
X62704996Y-150074640D01*
X62711793Y-150091309D01*
X62718592Y-150107929D01*
X62725367Y-150124436D01*
X62732143Y-150140895D01*
X62738896Y-150157243D01*
X62745650Y-150173543D01*
X62752381Y-150189735D01*
X62759114Y-150205879D01*
X62765824Y-150221917D01*
X62772537Y-150237907D01*
X62779227Y-150253793D01*
X62785919Y-150269633D01*
X62792590Y-150285370D01*
X62799263Y-150301062D01*
X62805915Y-150316652D01*
X62812569Y-150332197D01*
X62819203Y-150347643D01*
X62825840Y-150363045D01*
X62832456Y-150378349D01*
X62839075Y-150393609D01*
X62845674Y-150408773D01*
X62852276Y-150423893D01*
X62858859Y-150438920D01*
X62865445Y-150453903D01*
X62872012Y-150468794D01*
X62878583Y-150483643D01*
X62885135Y-150498400D01*
X62891690Y-150513116D01*
X62898227Y-150527742D01*
X62904768Y-150542326D01*
X62911291Y-150556823D01*
X62917818Y-150571279D01*
X62924328Y-150585648D01*
X62930841Y-150599977D01*
X62937338Y-150614221D01*
X62943838Y-150628424D01*
X62950323Y-150642545D01*
X62956811Y-150656625D01*
X62963283Y-150670624D01*
X62969759Y-150684584D01*
X62976220Y-150698462D01*
X62982685Y-150712302D01*
X62989135Y-150726063D01*
X62995590Y-150739785D01*
X63002029Y-150753430D01*
X63008473Y-150767036D01*
X63014903Y-150780566D01*
X63021337Y-150794058D01*
X63027757Y-150807475D01*
X63034182Y-150820855D01*
X63040593Y-150834160D01*
X63047009Y-150847429D01*
X63053412Y-150860625D01*
X63059819Y-150873785D01*
X63066214Y-150886872D01*
X63072614Y-150899925D01*
X63079001Y-150912906D01*
X63085393Y-150925852D01*
X63091773Y-150938729D01*
X63098158Y-150951570D01*
X63104532Y-150964343D01*
X63110910Y-150977082D01*
X63117278Y-150989753D01*
X63123650Y-151002390D01*
X63130012Y-151014961D01*
X63136379Y-151027498D01*
X63142735Y-151039970D01*
X63149096Y-151052408D01*
X63155448Y-151064782D01*
X63161805Y-151077123D01*
X63168152Y-151089401D01*
X63174504Y-151101647D01*
X63180847Y-151113830D01*
X63187195Y-151125981D01*
X63193535Y-151138071D01*
X63199879Y-151150129D01*
X63206216Y-151162126D01*
X63212557Y-151174092D01*
X63218891Y-151185999D01*
X63225230Y-151197875D01*
X63231561Y-151209692D01*
X63237898Y-151221478D01*
X63244226Y-151233207D01*
X63250561Y-151244906D01*
X63256889Y-151256548D01*
X63263222Y-151268159D01*
X63269548Y-151279715D01*
X63275881Y-151291241D01*
X63282206Y-151302713D01*
X63288538Y-151314155D01*
X63294863Y-151325543D01*
X63301194Y-151336902D01*
X63307519Y-151348208D01*
X63313851Y-151359484D01*
X63320176Y-151370709D01*
X63326508Y-151381905D01*
X63332835Y-151393050D01*
X63339168Y-151404166D01*
X63345495Y-151415232D01*
X63351829Y-151426270D01*
X63358158Y-151437258D01*
X63364494Y-151448218D01*
X63370825Y-151459130D01*
X63377163Y-151470013D01*
X63383496Y-151480849D01*
X63389836Y-151491658D01*
X63396172Y-151502419D01*
X63402515Y-151513153D01*
X63408854Y-151523841D01*
X63415200Y-151534502D01*
X63421543Y-151545117D01*
X63427892Y-151555706D01*
X63434239Y-151566250D01*
X63440592Y-151576767D01*
X63446943Y-151587241D01*
X63453301Y-151597688D01*
X63459656Y-151608092D01*
X63466018Y-151618469D01*
X63472378Y-151628805D01*
X63478746Y-151639114D01*
X63485111Y-151649382D01*
X63491484Y-151659624D01*
X63497855Y-151669825D01*
X63504234Y-151680001D01*
X63510611Y-151690136D01*
X63516996Y-151700247D01*
X63523379Y-151710317D01*
X63529771Y-151720363D01*
X63536161Y-151730370D01*
X63542559Y-151740351D01*
X63548957Y-151750295D01*
X63555362Y-151760214D01*
X63561767Y-151770096D01*
X63568180Y-151779953D01*
X63574593Y-151789773D01*
X63581014Y-151799569D01*
X63587436Y-151809329D01*
X63593865Y-151819065D01*
X63600295Y-151828765D01*
X63606733Y-151838442D01*
X63613172Y-151848084D01*
X63619619Y-151857702D01*
X63626067Y-151867285D01*
X63632524Y-151876846D01*
X63638982Y-151886372D01*
X63645448Y-151895876D01*
X63651917Y-151905346D01*
X63658393Y-151914793D01*
X63664872Y-151924208D01*
X63671359Y-151933600D01*
X63677849Y-151942960D01*
X63684347Y-151952298D01*
X63690848Y-151961604D01*
X63697357Y-151970888D01*
X63703870Y-151980141D01*
X63710391Y-151989372D01*
X63716915Y-151998573D01*
X63723449Y-152007752D01*
X63729985Y-152016901D01*
X63736531Y-152026028D01*
X63743081Y-152035126D01*
X63749639Y-152044203D01*
X63756202Y-152053251D01*
X63762774Y-152062277D01*
X63769350Y-152071276D01*
X63775936Y-152080254D01*
X63782526Y-152089203D01*
X63789125Y-152098132D01*
X63795730Y-152107034D01*
X63802344Y-152115915D01*
X63808963Y-152124770D01*
X63815591Y-152133604D01*
X63822226Y-152142412D01*
X63828869Y-152151200D01*
X63835519Y-152159962D01*
X63842178Y-152168704D01*
X63848844Y-152177421D01*
X63855519Y-152186118D01*
X63862201Y-152194790D01*
X63868893Y-152203443D01*
X63875591Y-152212071D01*
X63882300Y-152220680D01*
X63889015Y-152229265D01*
X63895741Y-152237831D01*
X63902474Y-152246374D01*
X63909217Y-152254897D01*
X63915968Y-152263398D01*
X63922729Y-152271880D01*
X63929498Y-152280340D01*
X63936278Y-152288781D01*
X63943066Y-152297200D01*
X63949864Y-152305600D01*
X63956671Y-152313979D01*
X63963489Y-152322340D01*
X63970315Y-152330680D01*
X63977153Y-152339001D01*
X63983999Y-152347302D01*
X63990856Y-152355585D01*
X63997724Y-152363848D01*
X64004601Y-152372093D01*
X64011489Y-152380319D01*
X64018388Y-152388526D01*
X64025297Y-152396715D01*
X64032217Y-152404886D01*
X64039148Y-152413039D01*
X64046090Y-152421174D01*
X64053043Y-152429291D01*
X64060008Y-152437390D01*
X64066983Y-152445472D01*
X64073970Y-152453536D01*
X64080969Y-152461584D01*
X64087979Y-152469614D01*
X64095002Y-152477628D01*
X64102035Y-152485624D01*
X64109082Y-152493605D01*
X64116140Y-152501568D01*
X64123211Y-152509516D01*
X64130293Y-152517446D01*
X64144496Y-152533261D01*
X64158751Y-152549012D01*
X64173057Y-152564702D01*
X64187416Y-152580331D01*
X64201829Y-152595901D01*
X64216297Y-152611412D01*
X64230821Y-152626866D01*
X64245401Y-152642264D01*
X64260040Y-152657606D01*
X64274738Y-152672895D01*
X64289496Y-152688131D01*
X64304315Y-152703315D01*
X64319196Y-152718449D01*
X64334141Y-152733533D01*
X64349151Y-152748569D01*
X64364226Y-152763557D01*
X64379368Y-152778499D01*
X64394577Y-152793395D01*
X64409857Y-152808248D01*
X64425206Y-152823057D01*
X64440627Y-152837824D01*
X64456121Y-152852551D01*
X64471689Y-152867238D01*
X64487333Y-152881885D01*
X64503053Y-152896495D01*
X64518851Y-152911069D01*
X64534729Y-152925607D01*
X64550687Y-152940110D01*
X64566728Y-152954580D01*
X64582852Y-152969018D01*
X64599061Y-152983425D01*
X64615356Y-152997801D01*
X64631739Y-153012148D01*
X64648212Y-153026467D01*
X64664776Y-153040760D01*
X64681432Y-153055026D01*
X64698182Y-153069268D01*
X64715028Y-153083486D01*
X64731972Y-153097682D01*
X64749014Y-153111857D01*
X64766157Y-153126011D01*
X64783403Y-153140146D01*
X64800753Y-153154264D01*
X64818209Y-153168364D01*
X64835773Y-153182449D01*
X64853446Y-153196520D01*
X64871232Y-153210577D01*
X64889131Y-153224622D01*
X64907146Y-153238656D01*
X64925278Y-153252681D01*
X64943530Y-153266697D01*
X64961904Y-153280706D01*
X64980403Y-153294709D01*
X64999027Y-153308707D01*
X65017780Y-153322702D01*
X65036664Y-153336695D01*
X65055682Y-153350687D01*
X65074834Y-153364680D01*
X65094126Y-153378675D01*
X65113557Y-153392673D01*
X65133132Y-153406675D01*
X65152853Y-153420684D01*
X65172723Y-153434700D01*
X65192744Y-153448725D01*
X65212920Y-153462761D01*
X65233253Y-153476809D01*
X65253746Y-153490870D01*
X65274402Y-153504947D01*
X65295225Y-153519040D01*
X65316218Y-153533151D01*
X65337384Y-153547283D01*
X65358726Y-153561436D01*
X65380248Y-153575613D01*
X65401955Y-153589815D01*
X65423848Y-153604044D01*
X65445933Y-153618302D01*
X65468213Y-153632591D01*
X65490692Y-153646913D01*
X65513375Y-153661269D01*
X65536265Y-153675663D01*
X65559367Y-153690095D01*
X65582686Y-153704569D01*
X65606227Y-153719086D01*
X65629994Y-153733648D01*
X65653992Y-153748259D01*
X65678227Y-153762920D01*
X65702704Y-153777634D01*
X65727429Y-153792404D01*
X65752406Y-153807231D01*
X65777643Y-153822120D01*
X65803145Y-153837073D01*
X65828919Y-153852092D01*
X65854972Y-153867181D01*
X65881310Y-153882343D01*
X65907940Y-153897581D01*
X65934870Y-153912898D01*
X65962108Y-153928299D01*
X65989662Y-153943787D01*
X66017540Y-153959365D01*
X66045750Y-153975037D01*
X66074303Y-153990808D01*
X66103207Y-154006682D01*
X66132472Y-154022663D01*
X66162110Y-154038756D01*
X66192130Y-154054967D01*
X66222544Y-154071299D01*
X66253364Y-154087759D01*
X66284603Y-154104352D01*
X66316275Y-154121084D01*
X66348391Y-154137961D01*
X66380969Y-154154989D01*
X66414022Y-154172177D01*
X66447568Y-154189531D01*
X66481623Y-154207058D01*
X66516207Y-154224767D01*
X66551337Y-154242668D01*
X66587036Y-154260767D01*
X66623325Y-154279077D01*
X66660228Y-154297607D01*
X66675000Y-154305000D01*
X72707500Y-131127500D02*
X72707500Y-131127500D01*
D14*
X69532500Y-160655000D02*
X67945000Y-157797500D01*
X143827500Y-129540000D02*
G75*
G02*
X115252500Y-129540000I-14287500J0D01*
G01*
D15*
X138430000Y-90170000D02*
X138407924Y-90194225D01*
X138385845Y-90218333D01*
X138363764Y-90242327D01*
X138341679Y-90266206D01*
X138319591Y-90289973D01*
X138297498Y-90313626D01*
X138275400Y-90337169D01*
X138253296Y-90360602D01*
X138231185Y-90383925D01*
X138209068Y-90407140D01*
X138186942Y-90430247D01*
X138164808Y-90453249D01*
X138142664Y-90476145D01*
X138120510Y-90498937D01*
X138098345Y-90521626D01*
X138076168Y-90544213D01*
X138053979Y-90566699D01*
X138031776Y-90589085D01*
X138009559Y-90611372D01*
X137987327Y-90633562D01*
X137965078Y-90655656D01*
X137942813Y-90677654D01*
X137920529Y-90699557D01*
X137898226Y-90721368D01*
X137875904Y-90743087D01*
X137853559Y-90764716D01*
X137831193Y-90786255D01*
X137808803Y-90807706D01*
X137786388Y-90829071D01*
X137763948Y-90850350D01*
X137741480Y-90871544D01*
X137718985Y-90892657D01*
X137696459Y-90913687D01*
X137673902Y-90934638D01*
X137651313Y-90955511D01*
X137628689Y-90976306D01*
X137606030Y-90997026D01*
X137583334Y-91017672D01*
X137560599Y-91038246D01*
X137537823Y-91058749D01*
X137515005Y-91079182D01*
X137492143Y-91099549D01*
X137469235Y-91119850D01*
X137446278Y-91140087D01*
X137423271Y-91160263D01*
X137400212Y-91180378D01*
X137377098Y-91200436D01*
X137353927Y-91220438D01*
X137330697Y-91240385D01*
X137307404Y-91260282D01*
X137284047Y-91280129D01*
X137260621Y-91299929D01*
X137237125Y-91319685D01*
X137213555Y-91339399D01*
X137189908Y-91359074D01*
X137166181Y-91378712D01*
X137142369Y-91398317D01*
X137118468Y-91417891D01*
X137094476Y-91437438D01*
X137070387Y-91456961D01*
X137046197Y-91476464D01*
X137021901Y-91495950D01*
X136997495Y-91515423D01*
X136972971Y-91534887D01*
X136948326Y-91554347D01*
X136923551Y-91573807D01*
X136898642Y-91593272D01*
X136873590Y-91612748D01*
X136848389Y-91632239D01*
X136823029Y-91651752D01*
X136797502Y-91671294D01*
X136771799Y-91690871D01*
X136745909Y-91710490D01*
X136719821Y-91730160D01*
X136693522Y-91749889D01*
X136666999Y-91769687D01*
X136640238Y-91789565D01*
X136613221Y-91809533D01*
X136585932Y-91829604D01*
X136558349Y-91849793D01*
X136530452Y-91870114D01*
X136502213Y-91890585D01*
X136473607Y-91911226D01*
X136444599Y-91932058D01*
X136415154Y-91953108D01*
X136385228Y-91974403D01*
X136354773Y-91995979D01*
X136323730Y-92017875D01*
X136292030Y-92040137D01*
X136259590Y-92062824D01*
X136226306Y-92086004D01*
X136192052Y-92109766D01*
X136156662Y-92134219D01*
X136119924Y-92159510D01*
X136081543Y-92185836D01*
X136041104Y-92213481D01*
X135997976Y-92242872D01*
X135951113Y-92274716D01*
X135898536Y-92310354D01*
X135835445Y-92353033D01*
X135789130Y-92384333D01*
X135715152Y-92434340D01*
X135678513Y-92459136D01*
X135642108Y-92483811D01*
X135605937Y-92508375D01*
X135570000Y-92532841D01*
X135534297Y-92557219D01*
X135498830Y-92581523D01*
X135481184Y-92593650D01*
X135463597Y-92605764D01*
X135446070Y-92617864D01*
X135428601Y-92629953D01*
X135411190Y-92642031D01*
X135393839Y-92654102D01*
X135376547Y-92666165D01*
X135359314Y-92678223D01*
X135342140Y-92690277D01*
X135325025Y-92702328D01*
X135307969Y-92714378D01*
X135290973Y-92726428D01*
X135274036Y-92738481D01*
X135257157Y-92750536D01*
X135240339Y-92762596D01*
X135223579Y-92774663D01*
X135206879Y-92786737D01*
X135190238Y-92798821D01*
X135173657Y-92810915D01*
X135157135Y-92823021D01*
X135140673Y-92835140D01*
X135124270Y-92847275D01*
X135107927Y-92859426D01*
X135091643Y-92871596D01*
X135075419Y-92883784D01*
X135059255Y-92895994D01*
X135043150Y-92908226D01*
X135027106Y-92920482D01*
X135011121Y-92932763D01*
X134995195Y-92945071D01*
X134979330Y-92957408D01*
X134963525Y-92969774D01*
X134947779Y-92982171D01*
X134932094Y-92994601D01*
X134916468Y-93007065D01*
X134900903Y-93019565D01*
X134885397Y-93032102D01*
X134869952Y-93044677D01*
X134854567Y-93057293D01*
X134839242Y-93069950D01*
X134823977Y-93082650D01*
X134808773Y-93095394D01*
X134793629Y-93108185D01*
X134778545Y-93121022D01*
X134763521Y-93133909D01*
X134748558Y-93146846D01*
X134733656Y-93159834D01*
X134726227Y-93166349D01*
X134718814Y-93172876D01*
X134711415Y-93179418D01*
X134704032Y-93185973D01*
X134696664Y-93192542D01*
X134689311Y-93199126D01*
X134681973Y-93205724D01*
X134674650Y-93212337D01*
X134667343Y-93218964D01*
X134660050Y-93225606D01*
X134652773Y-93232264D01*
X134645511Y-93238937D01*
X134638264Y-93245625D01*
X134631032Y-93252329D01*
X134623816Y-93259049D01*
X134616615Y-93265785D01*
X134609428Y-93272537D01*
X134602258Y-93279306D01*
X134595102Y-93286091D01*
X134587961Y-93292894D01*
X134580836Y-93299713D01*
X134573726Y-93306549D01*
X134566631Y-93313403D01*
X134559551Y-93320274D01*
X134552487Y-93327163D01*
X134545437Y-93334070D01*
X134538403Y-93340995D01*
X134531385Y-93347938D01*
X134524381Y-93354900D01*
X134517393Y-93361880D01*
X134510420Y-93368879D01*
X134503462Y-93375897D01*
X134496520Y-93382935D01*
X134489592Y-93389991D01*
X134482680Y-93397068D01*
X134475784Y-93404164D01*
X134468902Y-93411280D01*
X134462036Y-93418416D01*
X134455185Y-93425572D01*
X134448350Y-93432749D01*
X134441530Y-93439947D01*
X134434725Y-93447165D01*
X134427935Y-93454405D01*
X134421161Y-93461665D01*
X134414402Y-93468947D01*
X134407658Y-93476251D01*
X134400930Y-93483576D01*
X134394217Y-93490924D01*
X134387519Y-93498293D01*
X134380836Y-93505685D01*
X134374169Y-93513099D01*
X134367518Y-93520536D01*
X134360881Y-93527996D01*
X134354260Y-93535479D01*
X134347655Y-93542985D01*
X134341065Y-93550515D01*
X134334490Y-93558068D01*
X134327930Y-93565645D01*
X134321386Y-93573246D01*
X134314857Y-93580871D01*
X134308344Y-93588521D01*
X134301846Y-93596195D01*
X134295363Y-93603893D01*
X134288896Y-93611617D01*
X134282444Y-93619366D01*
X134276008Y-93627139D01*
X134269587Y-93634939D01*
X134263182Y-93642764D01*
X134256792Y-93650615D01*
X134250417Y-93658491D01*
X134244058Y-93666394D01*
X134237714Y-93674324D01*
X134231385Y-93682280D01*
X134225073Y-93690262D01*
X134218775Y-93698272D01*
X134212493Y-93706308D01*
X134206226Y-93714372D01*
X134199975Y-93722464D01*
X134193740Y-93730583D01*
X134187520Y-93738730D01*
X134181315Y-93746904D01*
X134175126Y-93755107D01*
X134168952Y-93763339D01*
X134162794Y-93771599D01*
X134156651Y-93779888D01*
X134150524Y-93788205D01*
X134144412Y-93796552D01*
X134138316Y-93804928D01*
X134132235Y-93813334D01*
X134126170Y-93821769D01*
X134120120Y-93830234D01*
X134114086Y-93838729D01*
X134108068Y-93847255D01*
X134102064Y-93855811D01*
X134096077Y-93864397D01*
X134090105Y-93873014D01*
X134084148Y-93881662D01*
X134078208Y-93890341D01*
X134072282Y-93899052D01*
X134066372Y-93907794D01*
X134060478Y-93916568D01*
X134054600Y-93925373D01*
X134048737Y-93934211D01*
X134042889Y-93943081D01*
X134037057Y-93951983D01*
X134031241Y-93960918D01*
X134025440Y-93969886D01*
X134019655Y-93978887D01*
X134013885Y-93987921D01*
X134008132Y-93996988D01*
X134002393Y-94006089D01*
X133996671Y-94015223D01*
X133990964Y-94024392D01*
X133985272Y-94033594D01*
X133979596Y-94042831D01*
X133973936Y-94052102D01*
X133968292Y-94061408D01*
X133962663Y-94070748D01*
X133957049Y-94080124D01*
X133951452Y-94089535D01*
X133945870Y-94098981D01*
X133940304Y-94108463D01*
X133934753Y-94117980D01*
X133929218Y-94127533D01*
X133923699Y-94137123D01*
X133918195Y-94146749D01*
X133912707Y-94156411D01*
X133907235Y-94166110D01*
X133901778Y-94175845D01*
X133896338Y-94185618D01*
X133890912Y-94195428D01*
X133885503Y-94205275D01*
X133880109Y-94215160D01*
X133874731Y-94225083D01*
X133869369Y-94235043D01*
X133864022Y-94245042D01*
X133858692Y-94255079D01*
X133853376Y-94265154D01*
X133848077Y-94275268D01*
X133842793Y-94285421D01*
X133837526Y-94295614D01*
X133832273Y-94305845D01*
X133827037Y-94316115D01*
X133821816Y-94326426D01*
X133816612Y-94336776D01*
X133811422Y-94347166D01*
X133806249Y-94357596D01*
X133801092Y-94368066D01*
X133795950Y-94378577D01*
X133790824Y-94389129D01*
X133785714Y-94399721D01*
X133780619Y-94410355D01*
X133775541Y-94421030D01*
X133770478Y-94431746D01*
X133765431Y-94442504D01*
X133760400Y-94453304D01*
X133755384Y-94464145D01*
X133750385Y-94475029D01*
X133745401Y-94485955D01*
X133740433Y-94496924D01*
X133735481Y-94507936D01*
X133730545Y-94518990D01*
X133725625Y-94530087D01*
X133720720Y-94541228D01*
X133715831Y-94552412D01*
X133710959Y-94563640D01*
X133706102Y-94574911D01*
X133701261Y-94586227D01*
X133696436Y-94597587D01*
X133691626Y-94608991D01*
X133686833Y-94620439D01*
X133682055Y-94631933D01*
X133677294Y-94643471D01*
X133672548Y-94655055D01*
X133667818Y-94666683D01*
X133663104Y-94678357D01*
X133658406Y-94690077D01*
X133653724Y-94701843D01*
X133649057Y-94713655D01*
X133644407Y-94725513D01*
X133639773Y-94737417D01*
X133635154Y-94749368D01*
X133630552Y-94761365D01*
X133625965Y-94773410D01*
X133621394Y-94785502D01*
X133616840Y-94797641D01*
X133612301Y-94809827D01*
X133607778Y-94822061D01*
X133603271Y-94834343D01*
X133598780Y-94846673D01*
X133594306Y-94859052D01*
X133589847Y-94871478D01*
X133585404Y-94883954D01*
X133580977Y-94896478D01*
X133576566Y-94909051D01*
X133572171Y-94921673D01*
X133567792Y-94934344D01*
X133563429Y-94947065D01*
X133559082Y-94959836D01*
X133554751Y-94972657D01*
X133550436Y-94985527D01*
X133546137Y-94998448D01*
X133541854Y-95011420D01*
X133537587Y-95024442D01*
X133533336Y-95037514D01*
X133529101Y-95050638D01*
X133524883Y-95063813D01*
X133520680Y-95077039D01*
X133516493Y-95090317D01*
X133512323Y-95103646D01*
X133508168Y-95117028D01*
X133504029Y-95130461D01*
X133499907Y-95143947D01*
X133495801Y-95157485D01*
X133491710Y-95171076D01*
X133487636Y-95184720D01*
X133483578Y-95198417D01*
X133479536Y-95212166D01*
X133475510Y-95225970D01*
X133471500Y-95239826D01*
X133467507Y-95253737D01*
X133463529Y-95267701D01*
X133459567Y-95281720D01*
X133455622Y-95295793D01*
X133451693Y-95309920D01*
X133447780Y-95324102D01*
X133443883Y-95338339D01*
X133440002Y-95352631D01*
X133436137Y-95366978D01*
X133432288Y-95381380D01*
X133428456Y-95395838D01*
X133424640Y-95410352D01*
X133420839Y-95424922D01*
X133417055Y-95439548D01*
X133413288Y-95454230D01*
X133409536Y-95468968D01*
X133405801Y-95483764D01*
X133402081Y-95498616D01*
X133398378Y-95513525D01*
X133394691Y-95528492D01*
X133391021Y-95543516D01*
X133387366Y-95558597D01*
X133383728Y-95573736D01*
X133380106Y-95588934D01*
X133376500Y-95604189D01*
X133372910Y-95619503D01*
X133369337Y-95634875D01*
X133365779Y-95650306D01*
X133362238Y-95665796D01*
X133358714Y-95681345D01*
X133355205Y-95696953D01*
X133351713Y-95712620D01*
X133348237Y-95728347D01*
X133344777Y-95744134D01*
X133341333Y-95759981D01*
X133337906Y-95775889D01*
X133334495Y-95791856D01*
X133331100Y-95807884D01*
X133327722Y-95823973D01*
X133324360Y-95840122D01*
X133321014Y-95856333D01*
X133317684Y-95872605D01*
X133314371Y-95888939D01*
X133311074Y-95905334D01*
X133307793Y-95921791D01*
X133304529Y-95938310D01*
X133301281Y-95954891D01*
X133298049Y-95971534D01*
X133294833Y-95988240D01*
X133291634Y-96005009D01*
X133288451Y-96021841D01*
X133285285Y-96038736D01*
X133282135Y-96055694D01*
X133279001Y-96072715D01*
X133275883Y-96089801D01*
X133272782Y-96106950D01*
X133269697Y-96124163D01*
X133266629Y-96141440D01*
X133263577Y-96158782D01*
X133260541Y-96176188D01*
X133257522Y-96193660D01*
X133254519Y-96211196D01*
X133251533Y-96228797D01*
X133248562Y-96246463D01*
X133245609Y-96264195D01*
X133242671Y-96281993D01*
X133239750Y-96299856D01*
X133236846Y-96317786D01*
X133233958Y-96335782D01*
X133231086Y-96353844D01*
X133228231Y-96371973D01*
X133225392Y-96390169D01*
X133222569Y-96408431D01*
X133219763Y-96426761D01*
X133216974Y-96445158D01*
X133214200Y-96463622D01*
X133211444Y-96482155D01*
X133208703Y-96500755D01*
X133205980Y-96519423D01*
X133203272Y-96538160D01*
X133200581Y-96556965D01*
X133197907Y-96575838D01*
X133195249Y-96594781D01*
X133192607Y-96613792D01*
X133189982Y-96632872D01*
X133187374Y-96652022D01*
X133184782Y-96671242D01*
X133182206Y-96690531D01*
X133179647Y-96709890D01*
X133177105Y-96729319D01*
X133174579Y-96748819D01*
X133172069Y-96768388D01*
X133169576Y-96788029D01*
X133167100Y-96807740D01*
X133164640Y-96827523D01*
X133162196Y-96847376D01*
X133159769Y-96867301D01*
X133157359Y-96887298D01*
X133154965Y-96907366D01*
X133152588Y-96927506D01*
X133150227Y-96947718D01*
X133147883Y-96968003D01*
X133145556Y-96988360D01*
X133143245Y-97008790D01*
X133140950Y-97029292D01*
X133138672Y-97049868D01*
X133136411Y-97070517D01*
X133134166Y-97091239D01*
X133131938Y-97112035D01*
X133129727Y-97132904D01*
X133127532Y-97153848D01*
X133125353Y-97174865D01*
X133123191Y-97195957D01*
X133121046Y-97217124D01*
X133118918Y-97238365D01*
X133116806Y-97259681D01*
X133114711Y-97281072D01*
X133112632Y-97302538D01*
X133110570Y-97324080D01*
X133108525Y-97345697D01*
X133106496Y-97367391D01*
X133104484Y-97389160D01*
X133102488Y-97411005D01*
X133100510Y-97432926D01*
X133098548Y-97454925D01*
X133096602Y-97476999D01*
X133094673Y-97499151D01*
X133092761Y-97521380D01*
X133090866Y-97543686D01*
X133088987Y-97566069D01*
X133087125Y-97588530D01*
X133085280Y-97611069D01*
X133083451Y-97633686D01*
X133081639Y-97656381D01*
X133079844Y-97679155D01*
X133078065Y-97702007D01*
X133076303Y-97724937D01*
X133074558Y-97747947D01*
X133072830Y-97771036D01*
X133071118Y-97794204D01*
X133069423Y-97817451D01*
X133067745Y-97840778D01*
X133066083Y-97864185D01*
X133064439Y-97887672D01*
X133062811Y-97911239D01*
X133061199Y-97934887D01*
X133059605Y-97958615D01*
X133058027Y-97982424D01*
X133056466Y-98006313D01*
X133054922Y-98030284D01*
X133053395Y-98054337D01*
X133051884Y-98078470D01*
X133050390Y-98102685D01*
X133048913Y-98126983D01*
X133047453Y-98151362D01*
X133046010Y-98175823D01*
X133044583Y-98200367D01*
X133043173Y-98224994D01*
X133041780Y-98249703D01*
X133040404Y-98274495D01*
X133039044Y-98299370D01*
X133037702Y-98324329D01*
X133036376Y-98349371D01*
X133035067Y-98374497D01*
X133033775Y-98399706D01*
X133032500Y-98425000D01*
D14*
X67945000Y-157797500D02*
X67945000Y-154305000D01*
X67310000Y-158750000D02*
X69532500Y-161607500D01*
X126047500Y-128587500D02*
X126047500Y-107950000D01*
D15*
X61912500Y-131127500D02*
X61902257Y-131146869D01*
X61892047Y-131166219D01*
X61881876Y-131185537D01*
X61871738Y-131204837D01*
X61861638Y-131224105D01*
X61851572Y-131243354D01*
X61841544Y-131262572D01*
X61831548Y-131281772D01*
X61821591Y-131300941D01*
X61811666Y-131320091D01*
X61801779Y-131339210D01*
X61791925Y-131358311D01*
X61782109Y-131377381D01*
X61772324Y-131396434D01*
X61762578Y-131415456D01*
X61752863Y-131434459D01*
X61743186Y-131453433D01*
X61733541Y-131472389D01*
X61723934Y-131491315D01*
X61714358Y-131510223D01*
X61704819Y-131529102D01*
X61695312Y-131547963D01*
X61685841Y-131566794D01*
X61676403Y-131585608D01*
X61667001Y-131604393D01*
X61657630Y-131623160D01*
X61648296Y-131641899D01*
X61638993Y-131660619D01*
X61629726Y-131679312D01*
X61620491Y-131697987D01*
X61611292Y-131716634D01*
X61602123Y-131735263D01*
X61592991Y-131753865D01*
X61583889Y-131772449D01*
X61574823Y-131791005D01*
X61565788Y-131809544D01*
X61556789Y-131828056D01*
X61547820Y-131846551D01*
X61538886Y-131865018D01*
X61529983Y-131883469D01*
X61521115Y-131901893D01*
X61512277Y-131920299D01*
X61503475Y-131938679D01*
X61494702Y-131957042D01*
X61485965Y-131975379D01*
X61477257Y-131993699D01*
X61468584Y-132011993D01*
X61459942Y-132030270D01*
X61451333Y-132048521D01*
X61442755Y-132066756D01*
X61434210Y-132084965D01*
X61425696Y-132103157D01*
X61417215Y-132121324D01*
X61408764Y-132139475D01*
X61400347Y-132157601D01*
X61391959Y-132175710D01*
X61383606Y-132193794D01*
X61375281Y-132211862D01*
X61366990Y-132229905D01*
X61358729Y-132247933D01*
X61350500Y-132265935D01*
X61342301Y-132283922D01*
X61334135Y-132301885D01*
X61325998Y-132319831D01*
X61317894Y-132337754D01*
X61309819Y-132355661D01*
X61301777Y-132373544D01*
X61293763Y-132391411D01*
X61285782Y-132409255D01*
X61277830Y-132427083D01*
X61269911Y-132444888D01*
X61262020Y-132462678D01*
X61254161Y-132480444D01*
X61246331Y-132498195D01*
X61238532Y-132515923D01*
X61230763Y-132533636D01*
X61223025Y-132551326D01*
X61215316Y-132569001D01*
X61207638Y-132586654D01*
X61199988Y-132604291D01*
X61192370Y-132621907D01*
X61184780Y-132639507D01*
X61177222Y-132657086D01*
X61169691Y-132674649D01*
X61162192Y-132692191D01*
X61154721Y-132709718D01*
X61147280Y-132727224D01*
X61139868Y-132744714D01*
X61132486Y-132762184D01*
X61125132Y-132779639D01*
X61117809Y-132797073D01*
X61110513Y-132814492D01*
X61103248Y-132831891D01*
X61096011Y-132849275D01*
X61088803Y-132866639D01*
X61081624Y-132883989D01*
X61074474Y-132901318D01*
X61067352Y-132918632D01*
X61060260Y-132935927D01*
X61053195Y-132953208D01*
X61046160Y-132970469D01*
X61039152Y-132987715D01*
X61032174Y-133004943D01*
X61025223Y-133022155D01*
X61018301Y-133039349D01*
X61011407Y-133056529D01*
X61004541Y-133073690D01*
X60997703Y-133090837D01*
X60990894Y-133107965D01*
X60984112Y-133125079D01*
X60977359Y-133142175D01*
X60970632Y-133159256D01*
X60963934Y-133176320D01*
X60957264Y-133193370D01*
X60950621Y-133210402D01*
X60944006Y-133227420D01*
X60937419Y-133244420D01*
X60930858Y-133261407D01*
X60924326Y-133278377D01*
X60917820Y-133295332D01*
X60911343Y-133312271D01*
X60904892Y-133329196D01*
X60898468Y-133346104D01*
X60892072Y-133362999D01*
X60885703Y-133379877D01*
X60879360Y-133396742D01*
X60873045Y-133413590D01*
X60866756Y-133430425D01*
X60860495Y-133447243D01*
X60854260Y-133464049D01*
X60848052Y-133480838D01*
X60841870Y-133497614D01*
X60835716Y-133514375D01*
X60829587Y-133531123D01*
X60823486Y-133547855D01*
X60817410Y-133564574D01*
X60811362Y-133581278D01*
X60805339Y-133597968D01*
X60799343Y-133614644D01*
X60793373Y-133631307D01*
X60787429Y-133647956D01*
X60781511Y-133664591D01*
X60775619Y-133681212D01*
X60769754Y-133697821D01*
X60763914Y-133714415D01*
X60758100Y-133730996D01*
X60752312Y-133747563D01*
X60746550Y-133764118D01*
X60740813Y-133780659D01*
X60735103Y-133797188D01*
X60729417Y-133813703D01*
X60723758Y-133830206D01*
X60718124Y-133846695D01*
X60712515Y-133863172D01*
X60706932Y-133879636D01*
X60701374Y-133896088D01*
X60695842Y-133912527D01*
X60690335Y-133928954D01*
X60684853Y-133945368D01*
X60679396Y-133961770D01*
X60673965Y-133978160D01*
X60668558Y-133994538D01*
X60663177Y-134010903D01*
X60657820Y-134027257D01*
X60652488Y-134043599D01*
X60647182Y-134059929D01*
X60641900Y-134076248D01*
X60636642Y-134092554D01*
X60631410Y-134108850D01*
X60626202Y-134125133D01*
X60621019Y-134141406D01*
X60615861Y-134157666D01*
X60610726Y-134173917D01*
X60605617Y-134190155D01*
X60600532Y-134206383D01*
X60595471Y-134222599D01*
X60590435Y-134238805D01*
X60585423Y-134254999D01*
X60580435Y-134271184D01*
X60575471Y-134287357D01*
X60570532Y-134303520D01*
X60565617Y-134319672D01*
X60560725Y-134335814D01*
X60555858Y-134351945D01*
X60551015Y-134368067D01*
X60546195Y-134384178D01*
X60541400Y-134400279D01*
X60536628Y-134416369D01*
X60531880Y-134432451D01*
X60527157Y-134448521D01*
X60522456Y-134464583D01*
X60517779Y-134480634D01*
X60513126Y-134496677D01*
X60508497Y-134512709D01*
X60503891Y-134528732D01*
X60499309Y-134544745D01*
X60494749Y-134560750D01*
X60490214Y-134576745D01*
X60485701Y-134592731D01*
X60481213Y-134608707D01*
X60476747Y-134624676D01*
X60472305Y-134640634D01*
X60467885Y-134656585D01*
X60463490Y-134672526D01*
X60459116Y-134688460D01*
X60454767Y-134704383D01*
X60450440Y-134720300D01*
X60446136Y-134736206D01*
X60441855Y-134752106D01*
X60437597Y-134767996D01*
X60433362Y-134783880D01*
X60429150Y-134799753D01*
X60424960Y-134815621D01*
X60420794Y-134831478D01*
X60416650Y-134847330D01*
X60412529Y-134863172D01*
X60408430Y-134879009D01*
X60404354Y-134894835D01*
X60400300Y-134910657D01*
X60396270Y-134926469D01*
X60392261Y-134942276D01*
X60388275Y-134958073D01*
X60384311Y-134973865D01*
X60380371Y-134989648D01*
X60376451Y-135005427D01*
X60372555Y-135021196D01*
X60368681Y-135036961D01*
X60364829Y-135052716D01*
X60360999Y-135068467D01*
X60357191Y-135084209D01*
X60353405Y-135099948D01*
X60349642Y-135115677D01*
X60345901Y-135131403D01*
X60342182Y-135147119D01*
X60334809Y-135178537D01*
X60327524Y-135209931D01*
X60320326Y-135241302D01*
X60313216Y-135272650D01*
X60306192Y-135303976D01*
X60299255Y-135335281D01*
X60292404Y-135366566D01*
X60285640Y-135397831D01*
X60278961Y-135429078D01*
X60272368Y-135460305D01*
X60265860Y-135491516D01*
X60259438Y-135522709D01*
X60253100Y-135553886D01*
X60246847Y-135585048D01*
X60240679Y-135616195D01*
X60234595Y-135647328D01*
X60228595Y-135678447D01*
X60222678Y-135709554D01*
X60216845Y-135740650D01*
X60211096Y-135771734D01*
X60205430Y-135802808D01*
X60199846Y-135833873D01*
X60194346Y-135864928D01*
X60188928Y-135895976D01*
X60183592Y-135927016D01*
X60178339Y-135958050D01*
X60173167Y-135989078D01*
X60168078Y-136020102D01*
X60163070Y-136051121D01*
X60158144Y-136082136D01*
X60153299Y-136113149D01*
X60148535Y-136144161D01*
X60143852Y-136175171D01*
X60139250Y-136206181D01*
X60134728Y-136237192D01*
X60130287Y-136268204D01*
X60125927Y-136299219D01*
X60121647Y-136330236D01*
X60117446Y-136361258D01*
X60113326Y-136392285D01*
X60109286Y-136423317D01*
X60105325Y-136454356D01*
X60101445Y-136485402D01*
X60097643Y-136516456D01*
X60093921Y-136547520D01*
X60090278Y-136578594D01*
X60086715Y-136609679D01*
X60083230Y-136640775D01*
X60079824Y-136671885D01*
X60076498Y-136703008D01*
X60073250Y-136734146D01*
X60070080Y-136765299D01*
X60066990Y-136796469D01*
X60063978Y-136827657D01*
X60061044Y-136858863D01*
X60058189Y-136890088D01*
X60055412Y-136921334D01*
X60052714Y-136952602D01*
X60050093Y-136983892D01*
X60047551Y-137015205D01*
X60045088Y-137046543D01*
X60042702Y-137077907D01*
X60040394Y-137109298D01*
X60038165Y-137140716D01*
X60036013Y-137172163D01*
X60033940Y-137203640D01*
X60031944Y-137235147D01*
X60030027Y-137266688D01*
X60028188Y-137298261D01*
X60026426Y-137329869D01*
X60024743Y-137361512D01*
X60023138Y-137393193D01*
X60021611Y-137424911D01*
X60020162Y-137456668D01*
X60018791Y-137488466D01*
X60017498Y-137520306D01*
X60016283Y-137552189D01*
X60015147Y-137584116D01*
X60014089Y-137616088D01*
X60013109Y-137648108D01*
X60012208Y-137680176D01*
X60011386Y-137712293D01*
X60010642Y-137744461D01*
X60009976Y-137776682D01*
X60009390Y-137808956D01*
X60008882Y-137841286D01*
X60008454Y-137873673D01*
X60008104Y-137906117D01*
X60007834Y-137938622D01*
X60007643Y-137971188D01*
X60007532Y-138003816D01*
X60007500Y-138036509D01*
X60007549Y-138069269D01*
X60007677Y-138102096D01*
X60007885Y-138134992D01*
X60008174Y-138167960D01*
X60008543Y-138201001D01*
X60008993Y-138234116D01*
X60009524Y-138267308D01*
X60010136Y-138300578D01*
X60010829Y-138333929D01*
X60011604Y-138367361D01*
X60012461Y-138400878D01*
X60013400Y-138434481D01*
X60014421Y-138468172D01*
X60015525Y-138501954D01*
X60016712Y-138535828D01*
X60017982Y-138569796D01*
X60019336Y-138603861D01*
X60020773Y-138638026D01*
X60022295Y-138672292D01*
X60023901Y-138706661D01*
X60025593Y-138741137D01*
X60027369Y-138775721D01*
X60029231Y-138810417D01*
X60031180Y-138845227D01*
X60033215Y-138880153D01*
X60035336Y-138915199D01*
X60037545Y-138950366D01*
X60039842Y-138985659D01*
X60042228Y-139021079D01*
X60044702Y-139056631D01*
X60047266Y-139092316D01*
X60049919Y-139128139D01*
X60052663Y-139164102D01*
X60055498Y-139200209D01*
X60058425Y-139236463D01*
X60061444Y-139272869D01*
X60064556Y-139309429D01*
X60067762Y-139346147D01*
X60071062Y-139383028D01*
X60074457Y-139420075D01*
X60077947Y-139457292D01*
X60081535Y-139494684D01*
X60085219Y-139532255D01*
X60089002Y-139570010D01*
X60092884Y-139607953D01*
X60096866Y-139646089D01*
X60100949Y-139684423D01*
X60105134Y-139722961D01*
X60109422Y-139761707D01*
X60113814Y-139800668D01*
X60118311Y-139839849D01*
X60122914Y-139879256D01*
X60127625Y-139918895D01*
X60132444Y-139958773D01*
X60137374Y-139998897D01*
X60142414Y-140039273D01*
X60147568Y-140079909D01*
X60152836Y-140120812D01*
X60158220Y-140161990D01*
X60163722Y-140203452D01*
X60169343Y-140245205D01*
X60175084Y-140287260D01*
X60180949Y-140329625D01*
X60186938Y-140372311D01*
X60193055Y-140415327D01*
X60199300Y-140458684D01*
X60205677Y-140502395D01*
X60212188Y-140546470D01*
X60218835Y-140590923D01*
X60225621Y-140635766D01*
X60232549Y-140681015D01*
X60239622Y-140726683D01*
X60246843Y-140772787D01*
X60254216Y-140819343D01*
X60261743Y-140866368D01*
X60269430Y-140913882D01*
X60277279Y-140961906D01*
X60285296Y-141010459D01*
X60293485Y-141059565D01*
X60301851Y-141109249D01*
X60310399Y-141159538D01*
X60319136Y-141210458D01*
X60328067Y-141262042D01*
X60337200Y-141314323D01*
X60346541Y-141367336D01*
X60356099Y-141421121D01*
X60365883Y-141475721D01*
X60375902Y-141531183D01*
X60386167Y-141587559D01*
X60396689Y-141644905D01*
X60407482Y-141703287D01*
X60418560Y-141762773D01*
X60429939Y-141823445D01*
X60441639Y-141885392D01*
X60453679Y-141948716D01*
X60466083Y-142013534D01*
X60478881Y-142079981D01*
X60492102Y-142148216D01*
X60505787Y-142218423D01*
X60519980Y-142290825D01*
X60534736Y-142365690D01*
X60550123Y-142443350D01*
X60566227Y-142524221D01*
X60583157Y-142608841D01*
X60601060Y-142697927D01*
X60620139Y-142792472D01*
X60640692Y-142893928D01*
X60663186Y-143004581D01*
X60688444Y-143128451D01*
X60718203Y-143274028D01*
X60758934Y-143472941D01*
X60783789Y-143594300D01*
X60808756Y-143716294D01*
X60833818Y-143838940D01*
X60858959Y-143962254D01*
X60871554Y-144024166D01*
X60884164Y-144086251D01*
X60896785Y-144148510D01*
X60909416Y-144210947D01*
X60922055Y-144273562D01*
X60934700Y-144336358D01*
X60947349Y-144399337D01*
X60960000Y-144462500D01*
X72707500Y-131127500D02*
X72717743Y-131146869D01*
X72727953Y-131166219D01*
X72738124Y-131185537D01*
X72748262Y-131204837D01*
X72758362Y-131224105D01*
X72768428Y-131243354D01*
X72778456Y-131262572D01*
X72788452Y-131281772D01*
X72798409Y-131300941D01*
X72808334Y-131320091D01*
X72818221Y-131339210D01*
X72828075Y-131358311D01*
X72837891Y-131377381D01*
X72847676Y-131396434D01*
X72857422Y-131415456D01*
X72867137Y-131434459D01*
X72876814Y-131453433D01*
X72886459Y-131472389D01*
X72896066Y-131491315D01*
X72905642Y-131510223D01*
X72915181Y-131529102D01*
X72924688Y-131547963D01*
X72934159Y-131566794D01*
X72943597Y-131585608D01*
X72952999Y-131604393D01*
X72962370Y-131623160D01*
X72971704Y-131641899D01*
X72981007Y-131660619D01*
X72990274Y-131679312D01*
X72999509Y-131697987D01*
X73008708Y-131716634D01*
X73017877Y-131735263D01*
X73027009Y-131753865D01*
X73036111Y-131772449D01*
X73045177Y-131791005D01*
X73054212Y-131809544D01*
X73063211Y-131828056D01*
X73072180Y-131846551D01*
X73081114Y-131865018D01*
X73090017Y-131883469D01*
X73098885Y-131901893D01*
X73107723Y-131920299D01*
X73116525Y-131938679D01*
X73125298Y-131957042D01*
X73134035Y-131975379D01*
X73142743Y-131993699D01*
X73151416Y-132011993D01*
X73160058Y-132030270D01*
X73168667Y-132048521D01*
X73177245Y-132066756D01*
X73185790Y-132084965D01*
X73194304Y-132103157D01*
X73202785Y-132121324D01*
X73211236Y-132139475D01*
X73219653Y-132157601D01*
X73228041Y-132175710D01*
X73236394Y-132193794D01*
X73244719Y-132211862D01*
X73253010Y-132229905D01*
X73261271Y-132247933D01*
X73269500Y-132265935D01*
X73277699Y-132283922D01*
X73285865Y-132301885D01*
X73294002Y-132319831D01*
X73302106Y-132337754D01*
X73310181Y-132355661D01*
X73318223Y-132373544D01*
X73326237Y-132391411D01*
X73334218Y-132409255D01*
X73342170Y-132427083D01*
X73350089Y-132444888D01*
X73357980Y-132462678D01*
X73365839Y-132480444D01*
X73373669Y-132498195D01*
X73381468Y-132515923D01*
X73389237Y-132533636D01*
X73396975Y-132551326D01*
X73404684Y-132569001D01*
X73412362Y-132586654D01*
X73420012Y-132604291D01*
X73427630Y-132621907D01*
X73435220Y-132639507D01*
X73442778Y-132657086D01*
X73450309Y-132674649D01*
X73457808Y-132692191D01*
X73465279Y-132709718D01*
X73472720Y-132727224D01*
X73480132Y-132744714D01*
X73487514Y-132762184D01*
X73494868Y-132779639D01*
X73502191Y-132797073D01*
X73509487Y-132814492D01*
X73516752Y-132831891D01*
X73523989Y-132849275D01*
X73531197Y-132866639D01*
X73538376Y-132883989D01*
X73545526Y-132901318D01*
X73552648Y-132918632D01*
X73559740Y-132935927D01*
X73566805Y-132953208D01*
X73573840Y-132970469D01*
X73580848Y-132987715D01*
X73587826Y-133004943D01*
X73594777Y-133022155D01*
X73601699Y-133039349D01*
X73608593Y-133056529D01*
X73615459Y-133073690D01*
X73622297Y-133090837D01*
X73629106Y-133107965D01*
X73635888Y-133125079D01*
X73642641Y-133142175D01*
X73649368Y-133159256D01*
X73656066Y-133176320D01*
X73662736Y-133193370D01*
X73669379Y-133210402D01*
X73675994Y-133227420D01*
X73682581Y-133244420D01*
X73689142Y-133261407D01*
X73695674Y-133278377D01*
X73702180Y-133295332D01*
X73708657Y-133312271D01*
X73715108Y-133329196D01*
X73721532Y-133346104D01*
X73727928Y-133362999D01*
X73734297Y-133379877D01*
X73740640Y-133396742D01*
X73746955Y-133413590D01*
X73753244Y-133430425D01*
X73759505Y-133447243D01*
X73765740Y-133464049D01*
X73771948Y-133480838D01*
X73778130Y-133497614D01*
X73784284Y-133514375D01*
X73790413Y-133531123D01*
X73796514Y-133547855D01*
X73802590Y-133564574D01*
X73808638Y-133581278D01*
X73814661Y-133597968D01*
X73820657Y-133614644D01*
X73826627Y-133631307D01*
X73832571Y-133647956D01*
X73838489Y-133664591D01*
X73844381Y-133681212D01*
X73850246Y-133697821D01*
X73856086Y-133714415D01*
X73861900Y-133730996D01*
X73867688Y-133747563D01*
X73873450Y-133764118D01*
X73879187Y-133780659D01*
X73884897Y-133797188D01*
X73890583Y-133813703D01*
X73896242Y-133830206D01*
X73901876Y-133846695D01*
X73907485Y-133863172D01*
X73913068Y-133879636D01*
X73918626Y-133896088D01*
X73924158Y-133912527D01*
X73929665Y-133928954D01*
X73935147Y-133945368D01*
X73940604Y-133961770D01*
X73946035Y-133978160D01*
X73951442Y-133994538D01*
X73956823Y-134010903D01*
X73962180Y-134027257D01*
X73967512Y-134043599D01*
X73972818Y-134059929D01*
X73978100Y-134076248D01*
X73983358Y-134092554D01*
X73988590Y-134108850D01*
X73993798Y-134125133D01*
X73998981Y-134141406D01*
X74004139Y-134157666D01*
X74009274Y-134173917D01*
X74014383Y-134190155D01*
X74019468Y-134206383D01*
X74024529Y-134222599D01*
X74029565Y-134238805D01*
X74034577Y-134254999D01*
X74039565Y-134271184D01*
X74044529Y-134287357D01*
X74049468Y-134303520D01*
X74054383Y-134319672D01*
X74059275Y-134335814D01*
X74064142Y-134351945D01*
X74068985Y-134368067D01*
X74073805Y-134384178D01*
X74078600Y-134400279D01*
X74083372Y-134416369D01*
X74088120Y-134432451D01*
X74092843Y-134448521D01*
X74097544Y-134464583D01*
X74102221Y-134480634D01*
X74106874Y-134496677D01*
X74111503Y-134512709D01*
X74116109Y-134528732D01*
X74120691Y-134544745D01*
X74125251Y-134560750D01*
X74129786Y-134576745D01*
X74134299Y-134592731D01*
X74138787Y-134608707D01*
X74143253Y-134624676D01*
X74147695Y-134640634D01*
X74152115Y-134656585D01*
X74156510Y-134672526D01*
X74160884Y-134688460D01*
X74165233Y-134704383D01*
X74169560Y-134720300D01*
X74173864Y-134736206D01*
X74178145Y-134752106D01*
X74182403Y-134767996D01*
X74186638Y-134783880D01*
X74190850Y-134799753D01*
X74195040Y-134815621D01*
X74199206Y-134831478D01*
X74203350Y-134847330D01*
X74207471Y-134863172D01*
X74211570Y-134879009D01*
X74215646Y-134894835D01*
X74219700Y-134910657D01*
X74223730Y-134926469D01*
X74227739Y-134942276D01*
X74231725Y-134958073D01*
X74235689Y-134973865D01*
X74239629Y-134989648D01*
X74243549Y-135005427D01*
X74247445Y-135021196D01*
X74251319Y-135036961D01*
X74255171Y-135052716D01*
X74259001Y-135068467D01*
X74262809Y-135084209D01*
X74266595Y-135099948D01*
X74270358Y-135115677D01*
X74274099Y-135131403D01*
X74277818Y-135147119D01*
X74285191Y-135178537D01*
X74292476Y-135209931D01*
X74299674Y-135241302D01*
X74306784Y-135272650D01*
X74313808Y-135303976D01*
X74320745Y-135335281D01*
X74327596Y-135366566D01*
X74334360Y-135397831D01*
X74341039Y-135429078D01*
X74347632Y-135460305D01*
X74354140Y-135491516D01*
X74360562Y-135522709D01*
X74366900Y-135553886D01*
X74373153Y-135585048D01*
X74379321Y-135616195D01*
X74385405Y-135647328D01*
X74391405Y-135678447D01*
X74397322Y-135709554D01*
X74403155Y-135740650D01*
X74408904Y-135771734D01*
X74414570Y-135802808D01*
X74420154Y-135833873D01*
X74425654Y-135864928D01*
X74431072Y-135895976D01*
X74436408Y-135927016D01*
X74441661Y-135958050D01*
X74446833Y-135989078D01*
X74451922Y-136020102D01*
X74456930Y-136051121D01*
X74461856Y-136082136D01*
X74466701Y-136113149D01*
X74471465Y-136144161D01*
X74476148Y-136175171D01*
X74480750Y-136206181D01*
X74485272Y-136237192D01*
X74489713Y-136268204D01*
X74494073Y-136299219D01*
X74498353Y-136330236D01*
X74502554Y-136361258D01*
X74506674Y-136392285D01*
X74510714Y-136423317D01*
X74514675Y-136454356D01*
X74518555Y-136485402D01*
X74522357Y-136516456D01*
X74526079Y-136547520D01*
X74529722Y-136578594D01*
X74533285Y-136609679D01*
X74536770Y-136640775D01*
X74540176Y-136671885D01*
X74543502Y-136703008D01*
X74546750Y-136734146D01*
X74549920Y-136765299D01*
X74553010Y-136796469D01*
X74556022Y-136827657D01*
X74558956Y-136858863D01*
X74561811Y-136890088D01*
X74564588Y-136921334D01*
X74567286Y-136952602D01*
X74569907Y-136983892D01*
X74572449Y-137015205D01*
X74574912Y-137046543D01*
X74577298Y-137077907D01*
X74579606Y-137109298D01*
X74581835Y-137140716D01*
X74583987Y-137172163D01*
X74586060Y-137203640D01*
X74588056Y-137235147D01*
X74589973Y-137266688D01*
X74591812Y-137298261D01*
X74593574Y-137329869D01*
X74595257Y-137361512D01*
X74596862Y-137393193D01*
X74598389Y-137424911D01*
X74599838Y-137456668D01*
X74601209Y-137488466D01*
X74602502Y-137520306D01*
X74603717Y-137552189D01*
X74604853Y-137584116D01*
X74605911Y-137616088D01*
X74606891Y-137648108D01*
X74607792Y-137680176D01*
X74608614Y-137712293D01*
X74609358Y-137744461D01*
X74610024Y-137776682D01*
X74610610Y-137808956D01*
X74611118Y-137841286D01*
X74611546Y-137873673D01*
X74611896Y-137906117D01*
X74612166Y-137938622D01*
X74612357Y-137971188D01*
X74612468Y-138003816D01*
X74612500Y-138036509D01*
X74612451Y-138069269D01*
X74612323Y-138102096D01*
X74612115Y-138134992D01*
X74611826Y-138167960D01*
X74611457Y-138201001D01*
X74611007Y-138234116D01*
X74610476Y-138267308D01*
X74609864Y-138300578D01*
X74609171Y-138333929D01*
X74608396Y-138367361D01*
X74607539Y-138400878D01*
X74606600Y-138434481D01*
X74605579Y-138468172D01*
X74604475Y-138501954D01*
X74603288Y-138535828D01*
X74602018Y-138569796D01*
X74600664Y-138603861D01*
X74599227Y-138638026D01*
X74597705Y-138672292D01*
X74596099Y-138706661D01*
X74594407Y-138741137D01*
X74592631Y-138775721D01*
X74590769Y-138810417D01*
X74588820Y-138845227D01*
X74586785Y-138880153D01*
X74584664Y-138915199D01*
X74582455Y-138950366D01*
X74580158Y-138985659D01*
X74577772Y-139021079D01*
X74575298Y-139056631D01*
X74572734Y-139092316D01*
X74570081Y-139128139D01*
X74567337Y-139164102D01*
X74564502Y-139200209D01*
X74561575Y-139236463D01*
X74558556Y-139272869D01*
X74555444Y-139309429D01*
X74552238Y-139346147D01*
X74548938Y-139383028D01*
X74545543Y-139420075D01*
X74542053Y-139457292D01*
X74538465Y-139494684D01*
X74534781Y-139532255D01*
X74530998Y-139570010D01*
X74527116Y-139607953D01*
X74523134Y-139646089D01*
X74519051Y-139684423D01*
X74514866Y-139722961D01*
X74510578Y-139761707D01*
X74506186Y-139800668D01*
X74501689Y-139839849D01*
X74497086Y-139879256D01*
X74492375Y-139918895D01*
X74487556Y-139958773D01*
X74482626Y-139998897D01*
X74477586Y-140039273D01*
X74472432Y-140079909D01*
X74467164Y-140120812D01*
X74461780Y-140161990D01*
X74456278Y-140203452D01*
X74450657Y-140245205D01*
X74444916Y-140287260D01*
X74439051Y-140329625D01*
X74433062Y-140372311D01*
X74426945Y-140415327D01*
X74420700Y-140458684D01*
X74414323Y-140502395D01*
X74407812Y-140546470D01*
X74401165Y-140590923D01*
X74394379Y-140635766D01*
X74387451Y-140681015D01*
X74380378Y-140726683D01*
X74373157Y-140772787D01*
X74365784Y-140819343D01*
X74358257Y-140866368D01*
X74350570Y-140913882D01*
X74342721Y-140961906D01*
X74334704Y-141010459D01*
X74326515Y-141059565D01*
X74318149Y-141109249D01*
X74309601Y-141159538D01*
X74300864Y-141210458D01*
X74291933Y-141262042D01*
X74282800Y-141314323D01*
X74273459Y-141367336D01*
X74263901Y-141421121D01*
X74254117Y-141475721D01*
X74244098Y-141531183D01*
X74233833Y-141587559D01*
X74223311Y-141644905D01*
X74212518Y-141703287D01*
X74201440Y-141762773D01*
X74190061Y-141823445D01*
X74178361Y-141885392D01*
X74166321Y-141948716D01*
X74153917Y-142013534D01*
X74141119Y-142079981D01*
X74127898Y-142148216D01*
X74114213Y-142218423D01*
X74100020Y-142290825D01*
X74085264Y-142365690D01*
X74069877Y-142443350D01*
X74053773Y-142524221D01*
X74036843Y-142608841D01*
X74018940Y-142697927D01*
X73999861Y-142792472D01*
X73979308Y-142893928D01*
X73956814Y-143004581D01*
X73931556Y-143128451D01*
X73901797Y-143274028D01*
X73861066Y-143472941D01*
X73836211Y-143594300D01*
X73811244Y-143716294D01*
X73786182Y-143838940D01*
X73761041Y-143962254D01*
X73748446Y-144024166D01*
X73735836Y-144086251D01*
X73723215Y-144148510D01*
X73710584Y-144210947D01*
X73697945Y-144273562D01*
X73685300Y-144336358D01*
X73672651Y-144399337D01*
X73660000Y-144462500D01*
D14*
X97472500Y-128587500D02*
G75*
G02*
X90487500Y-128587500I-3492500J0D01*
G01*
X65087500Y-161607500D02*
X67310000Y-158750000D01*
X115252500Y-108902500D02*
X115252500Y-129540000D01*
X66675000Y-154305000D02*
X66675000Y-157797500D01*
X108267084Y-129648996D02*
X108267500Y-108902500D01*
D15*
X73660000Y-144462500D02*
X73640273Y-144534796D01*
X73620635Y-144606682D01*
X73601678Y-144676004D01*
X73582804Y-144744943D01*
X73564536Y-144811589D01*
X73546346Y-144877877D01*
X73528702Y-144942096D01*
X73511130Y-145005978D01*
X73494054Y-145067981D01*
X73477044Y-145129665D01*
X73460487Y-145189631D01*
X73443993Y-145249295D01*
X73427914Y-145307379D01*
X73411893Y-145365176D01*
X73396256Y-145421515D01*
X73380674Y-145477580D01*
X73365447Y-145532292D01*
X73350272Y-145586742D01*
X73335426Y-145639933D01*
X73320630Y-145692873D01*
X73306141Y-145744637D01*
X73291699Y-145796160D01*
X73277545Y-145846580D01*
X73263435Y-145896770D01*
X73249595Y-145945923D01*
X73235796Y-145994854D01*
X73222252Y-146042809D01*
X73208748Y-146090550D01*
X73195483Y-146137369D01*
X73182256Y-146183982D01*
X73169255Y-146229722D01*
X73156290Y-146275262D01*
X73143540Y-146319975D01*
X73130823Y-146364496D01*
X73118311Y-146408230D01*
X73105830Y-146451778D01*
X73093543Y-146494578D01*
X73081287Y-146537197D01*
X73069215Y-146579104D01*
X73057173Y-146620835D01*
X73045305Y-146661886D01*
X73033466Y-146702766D01*
X73021795Y-146742997D01*
X73010150Y-146783062D01*
X72998665Y-146822505D01*
X72987206Y-146861787D01*
X72975901Y-146900474D01*
X72964619Y-146939004D01*
X72953484Y-146976962D01*
X72942373Y-147014768D01*
X72931402Y-147052024D01*
X72920454Y-147089133D01*
X72909641Y-147125714D01*
X72898849Y-147162151D01*
X72888187Y-147198080D01*
X72877545Y-147233868D01*
X72867028Y-147269167D01*
X72856531Y-147304330D01*
X72846153Y-147339020D01*
X72835795Y-147373577D01*
X72825552Y-147407679D01*
X72815327Y-147441651D01*
X72805213Y-147475183D01*
X72795117Y-147508588D01*
X72785128Y-147541568D01*
X72775155Y-147574425D01*
X72765287Y-147606871D01*
X72755434Y-147639195D01*
X72745681Y-147671123D01*
X72735943Y-147702932D01*
X72726302Y-147734356D01*
X72716676Y-147765664D01*
X72707143Y-147796600D01*
X72697624Y-147827423D01*
X72688195Y-147857884D01*
X72678780Y-147888235D01*
X72669453Y-147918235D01*
X72660138Y-147948127D01*
X72650908Y-147977679D01*
X72641690Y-148007125D01*
X72632554Y-148036241D01*
X72623430Y-148065253D01*
X72614386Y-148093944D01*
X72605353Y-148122533D01*
X72596397Y-148150812D01*
X72587452Y-148178990D01*
X72578581Y-148206865D01*
X72569721Y-148234642D01*
X72560934Y-148262125D01*
X72552156Y-148289512D01*
X72543449Y-148316613D01*
X72534752Y-148343619D01*
X72526123Y-148370347D01*
X72517502Y-148396981D01*
X72508949Y-148423345D01*
X72500404Y-148449618D01*
X72491924Y-148475626D01*
X72483451Y-148501545D01*
X72475042Y-148527207D01*
X72466640Y-148552781D01*
X72458300Y-148578104D01*
X72449967Y-148603341D01*
X72441694Y-148628333D01*
X72433427Y-148653241D01*
X72425219Y-148677910D01*
X72417017Y-148702496D01*
X72408871Y-148726849D01*
X72400732Y-148751121D01*
X72392648Y-148775165D01*
X72384570Y-148799129D01*
X72376545Y-148822871D01*
X72368526Y-148846534D01*
X72360559Y-148869980D01*
X72352597Y-148893349D01*
X72344686Y-148916507D01*
X72336780Y-148939587D01*
X72328923Y-148962462D01*
X72321071Y-148985261D01*
X72313268Y-149007858D01*
X72305469Y-149030381D01*
X72297717Y-149052707D01*
X72289969Y-149074960D01*
X72282267Y-149097020D01*
X72274568Y-149119009D01*
X72266915Y-149140809D01*
X72259265Y-149162538D01*
X72251659Y-149184083D01*
X72244056Y-149205558D01*
X72236495Y-149226853D01*
X72228938Y-149248079D01*
X72221422Y-149269128D01*
X72213909Y-149290111D01*
X72206437Y-149310920D01*
X72198967Y-149331663D01*
X72191537Y-149352237D01*
X72184109Y-149372745D01*
X72176720Y-149393088D01*
X72169333Y-149413366D01*
X72161984Y-149433482D01*
X72154636Y-149453535D01*
X72147326Y-149473429D01*
X72140017Y-149493260D01*
X72132744Y-149512935D01*
X72125472Y-149532549D01*
X72118236Y-149552010D01*
X72111001Y-149571411D01*
X72103800Y-149590661D01*
X72096600Y-149609853D01*
X72089434Y-149628897D01*
X72082269Y-149647883D01*
X72075136Y-149666724D01*
X72068004Y-149685508D01*
X72060904Y-149704151D01*
X72053805Y-149722736D01*
X72046736Y-149741183D01*
X72039668Y-149759574D01*
X72032631Y-149777829D01*
X72025594Y-149796029D01*
X72018586Y-149814095D01*
X72011578Y-149832107D01*
X72004600Y-149849988D01*
X71997621Y-149867815D01*
X71990671Y-149885514D01*
X71983720Y-149903159D01*
X71976798Y-149920679D01*
X71969874Y-149938146D01*
X71962978Y-149955490D01*
X71956081Y-149972782D01*
X71949211Y-149989953D01*
X71942339Y-150007073D01*
X71935494Y-150024073D01*
X71928648Y-150041023D01*
X71921827Y-150057857D01*
X71915004Y-150074640D01*
X71908207Y-150091309D01*
X71901408Y-150107929D01*
X71894633Y-150124436D01*
X71887857Y-150140895D01*
X71881104Y-150157243D01*
X71874350Y-150173543D01*
X71867619Y-150189735D01*
X71860886Y-150205879D01*
X71854176Y-150221917D01*
X71847463Y-150237907D01*
X71840773Y-150253793D01*
X71834081Y-150269633D01*
X71827410Y-150285370D01*
X71820737Y-150301062D01*
X71814085Y-150316652D01*
X71807431Y-150332197D01*
X71800797Y-150347643D01*
X71794160Y-150363045D01*
X71787544Y-150378349D01*
X71780925Y-150393609D01*
X71774326Y-150408773D01*
X71767724Y-150423893D01*
X71761141Y-150438920D01*
X71754555Y-150453903D01*
X71747988Y-150468794D01*
X71741417Y-150483643D01*
X71734865Y-150498400D01*
X71728310Y-150513116D01*
X71721773Y-150527742D01*
X71715232Y-150542326D01*
X71708709Y-150556823D01*
X71702182Y-150571279D01*
X71695672Y-150585648D01*
X71689159Y-150599977D01*
X71682662Y-150614221D01*
X71676162Y-150628424D01*
X71669677Y-150642545D01*
X71663189Y-150656625D01*
X71656717Y-150670624D01*
X71650241Y-150684584D01*
X71643780Y-150698462D01*
X71637315Y-150712302D01*
X71630865Y-150726063D01*
X71624410Y-150739785D01*
X71617971Y-150753430D01*
X71611527Y-150767036D01*
X71605097Y-150780566D01*
X71598663Y-150794058D01*
X71592243Y-150807475D01*
X71585818Y-150820855D01*
X71579407Y-150834160D01*
X71572991Y-150847429D01*
X71566588Y-150860625D01*
X71560181Y-150873785D01*
X71553786Y-150886872D01*
X71547386Y-150899925D01*
X71540999Y-150912906D01*
X71534607Y-150925852D01*
X71528227Y-150938729D01*
X71521842Y-150951570D01*
X71515468Y-150964343D01*
X71509090Y-150977082D01*
X71502722Y-150989753D01*
X71496350Y-151002390D01*
X71489988Y-151014961D01*
X71483621Y-151027498D01*
X71477265Y-151039970D01*
X71470904Y-151052408D01*
X71464552Y-151064782D01*
X71458195Y-151077123D01*
X71451848Y-151089401D01*
X71445496Y-151101647D01*
X71439153Y-151113830D01*
X71432805Y-151125981D01*
X71426465Y-151138071D01*
X71420121Y-151150129D01*
X71413784Y-151162126D01*
X71407443Y-151174092D01*
X71401109Y-151185999D01*
X71394770Y-151197875D01*
X71388439Y-151209692D01*
X71382102Y-151221478D01*
X71375774Y-151233207D01*
X71369439Y-151244906D01*
X71363111Y-151256548D01*
X71356778Y-151268159D01*
X71350452Y-151279715D01*
X71344119Y-151291241D01*
X71337794Y-151302713D01*
X71331462Y-151314155D01*
X71325137Y-151325543D01*
X71318806Y-151336902D01*
X71312481Y-151348208D01*
X71306149Y-151359484D01*
X71299824Y-151370709D01*
X71293492Y-151381905D01*
X71287165Y-151393050D01*
X71280832Y-151404166D01*
X71274505Y-151415232D01*
X71268171Y-151426270D01*
X71261842Y-151437258D01*
X71255506Y-151448218D01*
X71249175Y-151459130D01*
X71242837Y-151470013D01*
X71236504Y-151480849D01*
X71230164Y-151491658D01*
X71223828Y-151502419D01*
X71217485Y-151513153D01*
X71211146Y-151523841D01*
X71204800Y-151534502D01*
X71198457Y-151545117D01*
X71192108Y-151555706D01*
X71185761Y-151566250D01*
X71179408Y-151576767D01*
X71173057Y-151587241D01*
X71166699Y-151597688D01*
X71160344Y-151608092D01*
X71153982Y-151618469D01*
X71147622Y-151628805D01*
X71141254Y-151639114D01*
X71134889Y-151649382D01*
X71128516Y-151659624D01*
X71122145Y-151669825D01*
X71115766Y-151680001D01*
X71109389Y-151690136D01*
X71103004Y-151700247D01*
X71096621Y-151710317D01*
X71090229Y-151720363D01*
X71083839Y-151730370D01*
X71077441Y-151740351D01*
X71071043Y-151750295D01*
X71064638Y-151760214D01*
X71058233Y-151770096D01*
X71051820Y-151779953D01*
X71045407Y-151789773D01*
X71038986Y-151799569D01*
X71032564Y-151809329D01*
X71026135Y-151819065D01*
X71019705Y-151828765D01*
X71013267Y-151838442D01*
X71006828Y-151848084D01*
X71000381Y-151857702D01*
X70993933Y-151867285D01*
X70987476Y-151876846D01*
X70981018Y-151886372D01*
X70974552Y-151895876D01*
X70968083Y-151905346D01*
X70961607Y-151914793D01*
X70955128Y-151924208D01*
X70948641Y-151933600D01*
X70942151Y-151942960D01*
X70935653Y-151952298D01*
X70929152Y-151961604D01*
X70922643Y-151970888D01*
X70916130Y-151980141D01*
X70909609Y-151989372D01*
X70903085Y-151998573D01*
X70896551Y-152007752D01*
X70890015Y-152016901D01*
X70883469Y-152026028D01*
X70876919Y-152035126D01*
X70870361Y-152044203D01*
X70863798Y-152053251D01*
X70857226Y-152062277D01*
X70850650Y-152071276D01*
X70844064Y-152080254D01*
X70837474Y-152089203D01*
X70830875Y-152098132D01*
X70824270Y-152107034D01*
X70817656Y-152115915D01*
X70811037Y-152124770D01*
X70804409Y-152133604D01*
X70797774Y-152142412D01*
X70791131Y-152151200D01*
X70784481Y-152159962D01*
X70777822Y-152168704D01*
X70771156Y-152177421D01*
X70764481Y-152186118D01*
X70757799Y-152194790D01*
X70751107Y-152203443D01*
X70744409Y-152212071D01*
X70737700Y-152220680D01*
X70730985Y-152229265D01*
X70724259Y-152237831D01*
X70717526Y-152246374D01*
X70710783Y-152254897D01*
X70704032Y-152263398D01*
X70697271Y-152271880D01*
X70690502Y-152280340D01*
X70683722Y-152288781D01*
X70676934Y-152297200D01*
X70670136Y-152305600D01*
X70663329Y-152313979D01*
X70656511Y-152322340D01*
X70649685Y-152330680D01*
X70642847Y-152339001D01*
X70636001Y-152347302D01*
X70629144Y-152355585D01*
X70622276Y-152363848D01*
X70615399Y-152372093D01*
X70608511Y-152380319D01*
X70601612Y-152388526D01*
X70594703Y-152396715D01*
X70587783Y-152404886D01*
X70580852Y-152413039D01*
X70573910Y-152421174D01*
X70566957Y-152429291D01*
X70559992Y-152437390D01*
X70553017Y-152445472D01*
X70546030Y-152453536D01*
X70539031Y-152461584D01*
X70532021Y-152469614D01*
X70524998Y-152477628D01*
X70517965Y-152485624D01*
X70510918Y-152493605D01*
X70503860Y-152501568D01*
X70496789Y-152509516D01*
X70489707Y-152517446D01*
X70475504Y-152533261D01*
X70461249Y-152549012D01*
X70446943Y-152564702D01*
X70432584Y-152580331D01*
X70418171Y-152595901D01*
X70403703Y-152611412D01*
X70389179Y-152626866D01*
X70374599Y-152642264D01*
X70359960Y-152657606D01*
X70345262Y-152672895D01*
X70330504Y-152688131D01*
X70315685Y-152703315D01*
X70300804Y-152718449D01*
X70285859Y-152733533D01*
X70270849Y-152748569D01*
X70255774Y-152763557D01*
X70240632Y-152778499D01*
X70225423Y-152793395D01*
X70210143Y-152808248D01*
X70194794Y-152823057D01*
X70179373Y-152837824D01*
X70163879Y-152852551D01*
X70148311Y-152867238D01*
X70132667Y-152881885D01*
X70116947Y-152896495D01*
X70101149Y-152911069D01*
X70085271Y-152925607D01*
X70069313Y-152940110D01*
X70053272Y-152954580D01*
X70037148Y-152969018D01*
X70020939Y-152983425D01*
X70004644Y-152997801D01*
X69988261Y-153012148D01*
X69971788Y-153026467D01*
X69955224Y-153040760D01*
X69938568Y-153055026D01*
X69921818Y-153069268D01*
X69904972Y-153083486D01*
X69888028Y-153097682D01*
X69870986Y-153111857D01*
X69853843Y-153126011D01*
X69836597Y-153140146D01*
X69819247Y-153154264D01*
X69801791Y-153168364D01*
X69784227Y-153182449D01*
X69766554Y-153196520D01*
X69748768Y-153210577D01*
X69730869Y-153224622D01*
X69712854Y-153238656D01*
X69694722Y-153252681D01*
X69676470Y-153266697D01*
X69658096Y-153280706D01*
X69639597Y-153294709D01*
X69620973Y-153308707D01*
X69602220Y-153322702D01*
X69583336Y-153336695D01*
X69564318Y-153350687D01*
X69545166Y-153364680D01*
X69525874Y-153378675D01*
X69506443Y-153392673D01*
X69486868Y-153406675D01*
X69467147Y-153420684D01*
X69447277Y-153434700D01*
X69427256Y-153448725D01*
X69407080Y-153462761D01*
X69386747Y-153476809D01*
X69366254Y-153490870D01*
X69345598Y-153504947D01*
X69324775Y-153519040D01*
X69303782Y-153533151D01*
X69282616Y-153547283D01*
X69261274Y-153561436D01*
X69239752Y-153575613D01*
X69218045Y-153589815D01*
X69196152Y-153604044D01*
X69174067Y-153618302D01*
X69151787Y-153632591D01*
X69129308Y-153646913D01*
X69106625Y-153661269D01*
X69083735Y-153675663D01*
X69060633Y-153690095D01*
X69037314Y-153704569D01*
X69013773Y-153719086D01*
X68990006Y-153733648D01*
X68966008Y-153748259D01*
X68941773Y-153762920D01*
X68917296Y-153777634D01*
X68892571Y-153792404D01*
X68867594Y-153807231D01*
X68842357Y-153822120D01*
X68816855Y-153837073D01*
X68791081Y-153852092D01*
X68765028Y-153867181D01*
X68738690Y-153882343D01*
X68712060Y-153897581D01*
X68685130Y-153912898D01*
X68657892Y-153928299D01*
X68630338Y-153943787D01*
X68602460Y-153959365D01*
X68574250Y-153975037D01*
X68545697Y-153990808D01*
X68516793Y-154006682D01*
X68487528Y-154022663D01*
X68457890Y-154038756D01*
X68427870Y-154054967D01*
X68397456Y-154071299D01*
X68366636Y-154087759D01*
X68335397Y-154104352D01*
X68303725Y-154121084D01*
X68271609Y-154137961D01*
X68239031Y-154154989D01*
X68205978Y-154172177D01*
X68172432Y-154189531D01*
X68138377Y-154207058D01*
X68103793Y-154224767D01*
X68068663Y-154242668D01*
X68032964Y-154260767D01*
X67996675Y-154279077D01*
X67959772Y-154297607D01*
X67945000Y-154305000D01*
D14*
X61912500Y-131127500D02*
X61912500Y-107950000D01*
X97472500Y-107950000D02*
X97472500Y-128587500D01*
X108267500Y-108902500D02*
G75*
G02*
X115252500Y-108902500I3492500J0D01*
G01*
X97472500Y-107950000D02*
G75*
G02*
X126047500Y-107950000I14287500J0D01*
G01*
X72707500Y-108902500D02*
G75*
G02*
X79692500Y-108902500I3492500J0D01*
G01*
X90487500Y-128587500D02*
X90487500Y-107950000D01*
X133032500Y-128587500D02*
G75*
G02*
X126047500Y-128587500I-3492500J0D01*
G01*
D15*
X138430000Y-90170000D02*
X138452076Y-90194225D01*
X138474155Y-90218333D01*
X138496236Y-90242327D01*
X138518321Y-90266206D01*
X138540409Y-90289973D01*
X138562502Y-90313626D01*
X138584600Y-90337169D01*
X138606704Y-90360602D01*
X138628815Y-90383925D01*
X138650932Y-90407140D01*
X138673058Y-90430247D01*
X138695192Y-90453249D01*
X138717336Y-90476145D01*
X138739490Y-90498937D01*
X138761655Y-90521626D01*
X138783832Y-90544213D01*
X138806021Y-90566699D01*
X138828224Y-90589085D01*
X138850441Y-90611372D01*
X138872673Y-90633562D01*
X138894922Y-90655656D01*
X138917187Y-90677654D01*
X138939471Y-90699557D01*
X138961774Y-90721368D01*
X138984096Y-90743087D01*
X139006441Y-90764716D01*
X139028807Y-90786255D01*
X139051197Y-90807706D01*
X139073612Y-90829071D01*
X139096052Y-90850350D01*
X139118520Y-90871544D01*
X139141015Y-90892657D01*
X139163541Y-90913687D01*
X139186098Y-90934638D01*
X139208687Y-90955511D01*
X139231311Y-90976306D01*
X139253970Y-90997026D01*
X139276666Y-91017672D01*
X139299401Y-91038246D01*
X139322177Y-91058749D01*
X139344995Y-91079182D01*
X139367857Y-91099549D01*
X139390765Y-91119850D01*
X139413722Y-91140087D01*
X139436729Y-91160263D01*
X139459788Y-91180378D01*
X139482902Y-91200436D01*
X139506073Y-91220438D01*
X139529303Y-91240385D01*
X139552596Y-91260282D01*
X139575953Y-91280129D01*
X139599379Y-91299929D01*
X139622875Y-91319685D01*
X139646445Y-91339399D01*
X139670092Y-91359074D01*
X139693819Y-91378712D01*
X139717631Y-91398317D01*
X139741532Y-91417891D01*
X139765524Y-91437438D01*
X139789613Y-91456961D01*
X139813803Y-91476464D01*
X139838099Y-91495950D01*
X139862505Y-91515423D01*
X139887029Y-91534887D01*
X139911674Y-91554347D01*
X139936449Y-91573807D01*
X139961358Y-91593272D01*
X139986410Y-91612748D01*
X140011611Y-91632239D01*
X140036971Y-91651752D01*
X140062498Y-91671294D01*
X140088201Y-91690871D01*
X140114091Y-91710490D01*
X140140179Y-91730160D01*
X140166478Y-91749889D01*
X140193001Y-91769687D01*
X140219762Y-91789565D01*
X140246779Y-91809533D01*
X140274068Y-91829604D01*
X140301651Y-91849793D01*
X140329548Y-91870114D01*
X140357787Y-91890585D01*
X140386393Y-91911226D01*
X140415401Y-91932058D01*
X140444846Y-91953108D01*
X140474772Y-91974403D01*
X140505227Y-91995979D01*
X140536270Y-92017875D01*
X140567970Y-92040137D01*
X140600410Y-92062824D01*
X140633694Y-92086004D01*
X140667948Y-92109766D01*
X140703338Y-92134219D01*
X140740076Y-92159510D01*
X140778457Y-92185836D01*
X140818896Y-92213481D01*
X140862024Y-92242872D01*
X140908887Y-92274716D01*
X140961464Y-92310354D01*
X141024555Y-92353033D01*
X141070870Y-92384333D01*
X141144848Y-92434340D01*
X141181487Y-92459136D01*
X141217892Y-92483811D01*
X141254063Y-92508375D01*
X141290000Y-92532841D01*
X141325703Y-92557219D01*
X141361170Y-92581523D01*
X141378816Y-92593650D01*
X141396403Y-92605764D01*
X141413930Y-92617864D01*
X141431399Y-92629953D01*
X141448810Y-92642031D01*
X141466161Y-92654102D01*
X141483453Y-92666165D01*
X141500686Y-92678223D01*
X141517860Y-92690277D01*
X141534975Y-92702328D01*
X141552031Y-92714378D01*
X141569027Y-92726428D01*
X141585964Y-92738481D01*
X141602843Y-92750536D01*
X141619661Y-92762596D01*
X141636421Y-92774663D01*
X141653121Y-92786737D01*
X141669762Y-92798821D01*
X141686343Y-92810915D01*
X141702865Y-92823021D01*
X141719327Y-92835140D01*
X141735730Y-92847275D01*
X141752073Y-92859426D01*
X141768357Y-92871596D01*
X141784581Y-92883784D01*
X141800745Y-92895994D01*
X141816850Y-92908226D01*
X141832894Y-92920482D01*
X141848879Y-92932763D01*
X141864805Y-92945071D01*
X141880670Y-92957408D01*
X141896475Y-92969774D01*
X141912221Y-92982171D01*
X141927906Y-92994601D01*
X141943532Y-93007065D01*
X141959097Y-93019565D01*
X141974603Y-93032102D01*
X141990048Y-93044677D01*
X142005433Y-93057293D01*
X142020758Y-93069950D01*
X142036023Y-93082650D01*
X142051227Y-93095394D01*
X142066371Y-93108185D01*
X142081455Y-93121022D01*
X142096479Y-93133909D01*
X142111442Y-93146846D01*
X142126344Y-93159834D01*
X142133773Y-93166349D01*
X142141186Y-93172876D01*
X142148585Y-93179418D01*
X142155968Y-93185973D01*
X142163336Y-93192542D01*
X142170689Y-93199126D01*
X142178027Y-93205724D01*
X142185350Y-93212337D01*
X142192657Y-93218964D01*
X142199950Y-93225606D01*
X142207227Y-93232264D01*
X142214489Y-93238937D01*
X142221736Y-93245625D01*
X142228968Y-93252329D01*
X142236184Y-93259049D01*
X142243385Y-93265785D01*
X142250572Y-93272537D01*
X142257742Y-93279306D01*
X142264898Y-93286091D01*
X142272039Y-93292894D01*
X142279164Y-93299713D01*
X142286274Y-93306549D01*
X142293369Y-93313403D01*
X142300449Y-93320274D01*
X142307513Y-93327163D01*
X142314563Y-93334070D01*
X142321597Y-93340995D01*
X142328615Y-93347938D01*
X142335619Y-93354900D01*
X142342607Y-93361880D01*
X142349580Y-93368879D01*
X142356538Y-93375897D01*
X142363480Y-93382935D01*
X142370408Y-93389991D01*
X142377320Y-93397068D01*
X142384216Y-93404164D01*
X142391098Y-93411280D01*
X142397964Y-93418416D01*
X142404815Y-93425572D01*
X142411650Y-93432749D01*
X142418470Y-93439947D01*
X142425275Y-93447165D01*
X142432065Y-93454405D01*
X142438839Y-93461665D01*
X142445598Y-93468947D01*
X142452342Y-93476251D01*
X142459070Y-93483576D01*
X142465783Y-93490924D01*
X142472481Y-93498293D01*
X142479164Y-93505685D01*
X142485831Y-93513099D01*
X142492482Y-93520536D01*
X142499119Y-93527996D01*
X142505740Y-93535479D01*
X142512345Y-93542985D01*
X142518935Y-93550515D01*
X142525510Y-93558068D01*
X142532070Y-93565645D01*
X142538614Y-93573246D01*
X142545143Y-93580871D01*
X142551656Y-93588521D01*
X142558154Y-93596195D01*
X142564637Y-93603893D01*
X142571104Y-93611617D01*
X142577556Y-93619366D01*
X142583992Y-93627139D01*
X142590413Y-93634939D01*
X142596818Y-93642764D01*
X142603208Y-93650615D01*
X142609583Y-93658491D01*
X142615942Y-93666394D01*
X142622286Y-93674324D01*
X142628615Y-93682280D01*
X142634927Y-93690262D01*
X142641225Y-93698272D01*
X142647507Y-93706308D01*
X142653774Y-93714372D01*
X142660025Y-93722464D01*
X142666260Y-93730583D01*
X142672480Y-93738730D01*
X142678685Y-93746904D01*
X142684874Y-93755107D01*
X142691048Y-93763339D01*
X142697206Y-93771599D01*
X142703349Y-93779888D01*
X142709476Y-93788205D01*
X142715588Y-93796552D01*
X142721684Y-93804928D01*
X142727765Y-93813334D01*
X142733830Y-93821769D01*
X142739880Y-93830234D01*
X142745914Y-93838729D01*
X142751932Y-93847255D01*
X142757936Y-93855811D01*
X142763923Y-93864397D01*
X142769895Y-93873014D01*
X142775852Y-93881662D01*
X142781792Y-93890341D01*
X142787718Y-93899052D01*
X142793628Y-93907794D01*
X142799522Y-93916568D01*
X142805400Y-93925373D01*
X142811263Y-93934211D01*
X142817111Y-93943081D01*
X142822943Y-93951983D01*
X142828759Y-93960918D01*
X142834560Y-93969886D01*
X142840345Y-93978887D01*
X142846115Y-93987921D01*
X142851868Y-93996988D01*
X142857607Y-94006089D01*
X142863329Y-94015223D01*
X142869036Y-94024392D01*
X142874728Y-94033594D01*
X142880404Y-94042831D01*
X142886064Y-94052102D01*
X142891708Y-94061408D01*
X142897337Y-94070748D01*
X142902951Y-94080124D01*
X142908548Y-94089535D01*
X142914130Y-94098981D01*
X142919696Y-94108463D01*
X142925247Y-94117980D01*
X142930782Y-94127533D01*
X142936301Y-94137123D01*
X142941805Y-94146749D01*
X142947293Y-94156411D01*
X142952765Y-94166110D01*
X142958222Y-94175845D01*
X142963662Y-94185618D01*
X142969088Y-94195428D01*
X142974497Y-94205275D01*
X142979891Y-94215160D01*
X142985269Y-94225083D01*
X142990631Y-94235043D01*
X142995978Y-94245042D01*
X143001308Y-94255079D01*
X143006624Y-94265154D01*
X143011923Y-94275268D01*
X143017207Y-94285421D01*
X143022474Y-94295614D01*
X143027727Y-94305845D01*
X143032963Y-94316115D01*
X143038184Y-94326426D01*
X143043388Y-94336776D01*
X143048578Y-94347166D01*
X143053751Y-94357596D01*
X143058908Y-94368066D01*
X143064050Y-94378577D01*
X143069176Y-94389129D01*
X143074286Y-94399721D01*
X143079381Y-94410355D01*
X143084459Y-94421030D01*
X143089522Y-94431746D01*
X143094569Y-94442504D01*
X143099600Y-94453304D01*
X143104616Y-94464145D01*
X143109615Y-94475029D01*
X143114599Y-94485955D01*
X143119567Y-94496924D01*
X143124519Y-94507936D01*
X143129455Y-94518990D01*
X143134375Y-94530087D01*
X143139280Y-94541228D01*
X143144169Y-94552412D01*
X143149041Y-94563640D01*
X143153898Y-94574911D01*
X143158739Y-94586227D01*
X143163564Y-94597587D01*
X143168374Y-94608991D01*
X143173167Y-94620439D01*
X143177945Y-94631933D01*
X143182706Y-94643471D01*
X143187452Y-94655055D01*
X143192182Y-94666683D01*
X143196896Y-94678357D01*
X143201594Y-94690077D01*
X143206276Y-94701843D01*
X143210943Y-94713655D01*
X143215593Y-94725513D01*
X143220227Y-94737417D01*
X143224846Y-94749368D01*
X143229448Y-94761365D01*
X143234035Y-94773410D01*
X143238606Y-94785502D01*
X143243160Y-94797641D01*
X143247699Y-94809827D01*
X143252222Y-94822061D01*
X143256729Y-94834343D01*
X143261220Y-94846673D01*
X143265694Y-94859052D01*
X143270153Y-94871478D01*
X143274596Y-94883954D01*
X143279023Y-94896478D01*
X143283434Y-94909051D01*
X143287829Y-94921673D01*
X143292208Y-94934344D01*
X143296571Y-94947065D01*
X143300918Y-94959836D01*
X143305249Y-94972657D01*
X143309564Y-94985527D01*
X143313863Y-94998448D01*
X143318146Y-95011420D01*
X143322413Y-95024442D01*
X143326664Y-95037514D01*
X143330899Y-95050638D01*
X143335117Y-95063813D01*
X143339320Y-95077039D01*
X143343507Y-95090317D01*
X143347677Y-95103646D01*
X143351832Y-95117028D01*
X143355971Y-95130461D01*
X143360093Y-95143947D01*
X143364199Y-95157485D01*
X143368290Y-95171076D01*
X143372364Y-95184720D01*
X143376422Y-95198417D01*
X143380464Y-95212166D01*
X143384490Y-95225970D01*
X143388500Y-95239826D01*
X143392493Y-95253737D01*
X143396471Y-95267701D01*
X143400433Y-95281720D01*
X143404378Y-95295793D01*
X143408307Y-95309920D01*
X143412220Y-95324102D01*
X143416117Y-95338339D01*
X143419998Y-95352631D01*
X143423863Y-95366978D01*
X143427712Y-95381380D01*
X143431544Y-95395838D01*
X143435360Y-95410352D01*
X143439161Y-95424922D01*
X143442945Y-95439548D01*
X143446712Y-95454230D01*
X143450464Y-95468968D01*
X143454199Y-95483764D01*
X143457919Y-95498616D01*
X143461622Y-95513525D01*
X143465309Y-95528492D01*
X143468979Y-95543516D01*
X143472634Y-95558597D01*
X143476272Y-95573736D01*
X143479894Y-95588934D01*
X143483500Y-95604189D01*
X143487090Y-95619503D01*
X143490663Y-95634875D01*
X143494221Y-95650306D01*
X143497762Y-95665796D01*
X143501286Y-95681345D01*
X143504795Y-95696953D01*
X143508287Y-95712620D01*
X143511763Y-95728347D01*
X143515223Y-95744134D01*
X143518667Y-95759981D01*
X143522094Y-95775889D01*
X143525505Y-95791856D01*
X143528900Y-95807884D01*
X143532278Y-95823973D01*
X143535640Y-95840122D01*
X143538986Y-95856333D01*
X143542316Y-95872605D01*
X143545629Y-95888939D01*
X143548926Y-95905334D01*
X143552207Y-95921791D01*
X143555471Y-95938310D01*
X143558719Y-95954891D01*
X143561951Y-95971534D01*
X143565167Y-95988240D01*
X143568366Y-96005009D01*
X143571549Y-96021841D01*
X143574715Y-96038736D01*
X143577865Y-96055694D01*
X143580999Y-96072715D01*
X143584117Y-96089801D01*
X143587218Y-96106950D01*
X143590303Y-96124163D01*
X143593371Y-96141440D01*
X143596423Y-96158782D01*
X143599459Y-96176188D01*
X143602478Y-96193660D01*
X143605481Y-96211196D01*
X143608467Y-96228797D01*
X143611438Y-96246463D01*
X143614391Y-96264195D01*
X143617329Y-96281993D01*
X143620250Y-96299856D01*
X143623154Y-96317786D01*
X143626042Y-96335782D01*
X143628914Y-96353844D01*
X143631769Y-96371973D01*
X143634608Y-96390169D01*
X143637431Y-96408431D01*
X143640237Y-96426761D01*
X143643026Y-96445158D01*
X143645800Y-96463622D01*
X143648556Y-96482155D01*
X143651297Y-96500755D01*
X143654020Y-96519423D01*
X143656728Y-96538160D01*
X143659419Y-96556965D01*
X143662093Y-96575838D01*
X143664751Y-96594781D01*
X143667393Y-96613792D01*
X143670018Y-96632872D01*
X143672626Y-96652022D01*
X143675218Y-96671242D01*
X143677794Y-96690531D01*
X143680353Y-96709890D01*
X143682895Y-96729319D01*
X143685421Y-96748819D01*
X143687931Y-96768388D01*
X143690424Y-96788029D01*
X143692900Y-96807740D01*
X143695360Y-96827523D01*
X143697804Y-96847376D01*
X143700231Y-96867301D01*
X143702641Y-96887298D01*
X143705035Y-96907366D01*
X143707412Y-96927506D01*
X143709773Y-96947718D01*
X143712117Y-96968003D01*
X143714444Y-96988360D01*
X143716755Y-97008790D01*
X143719050Y-97029292D01*
X143721328Y-97049868D01*
X143723589Y-97070517D01*
X143725834Y-97091239D01*
X143728062Y-97112035D01*
X143730273Y-97132904D01*
X143732468Y-97153848D01*
X143734647Y-97174865D01*
X143736809Y-97195957D01*
X143738954Y-97217124D01*
X143741082Y-97238365D01*
X143743194Y-97259681D01*
X143745289Y-97281072D01*
X143747368Y-97302538D01*
X143749430Y-97324080D01*
X143751475Y-97345697D01*
X143753504Y-97367391D01*
X143755516Y-97389160D01*
X143757512Y-97411005D01*
X143759490Y-97432926D01*
X143761452Y-97454925D01*
X143763398Y-97476999D01*
X143765327Y-97499151D01*
X143767239Y-97521380D01*
X143769134Y-97543686D01*
X143771013Y-97566069D01*
X143772875Y-97588530D01*
X143774720Y-97611069D01*
X143776549Y-97633686D01*
X143778361Y-97656381D01*
X143780156Y-97679155D01*
X143781935Y-97702007D01*
X143783697Y-97724937D01*
X143785442Y-97747947D01*
X143787170Y-97771036D01*
X143788882Y-97794204D01*
X143790577Y-97817451D01*
X143792255Y-97840778D01*
X143793917Y-97864185D01*
X143795561Y-97887672D01*
X143797189Y-97911239D01*
X143798801Y-97934887D01*
X143800395Y-97958615D01*
X143801973Y-97982424D01*
X143803534Y-98006313D01*
X143805078Y-98030284D01*
X143806605Y-98054337D01*
X143808116Y-98078470D01*
X143809610Y-98102685D01*
X143811087Y-98126983D01*
X143812547Y-98151362D01*
X143813990Y-98175823D01*
X143815417Y-98200367D01*
X143816827Y-98224994D01*
X143818220Y-98249703D01*
X143819596Y-98274495D01*
X143820956Y-98299370D01*
X143822298Y-98324329D01*
X143823624Y-98349371D01*
X143824933Y-98374497D01*
X143826225Y-98399706D01*
X143827500Y-98425000D01*
D14*
X66675000Y-157797500D02*
X65087500Y-160655000D01*
M02*
